<?xml version="1.0" encoding="UTF-8"?>
<svg version="1.1" xmlns="http://www.w3.org/2000/svg" width="289" height="289">
<path d="M0 0 C95.37 0 190.74 0 289 0 C289 95.37 289 190.74 289 289 C193.63 289 98.26 289 0 289 C0 193.63 0 98.26 0 0 Z " fill="#19ACBA" transform="translate(0,0)"/>
<path d="M0 0 C3.98340305 -0.09973852 7.96631108 -0.17187198 11.95068359 -0.21972656 C13.96347627 -0.24946045 15.97592134 -0.30031729 17.98828125 -0.3515625 C27.27952895 -0.44494187 32.79541581 0.33217124 39.9375 6.5625 C43.22602367 10.44893706 43.28608326 13.84280105 43.21484375 18.71875 C42.77961139 23.34012634 40.88454664 26.1387309 37.625 29.3125 C34.94605281 31.03468033 33.0926578 31.47766148 30 32 C31.62269547 34.29332975 33.24803639 36.58470136 34.875 38.875 C35.33519531 39.52597656 35.79539063 40.17695312 36.26953125 40.84765625 C36.71425781 41.47285156 37.15898437 42.09804687 37.6171875 42.7421875 C38.02565918 43.3182373 38.43413086 43.89428711 38.85498047 44.48779297 C40.06102808 46.15228393 40.06102808 46.15228393 42 48 C41.625 50.625 41.625 50.625 41 53 C38.525 53.495 38.525 53.495 36 54 C35.32453125 53.11957031 34.6490625 52.23914063 33.953125 51.33203125 C33.05210954 50.15883404 32.1510664 48.98565808 31.25 47.8125 C30.8065625 47.23435547 30.363125 46.65621094 29.90625 46.06054688 C29.46796875 45.49013672 29.0296875 44.91972656 28.578125 44.33203125 C28.14564453 43.76822754 27.71316406 43.20442383 27.26757812 42.62353516 C26.09807203 41.12561229 24.88667568 39.66064843 23.671875 38.19921875 C22 36 22 36 22 34 C17.38 34 12.76 34 8 34 C8.02320313 35.27617188 8.04640625 36.55234375 8.0703125 37.8671875 C8.08906829 39.5364525 8.10726869 41.2057238 8.125 42.875 C8.14175781 43.71675781 8.15851563 44.55851562 8.17578125 45.42578125 C8.18222656 46.23144531 8.18867188 47.03710938 8.1953125 47.8671875 C8.20578613 48.61081543 8.21625977 49.35444336 8.22705078 50.12060547 C8 52 8 52 6 54 C1.44444444 53.44444444 1.44444444 53.44444444 0 52 C-0.09340434 50.37325222 -0.11745171 48.74245949 -0.11352539 47.11303711 C-0.11344986 46.07203354 -0.11337433 45.03102997 -0.11329651 43.95848083 C-0.10813522 42.8262056 -0.10297394 41.69393036 -0.09765625 40.52734375 C-0.0962413 39.37456436 -0.09482635 38.22178497 -0.09336853 37.03407288 C-0.08775005 33.33518936 -0.07519442 29.63636536 -0.0625 25.9375 C-0.05748738 23.43684983 -0.05292406 20.93619871 -0.04882812 18.43554688 C-0.03777462 12.29034412 -0.02101852 6.14517631 0 0 Z " fill="#F1FAFA" transform="translate(213,52)"/>
<path d="M0 0 C5.57788907 2.52292213 9.07722834 6.73901101 12 12 C13.97784396 17.93353187 14.00831235 24.63853119 11.375 30.375 C8.50858516 35.33532072 4.30759216 38.81395934 -1 41 C-7.87564772 41.93312362 -13.69367842 41.67051419 -19.3828125 37.4921875 C-24.27021464 32.98255557 -27.01048703 27.39080793 -27.4375 20.8125 C-27.25163633 14.25260563 -24.50258441 9.03325291 -20.37890625 4.03515625 C-14.5543861 -1.28832991 -7.49371571 -1.31009016 0 0 Z " fill="#1BADBB" transform="translate(125,59)"/>
<path d="M0 0 C5.03576887 2.82885821 8.57655424 6.99858155 10.75 12.375 C11.61579562 19.98594752 11.54691973 27.1271601 6.75 33.375 C2.23607864 38.32002621 -2.517734 40.06146128 -9.0625 40.8125 C-14.20625839 40.65483691 -18.21741622 38.4551259 -22.25 35.375 C-27.80527042 29.34469458 -28.71236545 23.70588783 -28.66796875 15.75 C-27.92536752 9.75366861 -24.82572694 5.45408394 -20.18359375 1.70703125 C-13.97741811 -2.56833419 -6.86248509 -3.11341479 0 0 Z " fill="#1AACBA" transform="translate(126.25,190.625)"/>
<path d="M0 0 C20.14444444 0 20.14444444 0 26 4 C30.79673966 8.80658923 32.74385572 12.97749749 33.3125 19.6875 C33.22156233 25.76895641 30.90850811 31.03991059 26.6875 35.375 C16.76036956 41.37745097 13.10579193 40 0 40 C0 26.8 0 13.6 0 0 Z " fill="#1CADBB" transform="translate(163,190)"/>
<path d="M0 0 C7.14714468 3.9529424 12.22886584 9.71073284 14.6875 17.5625 C15.6137747 26.72774437 15.72219734 35.07747484 9.6875 42.5625 C5.60407696 47.41846254 0.30931677 51.35522774 -5.75 53.375 C-6.595625 53.436875 -7.44125 53.49875 -8.3125 53.5625 C-8.96863281 53.61277344 -9.62476562 53.66304687 -10.30078125 53.71484375 C-18.52163375 54.06980284 -24.7358826 52.18682395 -31.125 46.9375 C-36.66063601 41.70134866 -39.76034974 35.11585743 -40.515625 27.51953125 C-40.72488822 17.94573914 -38.10909191 11.49056211 -31.5078125 4.51171875 C-22.60576438 -3.39241295 -10.7257746 -4.89008867 0 0 Z M-27.109375 10.5390625 C-32.4472852 17.529183 -33.19614834 22.71585973 -32.3125 31.5625 C-30.13452801 38.27221641 -26.27203216 42.03092539 -20.3125 45.5625 C-14.45985332 47.51338223 -8.83813953 47.01630894 -3.203125 44.67578125 C1.8251896 41.71489352 4.91832292 37.03013778 6.6875 31.5625 C7.56484658 24.34978758 7.5680417 18.10512622 3.11328125 12.14453125 C-0.70864957 7.9037587 -4.60310967 5.03240357 -10.34765625 4.3046875 C-17.08305189 3.95809767 -22.48459625 5.45180587 -27.109375 10.5390625 Z " fill="#F5FBFC" transform="translate(130.3125,184.4375)"/>
<path d="M0 0 C0.70745361 0.00612305 1.41490723 0.01224609 2.14379883 0.01855469 C7.72076275 0.18570289 11.6497011 1.16400771 16.125 4.4375 C16.99125 4.97375 17.8575 5.51 18.75 6.0625 C24.79872164 12.11122164 27.71148062 17.76557026 27.75 26.4375 C27.53294321 34.97938169 25.74432879 41.86201258 20 48.3125 C13.12557552 54.47326601 5.39071305 56.21027895 -3.6953125 55.87890625 C-11.94676706 54.73343406 -17.3565816 50.65977658 -22.5 44.3046875 C-27.82334449 37.07582765 -27.69798716 29.20327024 -26.875 20.4375 C-24.37619247 11.7967637 -18.64623438 6.31238804 -11.11328125 1.7734375 C-7.3356274 0.2149844 -4.02333529 -0.05901971 0 0 Z M-14.875 13.4375 C-18.48799865 18.68389361 -20.70646166 23.83382508 -20.296875 30.2734375 C-18.87184313 37.5833232 -14.61409582 42.82394833 -8.578125 47.04296875 C-3.84280961 49.4858988 0.93581825 49.15765882 6.125 48.4375 C12.1114376 46.08741222 16.48896374 41.96446223 19.203125 36.11328125 C21.20641242 30.29865461 21.08872724 23.76293203 18.5625 18.125 C15.90865021 13.50216489 11.8905513 9.82027565 7.125 7.4375 C-1.64659882 6.52810852 -8.95391136 6.26085521 -14.875 13.4375 Z " fill="#F8FCFD" transform="translate(117.875,51.5625)"/>
<path d="M0 0 C31.75486381 0 31.75486381 0 38.9375 6.875 C40.00291016 7.86113281 40.00291016 7.86113281 41.08984375 8.8671875 C47.71028728 16.25933917 47.41992969 23.48159373 47 33 C46.03858584 39.51625155 42.88365631 43.74130885 38 48 C25.16745996 55.98337745 16.98603787 54 0 54 C0 36.18 0 18.36 0 0 Z M7 7 C7 20.2 7 33.4 7 47 C21.93308074 47.68872548 21.93308074 47.68872548 33.6875 42.375 C37.82857685 38.12200215 40.18216663 32.84051593 40.4375 26.875 C39.73543674 20.65672542 37.57134306 15.33691521 33 11 C24.54769848 5.73237421 17.32773934 7 7 7 Z " fill="#F9FDFD" transform="translate(156,183)"/>
<path d="M0 0 C6.22875 -0.04125 12.4575 -0.0825 18.875 -0.125 C21.82348877 -0.15231201 21.82348877 -0.15231201 24.83154297 -0.18017578 C26.38508836 -0.18601558 27.93863681 -0.19111235 29.4921875 -0.1953125 C30.30244385 -0.20554443 31.1127002 -0.21577637 31.94750977 -0.22631836 C33.96641636 -0.22695105 35.98485274 -0.12314936 38 0 C38.66 0.66 39.32 1.32 40 2 C39.46428571 5.53571429 39.46428571 5.53571429 38 7 C35.78144736 7.08783542 33.56011504 7.10694609 31.33984375 7.09765625 C30.34314415 7.09553383 30.34314415 7.09553383 29.3263092 7.09336853 C27.19666101 7.08775518 25.06711661 7.07520054 22.9375 7.0625 C21.49674631 7.05748671 20.05599097 7.05292351 18.61523438 7.04882812 C15.07675042 7.03863076 11.53849187 7.0190583 8 7 C8 12.28 8 17.56 8 23 C9.93746094 22.98839844 11.87492188 22.97679687 13.87109375 22.96484375 C16.39322821 22.95546779 18.9153637 22.94636738 21.4375 22.9375 C22.71689453 22.92912109 23.99628906 22.92074219 25.31445312 22.91210938 C27.13686523 22.90727539 27.13686523 22.90727539 28.99609375 22.90234375 C30.12200928 22.89710693 31.2479248 22.89187012 32.40795898 22.88647461 C35 23 35 23 36 24 C36.125 26.5 36.125 26.5 36 29 C35 30 35 30 32.40795898 30.11352539 C31.28204346 30.10828857 30.15612793 30.10305176 28.99609375 30.09765625 C27.78115234 30.09443359 26.56621094 30.09121094 25.31445312 30.08789062 C24.03505859 30.07951172 22.75566406 30.07113281 21.4375 30.0625 C20.15423828 30.05798828 18.87097656 30.05347656 17.54882812 30.04882812 C14.3658658 30.03699555 11.18292726 30.01905944 8 30 C8 35.61 8 41.22 8 47 C11.21363281 46.96519531 11.21363281 46.96519531 14.4921875 46.9296875 C16.56395882 46.91409627 18.63572363 46.90194855 20.70751953 46.89013672 C22.14895547 46.88007037 23.59037095 46.8664162 25.03173828 46.84912109 C27.10193934 46.82489988 29.17187076 46.81352359 31.2421875 46.8046875 C33.11173096 46.78897705 33.11173096 46.78897705 35.01904297 46.77294922 C38 47 38 47 40 49 C39.46428571 52.53571429 39.46428571 52.53571429 38 54 C35.18859849 54.0886126 32.40120576 54.11529584 29.58984375 54.09765625 C28.84383911 54.09664917 28.09783447 54.09564209 27.32922363 54.09460449 C24.53196687 54.08935689 21.73473196 54.07539573 18.9375 54.0625 C12.688125 54.041875 6.43875 54.02125 0 54 C0 36.18 0 18.36 0 0 Z " fill="#F5FBFC" transform="translate(214,183)"/>
<path d="M0 0 C2.5625 0.25 2.5625 0.25 5 1 C6.20029908 3.40059817 6.11459743 4.89360649 6.09765625 7.5703125 C6.09515869 8.37742676 6.09266113 9.18454102 6.09008789 10.01611328 C6.08098389 11.0420459 6.07187988 12.06797852 6.0625 13.125 C6.0315625 18.013125 6.0315625 18.013125 6 23 C15.24 23 24.48 23 34 23 C33.92092297 16.50788924 33.92092297 16.50788924 33.81982422 10.01611328 C33.8148291 9.20899902 33.80983398 8.40188477 33.8046875 7.5703125 C33.78897705 6.32918701 33.78897705 6.32918701 33.77294922 5.06298828 C34 3 34 3 36 1 C38.5625 0.8125 38.5625 0.8125 41 1 C42.62451776 2.62451776 42.13554683 4.42840104 42.14526367 6.67163086 C42.15164352 7.66613754 42.15802338 8.66064423 42.16459656 9.68528748 C42.16570938 10.76754105 42.1668222 11.84979462 42.16796875 12.96484375 C42.17296135 14.62030968 42.17296135 14.62030968 42.17805481 16.30921936 C42.18312886 18.64876894 42.18546299 20.98832578 42.18530273 23.32788086 C42.18748848 26.91857766 42.20563734 30.50896704 42.22460938 34.09960938 C42.22754327 36.36718644 42.22952809 38.63476498 42.23046875 40.90234375 C42.23765427 41.98257309 42.24483978 43.06280243 42.25224304 44.17576599 C42.24916641 45.17342484 42.24608978 46.17108368 42.24291992 47.19897461 C42.24434494 48.07976181 42.24576996 48.96054901 42.24723816 49.86802673 C42 52 42 52 40 54 C35.44444444 53.44444444 35.44444444 53.44444444 34 52 C33.91314397 50.43827255 33.89297781 48.87270656 33.90234375 47.30859375 C33.90484131 46.45837646 33.90733887 45.60815918 33.90991211 44.73217773 C33.91901611 43.64493408 33.92812012 42.55769043 33.9375 41.4375 C33.958125 37.993125 33.97875 34.54875 34 31 C24.76 31 15.52 31 6 31 C6.07908542 37.82120411 6.07908542 37.82120411 6.18017578 44.64208984 C6.1851709 45.48980957 6.19016602 46.3375293 6.1953125 47.2109375 C6.20578613 48.08024902 6.21625977 48.94956055 6.22705078 49.84521484 C6 52 6 52 4 54 C-0.55555556 53.44444444 -0.55555556 53.44444444 -2 52 C-2.10367027 50.44549012 -2.13851522 48.88631745 -2.14526367 47.32836914 C-2.15164352 46.33386246 -2.15802338 45.33935577 -2.16459656 44.31471252 C-2.16570938 43.23245895 -2.1668222 42.15020538 -2.16796875 41.03515625 C-2.17129715 39.9315123 -2.17462555 38.82786835 -2.17805481 37.69078064 C-2.18312886 35.35123106 -2.18546299 33.01167422 -2.18530273 30.67211914 C-2.18748848 27.08142234 -2.20563734 23.49103296 -2.22460938 19.90039062 C-2.22754327 17.63281356 -2.22952809 15.36523502 -2.23046875 13.09765625 C-2.23765427 12.01742691 -2.24483978 10.93719757 -2.25224304 9.82423401 C-2.24916641 8.82657516 -2.24608978 7.82891632 -2.24291992 6.80102539 C-2.24434494 5.92023819 -2.24576996 5.03945099 -2.24723816 4.13197327 C-2 2 -2 2 0 0 Z " fill="#EFF9FA" transform="translate(38,52)"/>
<path d="M0 0 C3.53571429 0.53571429 3.53571429 0.53571429 5 2 C5.1107249 4.50989143 5.16162183 6.9968861 5.17578125 9.5078125 C5.19899843 11.06772155 5.22311651 12.62761739 5.24804688 14.1875 C5.2830296 16.64950128 5.31242335 19.11102375 5.32592773 21.57324219 C5.34150608 23.94786164 5.38179643 26.32107057 5.42578125 28.6953125 C5.42387283 29.42162872 5.42196442 30.14794495 5.41999817 30.89627075 C5.54816438 36.31306403 6.96117791 39.50456707 10 44 C13.79007594 47.45565747 17.64258501 47.4603763 22.5625 47.27734375 C26.03987299 46.88168112 28.19913241 46.11772915 31 44 C33.65657423 38.92640803 34.44045938 34.68291705 34.44140625 28.94921875 C34.45461411 28.2092012 34.46782196 27.46918365 34.48143005 26.70674133 C34.52199636 24.36695422 34.54392237 22.02755724 34.5625 19.6875 C34.58629668 17.32970598 34.61434753 14.97227856 34.65428162 12.61470032 C34.67862849 11.15355765 34.69349538 9.69221962 34.69789124 8.23088074 C34.77539898 3.22460102 34.77539898 3.22460102 37 1 C39.5625 0.8125 39.5625 0.8125 42 1 C44.73420938 3.73420938 43.32238781 13.05643689 43.35009766 16.90698242 C43.36654206 18.57802367 43.39367715 20.24899801 43.43212891 21.91967773 C43.68979289 33.17735319 43.11635092 41.11939014 36.1875 50.4375 C29.12465111 55.48239206 21.44271959 56.05533995 13 55 C6.47882203 53.07858149 2.57107838 49.13144672 -0.77172852 43.33935547 C-3.16685038 36.82763278 -2.7279568 29.97881877 -2.5625 23.12011719 C-2.49947398 20.47794837 -2.48047429 17.83816299 -2.46875 15.1953125 C-2.45043396 13.51559566 -2.4296901 11.83590314 -2.40625 10.15625 C-2.39775024 9.3667395 -2.38925049 8.577229 -2.38049316 7.76379395 C-2.23462663 2.23462663 -2.23462663 2.23462663 0 0 Z " fill="#F7FCFC" transform="translate(158,52)"/>
<path d="M0 0 C2.6875 2 2.6875 2 4 4 C3.75 6.25 3.75 6.25 3 8 C0.875 8.75 0.875 8.75 -2 9 C-5.0625 7.125 -5.0625 7.125 -8 5 C-13.33458853 3.27634972 -18.89557699 3.29852566 -24.1875 5.0625 C-29.10113022 8.44744526 -33.58617116 13.06191888 -35 19 C-35.79594451 26.64106725 -34.18893456 31.92365953 -29.6875 38.25 C-25.48089414 42.5544339 -22.02898532 44.15725599 -16.0625 44.4375 C-10.9689253 44.29962881 -8.20519213 42.77542681 -4 40 C-1.5625 39.25 -1.5625 39.25 0 39 C3 42.75 3 42.75 3 45 C0.953125 46.47265625 0.953125 46.47265625 -1.75 48.0625 C-2.63171875 48.58972656 -3.5134375 49.11695313 -4.421875 49.66015625 C-10.96262544 53.05936443 -18.03731805 52.70191396 -25.0625 50.9375 C-32.24765738 48.52757144 -37.1211641 44.01636141 -41 37.5625 C-44.39842052 29.99118897 -44.39322264 20.91462482 -42.1484375 12.99609375 C-38.92209738 5.80815913 -33.4559262 0.29842528 -26.25 -2.9375 C-17.22646572 -5.76841272 -8.19402622 -4.50594285 0 0 Z " fill="#F5FBFC" transform="translate(80,186)"/>
<path d="M0 0 C3.56331377 -0.10807017 7.1233422 -0.18735316 10.6875 -0.25 C12.19860352 -0.30027344 12.19860352 -0.30027344 13.74023438 -0.3515625 C21.2503749 -0.45070627 21.2503749 -0.45070627 25.14453125 1.890625 C27.36253413 4.41214407 27.94055069 5.46495621 28.3125 8.8125 C27.92588938 12.7559283 26.72883513 14.19319816 24 17 C20.74610012 19.16926659 19.86604043 19.24080049 16.11328125 19.1953125 C15.17548828 19.18886719 14.23769531 19.18242188 13.27148438 19.17578125 C11.80678711 19.15064453 11.80678711 19.15064453 10.3125 19.125 C9.32443359 19.11597656 8.33636719 19.10695313 7.31835938 19.09765625 C4.87880294 19.07408566 2.43937099 19.03821469 0 19 C0 12.73 0 6.46 0 0 Z " fill="#18ABBA" transform="translate(221,60)"/>
<path d="M0 0 C4.29816086 3.05000498 7.47270301 7.12376235 8.7890625 12.26953125 C9.6142696 18.87118809 8.49246667 23.744583 4.7890625 29.26953125 C0.77979376 34.12285656 -2.57898891 35.91717803 -8.828125 36.5234375 C-14.83697011 36.77584156 -18.57715333 36.46200264 -23.2109375 32.26953125 C-27.95858576 27.42905188 -30.2558188 23.22453777 -30.6484375 16.45703125 C-30.53370566 10.95809797 -28.7217138 7.42475142 -25.2109375 3.26953125 C-17.86193036 -3.71202554 -8.86931873 -5.00003427 0 0 Z M-23.5859375 7.83203125 C-25.88675695 12.69914933 -25.99207552 16.97515131 -25.2109375 22.26953125 C-23.69751753 25.74962465 -23.69751753 25.74962465 -21.2109375 28.26953125 C-20.5303125 29.05328125 -19.8496875 29.83703125 -19.1484375 30.64453125 C-14.58052335 33.17146248 -10.29988217 33.237814 -5.2109375 32.26953125 C-1.43130461 30.2488039 0.93996229 27.59855766 3.2265625 24.01953125 C4.39537208 18.30535108 4.70877762 13.25611591 2.2265625 7.89453125 C-1.68061201 3.68680485 -5.4214993 1.10520648 -11.2734375 0.76953125 C-17.00303479 1.49709916 -19.72697265 3.66841129 -23.5859375 7.83203125 Z " fill="#EEF9FA" transform="translate(138.2109375,127.73046875)"/>
<path d="M0 0 C8.58 0 17.16 0 26 0 C26 1.32 26 2.64 26 4 C18.74 4 11.48 4 4 4 C4 8.29 4 12.58 4 17 C10.6 17 17.2 17 24 17 C24 18.32 24 19.64 24 21 C17.4 21 10.8 21 4 21 C4 26.28 4 31.56 4 37 C2.68 37 1.36 37 0 37 C0 24.79 0 12.58 0 0 Z " fill="#F4FBFB" transform="translate(156,126)"/>
<path d="M0 0 C3.96 0 7.92 0 12 0 C11.278125 0.53625 10.55625 1.0725 9.8125 1.625 C6.74593392 4.21454469 4.51135446 6.87777554 2 10 C1.34 10.66 0.68 11.32 0 12 C0 8.04 0 4.08 0 0 Z " fill="#47704C" transform="translate(0,0)"/>
<path d="M0 0 C3.96 0 7.92 0 12 0 C12 3.96 12 7.92 12 12 C11.01 10.68 10.02 9.36 9 8 C6.11882944 4.9710771 3.36179194 2.52134396 0 0 Z " fill="#47704C" transform="translate(277,0)"/>
<path d="M0 0 C3.82352941 4.58823529 3.82352941 4.58823529 4.9375 7.1875 C6.43535465 9.74266381 8.25102766 10.13190347 11 11 C11 11.33 11 11.66 11 12 C7.37 12 3.74 12 0 12 C0 8.04 0 4.08 0 0 Z " fill="#47704C" transform="translate(0,277)"/>
<path d="M0 0 C0.33 0 0.66 0 1 0 C1 3.63 1 7.26 1 11 C-2.63 11 -6.26 11 -10 11 C-9.278125 10.484375 -8.55625 9.96875 -7.8125 9.4375 C-4.51023043 6.57553304 -2.48158025 3.5845048 0 0 Z " fill="#47704C" transform="translate(288,278)"/>
<path d="M0 0 C0.556875 0.226875 1.11375 0.45375 1.6875 0.6875 C0.388125 1.2134375 0.388125 1.2134375 -0.9375 1.75 C-6.04916174 4.68447248 -9.07814677 8.83597016 -12.3125 13.6875 C-11.85822404 8.80403339 -10.73907167 6.20925421 -7.3125 2.6875 C-3.15982824 -0.42700382 -3.15982824 -0.42700382 0 0 Z " fill="#0DA5B4" transform="translate(112.3125,60.3125)"/>
</svg>
