<?xml version="1.0" encoding="UTF-8"?>
<svg version="1.1" xmlns="http://www.w3.org/2000/svg" width="200" height="200">
<path d="M0 0 C66 0 132 0 200 0 C200 66 200 132 200 200 C134 200 68 200 0 200 C0 134 0 68 0 0 Z " fill="#FEFBF2" transform="translate(0,0)"/>
<path d="M0 0 C0.66 0 1.32 0 2 0 C2 0.66 2 1.32 2 2 C2.58555664 2.11947998 3.17111328 2.23895996 3.77441406 2.36206055 C6.0785135 3.02250502 7.62046019 3.88671098 9.609375 5.20703125 C10.28226562 5.62791016 10.95515625 6.04878906 11.6484375 6.48242188 C13.04730663 7.36776563 14.43307586 8.27416059 15.8046875 9.20117188 C19.76635331 11.66395469 19.76635331 11.66395469 24.26367188 11.47412109 C26.40876287 10.46998506 28.18956275 9.52865603 30 8 C30.33 7.01 30.66 6.02 31 5 C32.65 5.66 34.3 6.32 36 7 C36.00410889 7.64026123 36.00821777 8.28052246 36.01245117 8.94018555 C36.04546038 11.85687905 36.11611026 14.77150384 36.1875 17.6875 C36.19330078 18.69490234 36.19910156 19.70230469 36.20507812 20.74023438 C36.24858398 22.20493164 36.24858398 22.20493164 36.29296875 23.69921875 C36.3086792 24.59471436 36.32438965 25.49020996 36.34057617 26.4128418 C37.25604354 30.00455143 39.33976219 31.46777182 42 34 C43.34265222 36.06573476 44.61084093 38.18121964 45.8125 40.33203125 C46.14870361 40.92747238 46.48490723 41.52291351 46.83129883 42.13639832 C47.89533736 44.02417424 48.94808777 45.9179451 50 47.8125 C51.05161152 49.69055047 52.1055731 51.56725068 53.16113281 53.44308472 C53.84027202 54.65163022 54.51674877 55.86167611 55.19042969 57.07327271 C57.01829171 60.34301673 58.95764696 63.47726474 61.0625 66.57421875 C63.20925668 70.36999619 63.08028877 71.02407872 62 75 C62.60585937 75.21164795 63.21171875 75.4232959 63.8359375 75.64135742 C70.67511196 78.23827088 77.34607948 81.18034454 82 87 C83.71379843 91.96091824 83.9896374 96.5887792 84 101.8125 C84.02320313 103.08826904 84.04640625 104.36403809 84.0703125 105.6784668 C83.78300985 111.14475888 83.42495215 114.6418095 79.36328125 118.51318359 C76.22483171 120.48822571 73.57865894 122.01546682 70 123 C67.23828125 122.21801758 67.23828125 122.21801758 65 121 C64.34 120.67 63.68 120.34 63 120 C63.37125 121.5159375 63.37125 121.5159375 63.75 123.0625 C63.77734375 124.96875 63.77734375 124.96875 63 127 C59.34994132 130.06170806 55.50072601 132.42446354 51 134 C48.23046875 133.24609375 48.23046875 133.24609375 46 132 C45.34 131.67 44.68 131.34 44 131 C44.2475 132.010625 44.495 133.02125 44.75 134.0625 C44.7890625 135.9765625 44.7890625 135.9765625 44 138 C40.19512802 140.95934488 34.98196766 145 30 145 C28.35 142.03 26.7 139.06 25 136 C25.05542969 136.85722656 25.11085938 137.71445313 25.16796875 138.59765625 C25.21927917 147.70012441 25.21927917 147.70012441 21.6953125 151.45703125 C14.63289733 156.15573836 14.63289733 156.15573836 10.12280273 155.72558594 C6.97241421 154.99359042 4.83786721 154.02534269 2.078125 152.3671875 C0.68315796 151.54009277 0.68315796 151.54009277 -0.73999023 150.69628906 C-1.73329346 150.09526367 -2.72659668 149.49423828 -3.75 148.875 C-5.90185315 147.59552871 -8.05421498 146.31691261 -10.20703125 145.0390625 C-11.32158691 144.37422852 -12.43614258 143.70939453 -13.58447266 143.02441406 C-19.17143954 139.71296807 -24.80523084 136.48358708 -30.4375 133.25 C-33.43393455 131.52846991 -36.42607447 129.80770284 -39.38818359 128.02763367 C-41.95525285 126.52805901 -44.55495617 125.29326413 -47.28070068 124.10874939 C-58.52465109 118.90991336 -58.52465109 118.90991336 -60.98527718 114.05668259 C-62.54051774 108.50753625 -62.2575395 102.82118819 -62.08203125 97.11328125 C-62.08078304 95.28345754 -62.085333 93.45362161 -62.09538269 91.62382507 C-62.09787328 87.80272592 -62.04194226 83.98845221 -61.94165039 80.16870117 C-61.81648383 75.28343074 -61.82071212 70.40869282 -61.86638355 65.52236652 C-61.89037012 61.74926956 -61.85478725 57.97857437 -61.8004818 54.20586205 C-61.77998232 52.40592669 -61.77572918 50.60572707 -61.78837013 48.80571938 C-61.80362206 43.29677421 -61.65175751 38.2828339 -60 33 C-56.25276792 29.28271449 -51.48032795 26 -46 26 C-44.7109375 27.64453125 -44.7109375 27.64453125 -43.375 29.8125 C-42.92898437 30.52019531 -42.48296875 31.22789063 -42.0234375 31.95703125 C-41 34 -41 34 -41 37 C-40.34 37 -39.68 37 -39 37 C-39 32.38 -39 27.76 -39 23 C-34.69792829 25.15103585 -34.1148313 25.95295075 -31.90625 29.98046875 C-31.35066406 30.98013672 -30.79507813 31.97980469 -30.22265625 33.00976562 C-29.65417969 34.05841797 -29.08570312 35.10707031 -28.5 36.1875 C-27.93152344 37.21681641 -27.36304688 38.24613281 -26.77734375 39.30664062 C-25.67567276 41.30166198 -24.57785788 43.29881881 -23.484375 45.29833984 C-21.69485117 48.55539094 -19.85745858 51.78131564 -18 55 C-17.882708 51.81281557 -17.81239234 48.62619432 -17.75 45.4375 C-17.71648437 44.54224609 -17.68296875 43.64699219 -17.6484375 42.72460938 C-17.55671349 36.46444579 -18.64227342 33.24149051 -22 28 C-22 26.68 -22 25.36 -22 24 C-21.34 24 -20.68 24 -20 24 C-20 20.04 -20 16.08 -20 12 C-15.55153841 12.54005052 -12.35875636 13.6314791 -8.47265625 15.84375 C-7.43979492 16.42705078 -6.40693359 17.01035156 -5.34277344 17.61132812 C-4.2602832 18.23458984 -3.17779297 18.85785156 -2.0625 19.5 C-0.95036133 20.12841797 0.16177734 20.75683594 1.30761719 21.40429688 C6.19691858 24.18072667 11.0501567 26.9915802 15.80078125 30 C16.48213135 30.42861328 17.16348145 30.85722656 17.86547852 31.29882812 C19.08671725 32.07723136 20.29775953 32.8719648 21.49584961 33.68554688 C23.2612259 34.87352561 23.2612259 34.87352561 26 36 C28.74737997 35.37660949 28.74737997 35.37660949 31 34 C32.32676508 33.64141484 33.65835921 33.2981424 35 33 C35 32.34 35 31.68 35 31 C34.30777344 30.74259033 33.61554688 30.48518066 32.90234375 30.2199707 C27.68518262 28.02699004 22.84482193 25.0875357 17.93457031 22.2878418 C16.01039351 21.19341161 14.07965549 20.11124134 12.1484375 19.02929688 C10.91103457 18.32626618 9.67404152 17.62251345 8.4375 16.91796875 C6.76494141 15.97087036 6.76494141 15.97087036 5.05859375 15.00463867 C1.93739989 12.95897115 -0.46440927 10.7259371 -3 8 C-2.34 7.67 -1.68 7.34 -1 7 C-1.020625 6.030625 -1.04125 5.06125 -1.0625 4.0625 C-1 1 -1 1 0 0 Z " fill="#2D2721" transform="translate(89,25)"/>
<path d="M0 0 C4.29328517 1.43109506 5.3903852 4.61639044 7.5 8.375 C7.92780762 9.12144775 8.35561523 9.86789551 8.79638672 10.63696289 C9.71606824 12.24167262 10.63245143 13.8482762 11.54589844 15.45654297 C13.04465604 18.07811059 14.56932243 20.68303123 16.1015625 23.28515625 C17.109424 25.00257541 18.11723765 26.72002266 19.125 28.4375 C19.61033203 29.25976074 20.09566406 30.08202148 20.59570312 30.92919922 C21.04107422 31.69377441 21.48644531 32.45834961 21.9453125 33.24609375 C22.34250488 33.92341553 22.73969727 34.6007373 23.14892578 35.29858398 C24 37 24 37 24 39 C25.32 39 26.64 39 28 39 C27.67 39.99 27.34 40.98 27 42 C26.91708047 43.9920303 26.89261823 45.98673713 26.90234375 47.98046875 C26.90717773 49.72553711 26.90717773 49.72553711 26.91210938 51.50585938 C26.92048828 52.72080078 26.92886719 53.93574219 26.9375 55.1875 C26.94201172 56.41404297 26.94652344 57.64058594 26.95117188 58.90429688 C26.96296924 61.93621865 26.98090486 64.9681154 27 68 C33.6 71.63 40.2 75.26 47 79 C47 76.03 47 73.06 47 70 C49 68 49 68 52 66 C52 65.34 52 64.68 52 64 C52.99 64 53.98 64 55 64 C57.12425199 67.62589811 59.24196194 71.25551275 61.35375977 74.88867188 C62.0726867 76.12343172 62.79337363 77.35716859 63.51586914 78.58984375 C64.5556219 80.36450778 65.58893548 82.14278586 66.62109375 83.921875 C67.55586548 85.52434082 67.55586548 85.52434082 68.50952148 87.15917969 C69.74861951 89.52087415 70.53621569 91.39841699 71 94 C71.66 94 72.32 94 73 94 C72.67 102.58 72.34 111.16 72 120 C73.65 119.67 75.3 119.34 77 119 C75.375 121.0625 75.375 121.0625 73 123 C68.73920755 122.67849985 65.71342891 121.55141255 62.078125 119.3671875 C61.14814697 118.81579102 60.21816895 118.26439453 59.26000977 117.69628906 C58.26670654 117.09526367 57.27340332 116.49423828 56.25 115.875 C54.09814685 114.59552871 51.94578502 113.31691261 49.79296875 112.0390625 C48.67841309 111.37422852 47.56385742 110.70939453 46.41552734 110.02441406 C40.82856046 106.71296807 35.19476916 103.48358708 29.5625 100.25 C26.56627077 98.52858787 23.57449039 96.80808995 20.61346436 95.02667236 C18.04186963 93.52409432 15.4388335 92.29551525 12.70446777 91.11740112 C1.41761126 85.93389607 1.41761126 85.93389607 -0.94915962 81.03561401 C-2.38958072 75.3883628 -1.95286842 69.6343263 -1.66015625 63.8671875 C-1.6284012 62.02071256 -1.60422482 60.17409319 -1.58726501 58.3274231 C-1.52270134 53.49341118 -1.35611623 48.66824835 -1.16729736 43.83770752 C-0.99257744 38.89823173 -0.91558319 33.95730768 -0.83007812 29.015625 C-0.64838789 19.33988536 -0.35874939 9.6706814 0 0 Z " fill="#2C261F" transform="translate(29,58)"/>
<path d="M0 0 C0.66 0 1.32 0 2 0 C2 0.66 2 1.32 2 2 C2.58555664 2.11947998 3.17111328 2.23895996 3.77441406 2.36206055 C6.0785135 3.02250502 7.62046019 3.88671098 9.609375 5.20703125 C10.28226563 5.62791016 10.95515625 6.04878906 11.6484375 6.48242188 C13.04730663 7.36776563 14.43307586 8.27416059 15.8046875 9.20117188 C19.76635331 11.66395469 19.76635331 11.66395469 24.26367188 11.47412109 C26.40876287 10.46998506 28.18956275 9.52865603 30 8 C30.33 7.01 30.66 6.02 31 5 C33.475 5.99 33.475 5.99 36 7 C36.00410889 7.64026123 36.00821777 8.28052246 36.01245117 8.94018555 C36.04546038 11.85687905 36.11611026 14.77150384 36.1875 17.6875 C36.19330078 18.69490234 36.19910156 19.70230469 36.20507812 20.74023438 C36.23408203 21.71669922 36.26308594 22.69316406 36.29296875 23.69921875 C36.3086792 24.59471436 36.32438965 25.49020996 36.34057617 26.4128418 C37.25604354 30.00455143 39.33976219 31.46777182 42 34 C43.34265222 36.06573476 44.61084093 38.18121964 45.8125 40.33203125 C46.31680542 41.22519295 46.31680542 41.22519295 46.83129883 42.13639832 C47.89533736 44.02417424 48.94808777 45.9179451 50 47.8125 C51.05161152 49.69055047 52.1055731 51.56725068 53.16113281 53.44308472 C53.84027202 54.65163022 54.51674877 55.86167611 55.19042969 57.07327271 C57.01829171 60.34301673 58.95764696 63.47726474 61.0625 66.57421875 C63.20925668 70.36999619 63.08028877 71.02407872 62 75 C62.60585937 75.21164795 63.21171875 75.4232959 63.8359375 75.64135742 C70.64029879 78.22505192 77.46856985 81.11026803 82 87 C84.5729427 96.27453005 83.21080221 106.57064494 82 116 C81.34 115.67 80.68 115.34 80 115 C77.6429774 115.94280904 75.30965848 116.94647157 73 118 C71.515 118.495 71.515 118.495 70 119 C69.97107143 115.04168191 69.95322573 111.08339083 69.9375 107.125 C69.92912109 105.99707031 69.92074219 104.86914062 69.91210938 103.70703125 C69.90888672 102.63066406 69.90566406 101.55429688 69.90234375 100.4453125 C69.89710693 99.45031738 69.89187012 98.45532227 69.88647461 97.43017578 C70 95 70 95 71 93 C70.29190186 92.89945312 69.58380371 92.79890625 68.85424805 92.6953125 C65.5772959 91.89702666 63.22909255 90.59821659 60.33203125 88.875 C59.27435547 88.25109375 58.21667969 87.6271875 57.12695312 86.984375 C55.48629883 86.00210938 55.48629883 86.00210938 53.8125 85 C51.63168352 83.70804108 49.4507024 82.41636004 47.26953125 81.125 C45.82477417 80.26261719 45.82477417 80.26261719 44.35083008 79.3828125 C42.92558651 78.54445135 41.47896414 77.73948207 40 77 C40 76.34 40 75.68 40 75 C41.11375 75.4640625 41.11375 75.4640625 42.25 75.9375 C44.50692176 76.8094925 46.6450153 77.47667007 49 78 C48.40672333 73.57818664 46.74319402 70.43415975 44.5078125 66.59765625 C44.16120575 65.99747177 43.814599 65.39728729 43.45748901 64.77891541 C42.35324703 62.86953122 41.23957728 60.96586618 40.125 59.0625 C39.01942966 57.16168215 37.91588618 55.25971401 36.81393433 53.35679626 C35.81074538 51.62645694 34.80224717 49.89919895 33.79345703 48.17211914 C28.89749211 39.51253947 28.89749211 39.51253947 29.5625 36.1875 C31 34 31 34 33.125 33.1875 C33.74375 33.125625 34.3625 33.06375 35 33 C35 32.34 35 31.68 35 31 C34.30777344 30.74259033 33.61554688 30.48518066 32.90234375 30.2199707 C27.68518262 28.02699004 22.84482193 25.0875357 17.93457031 22.2878418 C16.01039351 21.19341161 14.07965549 20.11124134 12.1484375 19.02929688 C10.91103457 18.32626618 9.67404152 17.62251345 8.4375 16.91796875 C7.32246094 16.28656982 6.20742187 15.6551709 5.05859375 15.00463867 C1.93739989 12.95897115 -0.46440927 10.7259371 -3 8 C-2.34 7.67 -1.68 7.34 -1 7 C-1.020625 6.030625 -1.04125 5.06125 -1.0625 4.0625 C-1 1 -1 1 0 0 Z " fill="#3E3A32" transform="translate(89,25)"/>
<path d="M0 0 C4.44846159 0.54005052 7.64124364 1.6314791 11.52734375 3.84375 C13.07675659 4.71845947 13.07675659 4.71845947 14.6574707 5.61083984 C15.73988037 6.2342627 16.82229004 6.85768555 17.9375 7.5 C19.60462036 8.44480225 19.60462036 8.44480225 21.30541992 9.40869141 C28.14754786 13.30298971 34.95347209 17.26200734 41.58374023 21.50976562 C44.79850765 23.51724258 46.05265503 24 50 24 C50.10344727 24.87615967 50.20689453 25.75231934 50.31347656 26.6550293 C51.03669886 30.17880906 52.14283418 32.44696629 53.984375 35.51953125 C54.59023437 36.54240234 55.19609375 37.56527344 55.8203125 38.61914062 C56.45710938 39.67294922 57.09390625 40.72675781 57.75 41.8125 C59.5985353 44.91320703 61.44474336 48.01525216 63.28710938 51.11962891 C64.38234686 52.96136378 65.48694379 54.79758545 66.60351562 56.62646484 C67.06951172 57.41359863 67.53550781 58.20073242 68.015625 59.01171875 C68.63099121 60.03011841 68.63099121 60.03011841 69.25878906 61.0690918 C70.1699304 63.44268101 69.83979017 64.64392202 69 67 C65.9168649 65.80100302 62.93720508 64.52299523 60 63 C60 63.66 60 64.32 60 65 C59.01 65 58.02 65 57 65 C56.63237549 64.34515625 56.26475098 63.6903125 55.88598633 63.015625 C54.19679026 60.00930716 52.5046672 57.0046464 50.8125 54 C50.23435547 52.97003906 49.65621094 51.94007812 49.06054688 50.87890625 C45.83742436 45.1610505 42.53132004 39.53306643 39 34 C38.42475586 34.29720947 37.84951172 34.59441895 37.25683594 34.90063477 C33.84100983 36.66547826 30.75252082 38.11685178 27 39 C26.37351562 37.95199219 25.74703125 36.90398437 25.1015625 35.82421875 C24.27608079 34.44528908 23.4505578 33.06638412 22.625 31.6875 C22.2125 30.99720703 21.8 30.30691406 21.375 29.59570312 C20.97539063 28.92861328 20.57578125 28.26152344 20.1640625 27.57421875 C19.79748535 26.96151123 19.4309082 26.34880371 19.05322266 25.7175293 C18.0740333 24.12072885 17.03902076 22.55853114 16 21 C15.071875 21.309375 14.14375 21.61875 13.1875 21.9375 C11.125 22.625 9.0625 23.3125 7 24 C6.67 24.66 6.34 25.32 6 26 C5.67 25.67 5.34 25.34 5 25 C4.67 31.6 4.34 38.2 4 45 C3.34 44.67 2.68 44.34 2 44 C2.02094727 43.40050537 2.04189453 42.80101074 2.06347656 42.18334961 C2.14725274 39.43490758 2.19885144 36.68673508 2.25 33.9375 C2.28351563 32.99455078 2.31703125 32.05160156 2.3515625 31.08007812 C2.4407654 24.67976992 1.45896528 21.34505462 -2 16 C-2 14.68 -2 13.36 -2 12 C-1.34 12 -0.68 12 0 12 C0 8.04 0 4.08 0 0 Z " fill="#2F2922" transform="translate(69,37)"/>
<path d="M0 0 C2.68031884 1.45768056 5.28241821 3.01719734 7.875 4.625 C8.56335938 5.04523437 9.25171875 5.46546875 9.9609375 5.8984375 C11.64391658 6.92692472 13.32242532 7.962721 15 9 C15 11.25 15 11.25 14 14 C11.55649733 16.20454448 9.24077375 17.40194683 6 18 C2.63951736 17.06765053 0.03568328 15.28586618 -2.8125 13.3125 C-4.29715629 12.34868616 -5.78279352 11.38638123 -7.26953125 10.42578125 C-7.91510986 9.98661377 -8.56068848 9.54744629 -9.22583008 9.0949707 C-11.11885959 7.83307644 -11.11885959 7.83307644 -14 7 C-14 6.34 -14 5.68 -14 5 C-14.66 5.33 -15.32 5.66 -16 6 C-16.73075648 8.3140622 -17.40138258 10.64828869 -18 13 C-15.08163502 16.17249227 -12.19638891 18.21208486 -8.421875 20.27734375 C-7.34292969 20.87353516 -6.26398438 21.46972656 -5.15234375 22.08398438 C-4.02957031 22.69564453 -2.90679687 23.30730469 -1.75 23.9375 C13.93312471 32.54587404 13.93312471 32.54587404 19 36 C19 36.66 19 37.32 19 38 C14.01953125 41.3203125 14.01953125 41.3203125 12 42 C8.25525171 40.73664862 4.90197858 38.92183446 1.46484375 36.98828125 C0.40716797 36.39466797 -0.65050781 35.80105469 -1.74023438 35.18945312 C-3.38475586 34.26036133 -3.38475586 34.26036133 -5.0625 33.3125 C-6.13177734 32.71244141 -7.20105469 32.11238281 -8.30273438 31.49414062 C-14.71359668 27.88778848 -21.05970151 24.19914711 -27.34155273 20.37182617 C-30.26630825 18.7080715 -30.26630825 18.7080715 -35 18 C-35.33 21.63 -35.66 25.26 -36 29 C-36.66 29 -37.32 29 -38 29 C-37.54658132 30.27259511 -37.08704773 31.54301243 -36.625 32.8125 C-36.36976562 33.52019531 -36.11453125 34.22789063 -35.8515625 34.95703125 C-34.9734231 37.24773359 -34.9734231 37.24773359 -33 40 C-32.77294922 42.26831055 -32.77294922 42.26831055 -32.8046875 44.88671875 C-32.81113281 45.82451172 -32.81757812 46.76230469 -32.82421875 47.72851562 C-32.84097656 48.70498047 -32.85773438 49.68144531 -32.875 50.6875 C-32.88402344 51.67556641 -32.89304687 52.66363281 -32.90234375 53.68164062 C-32.9259157 56.12133765 -32.95881978 58.56054697 -33 61 C-35.91589921 58.41756947 -37.63489515 55.4475129 -39.57421875 52.08984375 C-39.90291458 51.52173477 -40.23161041 50.95362579 -40.57026672 50.36830139 C-41.26084167 49.17192342 -41.94904549 47.97417401 -42.63500977 46.77514648 C-43.68802587 44.93658182 -44.75067253 43.10383725 -45.81445312 41.27148438 C-46.48495718 40.10710588 -47.15489884 38.94240332 -47.82421875 37.77734375 C-48.43354248 36.71765381 -49.04286621 35.65796387 -49.6706543 34.56616211 C-51 32 -51 32 -51 30 C-51.99 29.67 -52.98 29.34 -54 29 C-54.33 33.29 -54.66 37.58 -55 42 C-55.66 41.67 -56.32 41.34 -57 41 C-57.22485988 36.17212601 -57.16749337 31.70662124 -56 27 C-52.14269682 23.00268581 -47.36070185 21.16211019 -42 20 C-40.02 22.97 -40.02 22.97 -38 26 C-38.05542969 25.35933594 -38.11085938 24.71867187 -38.16796875 24.05859375 C-38.1903057 21.06097507 -37.9814855 18.84548316 -37 16 C-33.74443762 12.81065245 -30.28098532 10.56649001 -26 9 C-22.95166768 9.24636703 -20.72853814 9.63573093 -18 11 C-18.11601563 10.0925 -18.23203125 9.185 -18.3515625 8.25 C-18 5 -18 5 -15.5859375 2.8125 C-13.99652344 1.9153125 -13.99652344 1.9153125 -12.375 1 C-11.33085938 0.38125 -10.28671875 -0.2375 -9.2109375 -0.875 C-5.13967567 -2.3014275 -3.85846862 -1.84154184 0 0 Z " fill="#3A362E" transform="translate(105,20)"/>
<path d="M0 0 C0.33 0 0.66 0 1 0 C2.72711108 22.5152481 2.72711108 22.5152481 0.03320312 27.95068359 C-2.71038263 31.06809916 -6.00107065 32.30126234 -10 33 C-12.872326 32.84829264 -14.33470986 32.24758262 -17 31 C-17.66 31.33 -18.32 31.66 -19 32 C-19 25.07 -19 18.14 -19 11 C-21.64 12.65 -24.28 14.3 -27 16 C-27.66 16 -28.32 16 -29 16 C-29 23.59 -29 31.18 -29 39 C-30.65 39 -32.3 39 -34 39 C-35.32 39.66 -36.64 40.32 -38 41 C-38 29.12 -38 17.24 -38 5 C-36 8 -36 8 -36 11 C-32.75815858 12.29614601 -32.75815858 12.29614601 -29 13 C-26.25167846 11.71815438 -26.25167846 11.71815438 -24 10 C-23.01 10 -22.02 10 -21 10 C-21 8.35 -21 6.7 -21 5 C-20.34 5 -19.68 5 -19 5 C-18.67 3.68 -18.34 2.36 -18 1 C-14.87709365 1.48578543 -12.00419641 1.9986012 -9 3 C-9.33 11.58 -9.66 20.16 -10 29 C-8.02 27.68 -6.04 26.36 -4 25 C-2.68 25 -1.36 25 0 25 C0 16.75 0 8.5 0 0 Z " fill="#2B241E" transform="translate(169,115)"/>
<path d="M0 0 C2.5546875 1.19140625 2.5546875 1.19140625 4.875 2.5625 C5.65617187 3.01753906 6.43734375 3.47257812 7.2421875 3.94140625 C8.11230469 4.46541016 8.11230469 4.46541016 9 5 C10.42371704 15.98107678 10.42371704 15.98107678 9 21 C5.5756056 24.74509165 1.92988297 26.81250994 -3 28 C-6.125 27.25 -6.125 27.25 -9 26 C-9.77085937 25.76023437 -10.54171875 25.52046875 -11.3359375 25.2734375 C-13.95304629 24.12030527 -15.27093237 23.318327 -17 21 C-17.70720382 15.58717073 -17.45908566 10.4261375 -17 5 C-15.30397484 3.95884577 -13.59251063 2.94281622 -11.875 1.9375 C-10.92367187 1.36902344 -9.97234375 0.80054688 -8.9921875 0.21484375 C-5.39152501 -1.24704402 -3.70228308 -1.06342174 0 0 Z " fill="#413D34" transform="translate(162,53)"/>
<path d="M0 0 C3.3973955 3.09401462 5.52730192 6.3142626 7.78515625 10.3046875 C8.29869911 11.20708664 8.29869911 11.20708664 8.82261658 12.12771606 C9.90868987 14.04008853 10.98550643 15.9575026 12.0625 17.875 C12.78915128 19.15526721 13.51635979 20.43521831 14.24414062 21.71484375 C17.28824274 27.08572533 20.27746116 32.45666213 23 38 C16.64000043 42.03615357 16.64000043 42.03615357 14.09838867 41.89257812 C10.94825258 40.55262495 10.15197473 38.45385192 8.50390625 35.49609375 C7.54194336 33.79549805 7.54194336 33.79549805 6.56054688 32.06054688 C5.89404415 30.85313334 5.22803174 29.64544902 4.5625 28.4375 C3.90162265 27.2564712 3.23952509 26.07612433 2.57617188 24.89648438 C1.29800035 22.62346721 0.02644889 20.34671213 -1.23779297 18.06591797 C-2.75778725 15.4214059 -4.37685871 12.92516804 -6.09765625 10.41015625 C-6.72542969 9.28480469 -7.35320312 8.15945312 -8 7 C-6.89594119 3.61314532 -6.09140517 3.0511869 -2.875 1.25 C-1.92625 0.8375 -0.9775 0.425 0 0 Z " fill="#F6F4EC" transform="translate(107,70)"/>
<path d="M0 0 C0.38744385 0.69448242 0.7748877 1.38896484 1.17407227 2.10449219 C2.96903459 5.32032183 4.76575956 8.53516351 6.5625 11.75 C7.17158203 12.84183594 7.78066406 13.93367188 8.40820312 15.05859375 C12.5252274 22.42131441 16.72384481 29.72864516 21 37 C17.71195019 39.91227269 15.40114397 41.49701212 11 42 C4 30 -3 18 -10 6 C-4.17073171 0 -4.17073171 0 0 0 Z " fill="#F7F4EC" transform="translate(128,59)"/>
<path d="M0 0 C1.42285156 2.03442383 1.42285156 2.03442383 2.890625 4.70703125 C3.43243408 5.6813208 3.97424316 6.65561035 4.5324707 7.65942383 C5.09925537 8.69993896 5.66604004 9.7404541 6.25 10.8125 C7.41466058 12.91705642 8.58001911 15.02122675 9.74609375 17.125 C10.30538574 18.13949219 10.86467773 19.15398437 11.44091797 20.19921875 C13.84485934 24.51773041 16.37385624 28.75566955 18.92578125 32.98828125 C20 35 20 35 20 37 C13.375 41 13.375 41 10 41 C9.39414062 39.89785156 8.78828125 38.79570313 8.1640625 37.66015625 C7.31824687 36.12730688 6.47184759 34.59477948 5.625 33.0625 C5.1810791 32.25868896 4.7371582 31.45487793 4.27978516 30.62670898 C0.67393246 24.13300554 -3.07289071 17.73188517 -6.95068359 11.39672852 C-10 6.32578282 -10 6.32578282 -10 3 C-3.375 -1.125 -3.375 -1.125 0 0 Z " fill="#F7F4ED" transform="translate(43,56)"/>
<path d="M0 0 C2.75944355 1.947274 3.89888511 4.12435327 5.55273438 7.06323242 C6.19855469 8.19825195 6.844375 9.33327148 7.50976562 10.50268555 C8.18060719 11.7063119 8.85117811 12.91008913 9.52148438 14.11401367 C10.19106565 15.29881943 10.86162931 16.48307057 11.53320312 17.66674805 C12.81095967 19.9251381 14.08280212 22.18688738 15.34790039 24.45239258 C16.70472208 26.86359635 18.09910605 29.24299063 19.51757812 31.61791992 C21.02148438 34.42651367 21.02148438 34.42651367 20.58398438 36.67651367 C18.59432135 38.90493626 16.73119799 40.17079273 14.02148438 41.42651367 C10.62293426 40.29366363 10.47731074 39.97876308 8.89257812 36.98901367 C8.50175049 36.26657471 8.11092285 35.54413574 7.70825195 34.79980469 C7.29599365 34.01661865 6.88373535 33.23343262 6.45898438 32.42651367 C5.57849835 30.7885422 4.69561908 29.15185532 3.81054688 27.51635742 C3.35583008 26.67572754 2.90111328 25.83509766 2.43261719 24.96899414 C1.04196066 22.46340641 -0.4075385 20.00608391 -1.89257812 17.55541992 C-2.35720459 16.7877832 -2.82183105 16.02014648 -3.30053711 15.22924805 C-4.19863915 13.75580189 -5.10421541 12.28688102 -6.01782227 10.82299805 C-7.08102627 9.06819119 -8.03990555 7.25100291 -8.97851562 5.42651367 C-7.97851562 2.42651367 -7.97851562 2.42651367 -5.16601562 0.61401367 C-1.97851562 -0.57348633 -1.97851562 -0.57348633 0 0 Z " fill="#F7F5EC" transform="translate(87.978515625,109.573486328125)"/>
<path d="M0 0 C0.17756865 7.02883106 0.30010649 14.05708363 0.38452148 21.08764648 C0.41971199 23.47881687 0.46747246 25.86983677 0.52807617 28.26049805 C0.61305142 31.69878236 0.65270357 35.13507564 0.68359375 38.57421875 C0.71972275 39.64210129 0.75585175 40.70998383 0.79307556 41.81022644 C0.79690403 49.0560664 0.79690403 49.0560664 -1.53463745 51.81777954 C-3.99763697 53.64412332 -5.88423694 55 -9 55 C-9 38.17 -9 21.34 -9 4 C-2 0 -2 0 0 0 Z " fill="#F3F0E7" transform="translate(130,111)"/>
<path d="M0 0 C1.80156008 0.90104278 3.57667668 1.85570793 5.33203125 2.84375 C6.37174072 3.42672852 7.4114502 4.00970703 8.48266602 4.61035156 C9.58151123 5.23393555 10.68035645 5.85751953 11.8125 6.5 C13.48880493 7.44697754 13.48880493 7.44697754 15.19897461 8.41308594 C18.47070824 10.26724955 21.73678128 12.13089741 25 14 C25.87076172 14.49822266 26.74152344 14.99644531 27.63867188 15.50976562 C29.7865975 16.74558295 31.92673112 17.99331905 34.0625 19.25 C34.68036377 19.60771484 35.29822754 19.96542969 35.93481445 20.33398438 C37.32567155 21.16551721 38.66992225 22.07435239 40 23 C40 23.66 40 24.32 40 25 C35.01953125 28.3203125 35.01953125 28.3203125 33 29 C29.27300775 27.74026147 25.9260749 25.94060407 22.5 24.0234375 C21.45328125 23.43852539 20.4065625 22.85361328 19.328125 22.25097656 C17.68070313 21.32236816 17.68070313 21.32236816 16 20.375 C14.88109375 19.74561523 13.7621875 19.11623047 12.609375 18.46777344 C-9.51405206 5.97189589 -9.51405206 5.97189589 -11 3 C-4.13457238 -1.35690599 -4.13457238 -1.35690599 0 0 Z " fill="#F6F3EB" transform="translate(84,33)"/>
<path d="M0 0 C0.33 0 0.66 0 1 0 C1.33 14.52 1.66 29.04 2 44 C2.66 44 3.32 44 4 44 C4.33 43.34 4.66 42.68 5 42 C6.65 42.33 8.3 42.66 10 43 C9.95810547 42.3294458 9.91621094 41.6588916 9.87304688 40.96801758 C9.70630468 37.91679373 9.60259475 34.86652575 9.5 31.8125 C9.43296875 30.75740234 9.3659375 29.70230469 9.296875 28.61523438 C9.10347922 20.95192657 9.10347922 20.95192657 11.74609375 18.14599609 C14.45826939 16.40797215 16.73124834 15 20 15 C20.33 21.6 20.66 28.2 21 35 C21.33 35 21.66 35 22 35 C22.35546875 37.75 22.35546875 37.75 22 41 C19.55078125 43.1875 19.55078125 43.1875 16.3125 45 C15.25675781 45.61875 14.20101562 46.2375 13.11328125 46.875 C10 48 10 48 7.23046875 47.25 C6.49441406 46.8375 5.75835937 46.425 5 46 C4.34 45.67 3.68 45.34 3 45 C3 47.31 3 49.62 3 52 C-0.63 53.98 -4.26 55.96 -8 58 C-7.67 56.68 -7.34 55.36 -7 54 C-5.50895752 53.23671387 -5.50895752 53.23671387 -3.98779297 52.45800781 C-0.85364714 50.37636349 -0.85364714 50.37636349 -0.42877197 47.71716309 C-0.2075595 44.689263 -0.16958295 41.70784756 -0.1953125 38.671875 C-0.18160614 37.56773254 -0.16789978 36.46359009 -0.15377808 35.32598877 C-0.11639491 31.80024784 -0.12019892 28.27591143 -0.125 24.75 C-0.10687923 22.3593529 -0.08607852 19.9687245 -0.0625 17.578125 C-0.01057107 11.71861202 0.00754946 5.85972188 0 0 Z " fill="#4F4A43" transform="translate(130,111)"/>
<path d="M0 0 C4.32614203 0.53317076 7.42613259 1.52149751 11.1796875 3.72265625 C12.1078125 4.26083984 13.0359375 4.79902344 13.9921875 5.35351562 C14.94351563 5.91748047 15.89484375 6.48144531 16.875 7.0625 C17.84953125 7.63033203 18.8240625 8.19816406 19.828125 8.78320312 C22.2237038 10.18062409 24.61396262 11.58636981 27 13 C26.01 13.33 25.02 13.66 24 14 C24 15.65 24 17.3 24 19 C23.01 18.67 22.02 18.34 21 18 C21.33 18.99 21.66 19.98 22 21 C20.26449072 24.47101857 16.57572307 25.80584343 13 27 C10.125 26.3125 10.125 26.3125 8 25 C7.34 24.67 6.68 24.34 6 24 C3.711598 18.91466222 3.83437408 14.46565539 4 9 C1.03 10.32 -1.94 11.64 -5 13 C-5 12.34 -5 11.68 -5 11 C-5.66 10.67 -6.32 10.34 -7 10 C-4.36 8.68 -1.72 7.36 1 6 C1.15811388 2.94729537 1.15811388 2.94729537 0 0 Z " fill="#2E2822" transform="translate(127,102)"/>
<path d="M0 0 C0.66 0 1.32 0 2 0 C2 0.66 2 1.32 2 2 C2.58555664 2.11947998 3.17111328 2.23895996 3.77441406 2.36206055 C6.0785135 3.02250502 7.62046019 3.88671098 9.609375 5.20703125 C10.28226563 5.62791016 10.95515625 6.04878906 11.6484375 6.48242188 C13.04730663 7.36776563 14.43307586 8.27416059 15.8046875 9.20117188 C19.76635331 11.66395469 19.76635331 11.66395469 24.26367188 11.47412109 C26.40876287 10.46998506 28.18956275 9.52865603 30 8 C30.33 7.01 30.66 6.02 31 5 C32.32 5.33 33.64 5.66 35 6 C35 12.27 35 18.54 35 25 C34.34 25 33.68 25 33 25 C32.67 20.38 32.34 15.76 32 11 C28.535 12.98 28.535 12.98 25 15 C25 17.31 25 19.62 25 22 C27.97 23.65 30.94 25.3 34 27 C32.02 27.99 32.02 27.99 30 29 C27.05493164 27.83764648 27.05493164 27.83764648 23.66015625 25.87109375 C23.05618515 25.5249855 22.45221405 25.17887726 21.8299408 24.82228088 C20.55220784 24.08567265 19.27897292 23.34121501 18.01000977 22.58959961 C16.08256862 21.44937211 14.14185876 20.33527645 12.19726562 19.22460938 C6.50843165 15.92556203 1.49789307 12.82175395 -3 8 C-2.34 7.67 -1.68 7.34 -1 7 C-1.020625 6.030625 -1.04125 5.06125 -1.0625 4.0625 C-1 1 -1 1 0 0 Z " fill="#2F2923" transform="translate(89,25)"/>
<path d="M0 0 C5.9498148 4.45109251 10.4118793 13.06946561 11.47119141 20.35302734 C11.83197648 26.43149363 11.5798284 32.48005679 11.0625 38.54296875 C8.3870177 36.13717427 6.80344713 33.56825825 5.06640625 30.4296875 C4.22819336 28.92825195 4.22819336 28.92825195 3.37304688 27.39648438 C2.79619141 26.35169922 2.21933594 25.30691406 1.625 24.23046875 C-2.59592329 16.45311027 -2.59592329 16.45311027 -7.34765625 9 C-8.9375 6.54296875 -8.9375 6.54296875 -8.9375 3.54296875 C-2.58592252 -0.60998576 -2.58592252 -0.60998576 0 0 Z " fill="#F0EEE6" transform="translate(84.9375,57.45703125)"/>
<path d="M0 0 C1.3405545 1.66086399 2.67233556 3.32881399 4 5 C4.63421875 5.78375 5.2684375 6.5675 5.921875 7.375 C12.62898933 17.00572827 11.72369083 26.6817936 11 38 C8.10624854 35.43164366 6.39016754 32.49490958 4.4609375 29.16015625 C3.97145126 28.3151078 3.97145126 28.3151078 3.47207642 27.45298767 C2.78567822 26.26501451 2.10167216 25.07565635 1.41992188 23.88500977 C0.37826042 22.06818669 -0.67357769 20.25754413 -1.7265625 18.44726562 C-2.39384987 17.28942 -3.06053692 16.13122815 -3.7265625 14.97265625 C-4.33064941 13.92343994 -4.93473633 12.87422363 -5.55712891 11.79321289 C-7 9 -7 9 -8 5 C-4.04 2.525 -4.04 2.525 0 0 Z " fill="#F8F5ED" transform="translate(61,43)"/>
<path d="M0 0 C0 0.99 0 1.98 0 3 C3.16216412 5.37162309 6.41213553 7.34406255 10 9 C9.67 9.33 9.34 9.66 9 10 C8.76712992 11.68183948 8.58735834 13.3712416 8.4375 15.0625 C8.35371094 15.98160156 8.26992187 16.90070313 8.18359375 17.84765625 C8.12300781 18.55792969 8.06242188 19.26820312 8 20 C8.7425 19.525625 9.485 19.05125 10.25 18.5625 C13 17 13 17 17 16 C17.33 11.71 17.66 7.42 18 3 C18.33 3 18.66 3 19 3 C19.52969085 7.77375704 19.78779545 12.2467912 19 17 C16.45804425 20.04288623 13.66709908 21.57323132 10 23 C9.05640625 23.39058594 9.05640625 23.39058594 8.09375 23.7890625 C3.68650329 24.23307616 0.20543571 21.83222406 -3.46875 19.65625 C-6.46525684 16.51176751 -6.73176807 14.98243961 -6.83496094 10.78295898 C-6.70891139 7.48864689 -6.42402487 4.27048814 -6 1 C-4 0 -4 0 0 0 Z " fill="#2D2720" transform="translate(151,57)"/>
<path d="M0 0 C0.33 0 0.66 0 1 0 C1.00410889 0.64026123 1.00821777 1.28052246 1.01245117 1.94018555 C1.04546038 4.85687905 1.11611026 7.77150384 1.1875 10.6875 C1.19330078 11.69490234 1.19910156 12.70230469 1.20507812 13.74023438 C1.23408203 14.71669922 1.26308594 15.69316406 1.29296875 16.69921875 C1.31653442 18.04246216 1.31653442 18.04246216 1.34057617 19.4128418 C2.2571246 23.00879281 4.3277648 24.47635676 7 27 C9.4902997 30.64269781 11.69178418 34.44548363 13.89575195 38.26586914 C14.94266009 40.07139924 16.01446414 41.86053087 17.08789062 43.65039062 C18.07885742 45.35678711 18.07885742 45.35678711 19.08984375 47.09765625 C19.69691162 48.13414307 20.30397949 49.17062988 20.92944336 50.23852539 C22 53 22 53 21.18188477 55.36889648 C20.79186279 55.90716064 20.40184082 56.4454248 20 57 C19.62190186 56.3294458 19.24380371 55.6588916 18.85424805 54.96801758 C17.13269816 51.91578326 15.41010942 48.86413646 13.6875 45.8125 C13.09259766 44.75740234 12.49769531 43.70230469 11.88476562 42.61523438 C11.30791016 41.59365234 10.73105469 40.57207031 10.13671875 39.51953125 C9.60780029 38.58214111 9.07888184 37.64475098 8.53393555 36.67895508 C7.49188391 34.85905493 6.41357322 33.05953927 5.30395508 31.2800293 C4 29 4 29 4 27 C2.88625 27.66 1.7725 28.32 0.625 29 C-2.75 31 -2.75 31 -5 31 C-4.67 29.68 -4.34 28.36 -4 27 C-2.68 26.67 -1.36 26.34 0 26 C0 25.34 0 24.68 0 24 C-0.99 23.67 -1.98 23.34 -3 23 C-3 22.01 -3 21.02 -3 20 C-4.78801289 18.78503395 -4.78801289 18.78503395 -7 17.75 C-9.21875 16.47265625 -9.21875 16.47265625 -11 15 C-11.5 11.1875 -11.5 11.1875 -11 8 C-8.03 6.35 -5.06 4.7 -2 3 C-2 7.95 -2 12.9 -2 18 C-1.34 18 -0.68 18 0 18 C0 12.06 0 6.12 0 0 Z " fill="#3F3B33" transform="translate(124,32)"/>
<path d="M0 0 C2.44819677 0.95207652 4.78299682 1.87505878 7.0625 3.1875 C9.5446463 4.22840006 10.49580116 3.91061776 13 3 C13.77174561 2.61038086 14.54349121 2.22076172 15.33862305 1.81933594 C18 1 18 1 20.31176758 1.75097656 C21.08157959 2.20956055 21.8513916 2.66814453 22.64453125 3.140625 C23.90620117 3.88119141 23.90620117 3.88119141 25.19335938 4.63671875 C26.05767578 5.16910156 26.92199219 5.70148438 27.8125 6.25 C28.69615234 6.76691406 29.57980469 7.28382812 30.49023438 7.81640625 C35.21785934 10.6420292 35.21785934 10.6420292 37 12 C37 12.66 37 13.32 37 14 C32.01953125 17.3203125 32.01953125 17.3203125 30 18 C26.09783327 16.69476919 22.61836197 14.75907598 19.04296875 12.7421875 C17.93115234 12.11699219 16.81933594 11.49179688 15.67382812 10.84765625 C14.51168099 10.1901709 13.34957209 9.53261797 12.1875 8.875 C11.00601811 8.20935359 9.824379 7.54398616 8.64257812 6.87890625 C5.76016095 5.25534066 2.87937669 3.62894985 0 2 C0 1.34 0 0.68 0 0 Z " fill="#F4F1E9" transform="translate(129,100)"/>
<path d="M0 0 C0.20382103 3.72835701 0.32779471 7.45528129 0.4375 11.1875 C0.49615234 12.24259766 0.55480469 13.29769531 0.61523438 14.38476562 C0.78433725 22.04271021 0.78433725 22.04271021 -1.51904297 24.85400391 C-3.99017803 26.67035545 -5.88528323 28 -9 28 C-9 20.08 -9 12.16 -9 4 C-2 0 -2 0 0 0 Z " fill="#F4F0E8" transform="translate(168,116)"/>
<path d="M0 0 C0 7.92 0 15.84 0 24 C-7 28 -7 28 -9 28 C-9.23292281 24.27189132 -9.37459124 20.54565008 -9.5 16.8125 C-9.56703125 15.75740234 -9.6340625 14.70230469 -9.703125 13.61523438 C-9.78050901 10.54889279 -9.76000058 7.97497249 -9 5 C-6.74460701 2.65248706 -3.44908616 0 0 0 Z " fill="#F3F0E8" transform="translate(110,149)"/>
<path d="M0 0 C0 7.59 0 15.18 0 23 C-4.455 25.475 -4.455 25.475 -9 28 C-9 20.08 -9 12.16 -9 4 C-2 0 -2 0 0 0 Z " fill="#F7F4EB" transform="translate(64,96)"/>
<path d="M0 0 C3.76253941 1.90240757 7.43432901 3.93828357 11.09375 6.03125 C11.83431641 6.45148437 12.57488281 6.87171875 13.33789062 7.3046875 C15.15394011 8.33573495 16.96781533 9.37061046 18.78125 10.40625 C16.0079782 13.48766311 13.80186215 15.2917424 9.78125 16.40625 C7.46948242 15.65527344 7.46948242 15.65527344 5.13671875 14.265625 C4.29560547 13.77191406 3.45449219 13.27820312 2.58789062 12.76953125 C1.29141602 11.97095703 1.29141602 11.97095703 -0.03125 11.15625 C-0.91490234 10.63933594 -1.79855469 10.12242188 -2.70898438 9.58984375 C-7.43660934 6.7642208 -7.43660934 6.7642208 -9.21875 5.40625 C-9.21875 4.74625 -9.21875 4.08625 -9.21875 3.40625 C-2.93231784 -0.78470477 -2.93231784 -0.78470477 0 0 Z " fill="#F4F2E9" transform="translate(101.21875,21.59375)"/>
<path d="M0 0 C0.17432891 3.74941253 0.28085841 7.49778509 0.375 11.25 C0.45041016 12.84521484 0.45041016 12.84521484 0.52734375 14.47265625 C0.58312474 17.42904868 0.56896157 20.09704175 0 23 C-2.68651775 25.5344507 -4.24282042 27 -8 27 C-8.17432891 23.25058747 -8.28085841 19.50221491 -8.375 15.75 C-8.42527344 14.68652344 -8.47554687 13.62304688 -8.52734375 12.52734375 C-8.58312474 9.57095132 -8.56896157 6.90295825 -8 4 C-5.31348225 1.4655493 -3.75717958 0 0 0 Z " fill="#FCF9F0" transform="translate(149,127)"/>
<path d="M0 0 C3.375 1.4375 3.375 1.4375 6 4 C6.51067693 7.3885542 6.35036083 10.60020229 6 14 C-6.66970387 7.84965831 -6.66970387 7.84965831 -12 4 C-7.71616991 -0.42662442 -6.15762961 -1.5394074 0 0 Z " fill="#F5F2EB" transform="translate(69,123)"/>
<path d="M0 0 C6.93 3.96 6.93 3.96 14 8 C14 8.66 14 9.32 14 10 C9.54353562 12.97097625 9.54353562 12.97097625 7 14 C4.1875 13.3125 4.1875 13.3125 2 12 C1.34 11.67 0.68 11.34 0 11 C0 7.37 0 3.74 0 0 Z " fill="#F6F3ED" transform="translate(133,115)"/>
<path d="M0 0 C0 5.61 0 11.22 0 17 C-2.97 15.35 -5.94 13.7 -9 12 C-9.5 8.8125 -9.5 8.8125 -9 5 C-6.74584656 2.96268906 -3.19407027 0 0 0 Z " fill="#F2EFE6" transform="translate(122,35)"/>
<path d="M0 0 C3.81924617 1.7630926 7.42582477 3.73197484 11.03125 5.89453125 C11.71960938 6.28962891 12.40796875 6.68472656 13.1171875 7.09179688 C14.85204513 8.12617131 16.51223328 9.28363 18.15625 10.45703125 C18.15625 11.44703125 18.15625 12.43703125 18.15625 13.45703125 C13.16443039 11.68300084 8.82563509 8.91294522 4.41601562 6.02734375 C1.17473154 4.05777659 -0.32746955 3.34547005 -4.09765625 4.16015625 C-5.45697266 4.80210938 -5.45697266 4.80210938 -6.84375 5.45703125 C-7.83375 5.78703125 -8.82375 6.11703125 -9.84375 6.45703125 C-10.17375 7.11703125 -10.50375 7.77703125 -10.84375 8.45703125 C-10.84375 7.79703125 -10.84375 7.13703125 -10.84375 6.45703125 C-11.50375 6.12703125 -12.16375 5.79703125 -12.84375 5.45703125 C-11.31920995 4.3904558 -9.77317641 3.35455954 -8.21875 2.33203125 C-7.36023438 1.75195312 -6.50171875 1.171875 -5.6171875 0.57421875 C-2.84375 -0.54296875 -2.84375 -0.54296875 0 0 Z " fill="#423E35" transform="translate(101.84375,18.54296875)"/>
<path d="M0 0 C0.41901462 3.42527823 0.60891318 6.59112708 0 10 C-1.98166856 12.36655957 -4.17334544 13.78492225 -7 15 C-7.66 15 -8.32 15 -9 15 C-9.48227666 11.55038223 -9.70632079 8.42696385 -9 5 C-6.7820267 2.74233143 -3.34713092 0 0 0 Z " fill="#EFECE4" transform="translate(168,62)"/>
<path d="M0 0 C0.66 0 1.32 0 2 0 C2.33 6.6 2.66 13.2 3 20 C3.33 20 3.66 20 4 20 C4 21.98 4 23.96 4 26 C2.56988027 26.86646667 1.13059381 27.71781829 -0.3125 28.5625 C-1.11300781 29.03816406 -1.91351563 29.51382813 -2.73828125 30.00390625 C-5 31 -5 31 -8 30 C-8 21.75 -8 13.5 -8 5 C-7.67 5 -7.34 5 -7 5 C-7 12.59 -7 20.18 -7 28 C-4.69 26.68 -2.38 25.36 0 24 C0 16.08 0 8.16 0 0 Z " fill="#625E55" transform="translate(148,126)"/>
<path d="M0 0 C3.21017657 1.11658315 4.71011309 2.41878868 6.875 5 C1.78409091 9 1.78409091 9 -2.25 9 C-5.46017657 7.88341685 -6.96011309 6.58121132 -9.125 4 C-4.03409091 0 -4.03409091 0 0 0 Z " fill="#F5F2E9" transform="translate(159.125,55)"/>
<path d="M0 0 C1.31625194 2.63250388 0.74813658 3.80179056 0.0625 6.625 C-0.13214844 7.44226563 -0.32679687 8.25953125 -0.52734375 9.1015625 C-0.68332031 9.72804688 -0.83929688 10.35453125 -1 11 C-1.6084375 10.66742188 -2.216875 10.33484375 -2.84375 9.9921875 C-5.71573083 8.67066009 -7.0393488 8.96377208 -10 10 C-10.680625 10.680625 -11.36125 11.36125 -12.0625 12.0625 C-12.701875 12.701875 -13.34125 13.34125 -14 14 C-15.32 14 -16.64 14 -18 14 C-18.33 17.63 -18.66 21.26 -19 25 C-19.66 24.67 -20.32 24.34 -21 24 C-21.29790118 19.78088787 -21.20563249 16.07280893 -20 12 C-16.79242057 8.67281591 -13.37205472 6.49585492 -9 5 C-5.95765151 5.25322322 -3.72429604 5.63785198 -1 7 C-1.020625 6.030625 -1.04125 5.06125 -1.0625 4.0625 C-1 1 -1 1 0 0 Z " fill="#49443E" transform="translate(88,24)"/>
<path d="M0 0 C0.33 0 0.66 0 1 0 C1.52969085 4.77375704 1.78779545 9.2467912 1 14 C-1.54195575 17.04288623 -4.33290092 18.57323132 -8 20 C-8.99 20.39058594 -8.99 20.39058594 -10 20.7890625 C-12.86239258 21.09095547 -14.31637579 20.02983224 -16.75 18.5625 C-17.54921875 18.08941406 -18.3484375 17.61632812 -19.171875 17.12890625 C-19.77515625 16.75636719 -20.3784375 16.38382813 -21 16 C-20.01 15.01 -19.02 14.02 -18 13 C-17.01 13.33 -16.02 13.66 -15 14 C-15 15.32 -15 16.64 -15 18 C-14.01 18 -13.02 18 -12 18 C-12 17.34 -12 16.68 -12 16 C-10.948125 15.814375 -10.948125 15.814375 -9.875 15.625 C-6.86038936 14.96964986 -3.9267089 13.97556963 -1 13 C-0.67 8.71 -0.34 4.42 0 0 Z " fill="#363129" transform="translate(169,60)"/>
<path d="M0 0 C0.33 0 0.66 0 1 0 C1.01458252 0.65597168 1.02916504 1.31194336 1.04418945 1.98779297 C1.11851414 4.95080031 1.21522369 7.91266117 1.3125 10.875 C1.33505859 11.90753906 1.35761719 12.94007812 1.38085938 14.00390625 C1.41630859 14.99003906 1.45175781 15.97617187 1.48828125 16.9921875 C1.51446533 17.90339355 1.54064941 18.81459961 1.56762695 19.75341797 C1.71031006 20.49479004 1.85299316 21.23616211 2 22 C2.99 22.66 3.98 23.32 5 24 C4.875 25.875 4.875 25.875 4 28 C1.125 29.1875 1.125 29.1875 -2 30 C-2.99 30.33 -3.98 30.66 -5 31 C-4.67 29.68 -4.34 28.36 -4 27 C-2.68 26.67 -1.36 26.34 0 26 C0 25.34 0 24.68 0 24 C-0.99 23.67 -1.98 23.34 -3 23 C-2.67 21.35 -2.34 19.7 -2 18 C-1.34 18 -0.68 18 0 18 C0 12.06 0 6.12 0 0 Z " fill="#4F4A43" transform="translate(124,32)"/>
<path d="M0 0 C0.66 0 1.32 0 2 0 C2 0.66 2 1.32 2 2 C2.61875 2.12375 3.2375 2.2475 3.875 2.375 C6 3 6 3 8 5 C7.34 6.65 6.68 8.3 6 10 C3.36 10 0.72 10 -2 10 C-2.33 9.01 -2.66 8.02 -3 7 C-2.34 7 -1.68 7 -1 7 C-1.020625 6.030625 -1.04125 5.06125 -1.0625 4.0625 C-1 1 -1 1 0 0 Z " fill="#2C251F" transform="translate(89,25)"/>
<path d="M0 0 C1.32 2.64 2.64 5.28 4 8 C3.01 8.33 2.02 8.66 1 9 C0.34 7.68 -0.32 6.36 -1 5 C-1.7425 5.309375 -2.485 5.61875 -3.25 5.9375 C-6 7 -6 7 -8.25 7.5 C-8.8275 7.665 -9.405 7.83 -10 8 C-10.33 8.66 -10.66 9.32 -11 10 C-11.33 8.68 -11.66 7.36 -12 6 C-10.37829621 4.99466333 -8.75252763 3.99588093 -7.125 3 C-5.76761719 2.1646875 -5.76761719 2.1646875 -4.3828125 1.3125 C-2 0 -2 0 0 0 Z " fill="#403C33" transform="translate(43,51)"/>
<path d="M0 0 C2.9719385 1.12451727 5.33440687 2.22293791 8 4 C8 4.66 8 5.32 8 6 C3.50777202 8.99481865 3.50777202 8.99481865 1 10 C-1.9375 9.25 -1.9375 9.25 -4 8 C-1.94766315 5.7522025 -0.99332739 4.9977758 2 4 C2 3.34 2 2.68 2 2 C1.34 2 0.68 2 0 2 C0 1.34 0 0.68 0 0 Z " fill="#F0EDE6" transform="translate(139,119)"/>
<path d="M0 0 C1.32 0.33 2.64 0.66 4 1 C4 7.27 4 13.54 4 20 C3.34 20 2.68 20 2 20 C2 15.05 2 10.1 2 5 C1.34 5 0.68 5 0 5 C0 3.35 0 1.7 0 0 Z " fill="#2B271E" transform="translate(120,30)"/>
<path d="M0 0 C2.64779693 2.64779693 4.34391862 4.68783725 6 8 C5.67 8.99 5.34 9.98 5 11 C3.35 11.66 1.7 12.32 0 13 C0 8.71 0 4.42 0 0 Z " fill="#F0EDE5" transform="translate(113,160)"/>
<path d="M0 0 C0.33 0 0.66 0 1 0 C0.979375 1.051875 0.95875 2.10375 0.9375 3.1875 C1.59187488 7.0180566 1.59187488 7.0180566 4.0703125 8.578125 C6.34669773 9.81978967 8.62560462 10.95910344 11 12 C9.328125 13.1796875 9.328125 13.1796875 7 14 C4.421875 12.8828125 4.421875 12.8828125 1.75 11.125 C0.85796875 10.55007812 -0.0340625 9.97515625 -0.953125 9.3828125 C-1.62859375 8.92648438 -2.3040625 8.47015625 -3 8 C-2.34 7.67 -1.68 7.34 -1 7 C-0.59270772 4.67843403 -0.25561323 2.3431213 0 0 Z " fill="#3C3730" transform="translate(112,40)"/>
<path d="M0 0 C0 0.66 0 1.32 0 2 C-1.28913487 2.67154933 -2.58140204 3.33708859 -3.875 4 C-4.59429687 4.37125 -5.31359375 4.7425 -6.0546875 5.125 C-8 6 -8 6 -10 6 C-10.33 6.66 -10.66 7.32 -11 8 C-11 7.34 -11 6.68 -11 6 C-11.66 5.67 -12.32 5.34 -13 5 C-11.40377344 3.96679519 -9.79770894 2.94877571 -8.1875 1.9375 C-7.29417969 1.36902344 -6.40085937 0.80054687 -5.48046875 0.21484375 C-3 -1 -3 -1 0 0 Z " fill="#3A362E" transform="translate(102,19)"/>
<path d="M0 0 C1.485 0.99 1.485 0.99 3 2 C2.01 2 1.02 2 0 2 C0 1.34 0 0.68 0 0 Z M0 2 C0 3.65 0 5.3 0 7 C-0.99 6.67 -1.98 6.34 -3 6 C-2.67 6.99 -2.34 7.98 -2 9 C-2.66 9.66 -3.32 10.32 -4 11 C-5.5 9.6875 -5.5 9.6875 -7 8 C-7 7.01 -7 6.02 -7 5 C-1.125 2 -1.125 2 0 2 Z " fill="#38322C" transform="translate(151,114)"/>
<path d="M0 0 C4.87362847 0.45336079 7.39042389 1.7089159 11 5 C7.75 5.75 7.75 5.75 4 6 C1.5625 4.1875 1.5625 4.1875 0 2 C0 1.34 0 0.68 0 0 Z " fill="#38312B" transform="translate(127,102)"/>
<path d="M0 0 C2 1 2 1 3 3 C1.68 3.99 0.36 4.98 -1 6 C-1.33 5.67 -1.66 5.34 -2 5 C-2.33 9.29 -2.66 13.58 -3 18 C-3.66 17.67 -4.32 17.34 -5 17 C-4.93998496 14.72843079 -4.85120032 12.45760726 -4.75 10.1875 C-4.70359375 8.92292969 -4.6571875 7.65835938 -4.609375 6.35546875 C-4 3 -4 3 -1.953125 1.05078125 C-1.30859375 0.70402344 -0.6640625 0.35726562 0 0 Z " fill="#4B463F" transform="translate(53,44)"/>
<path d="M0 0 C2 1 2 1 3 3 C1.73308493 3.67408308 0.46129251 4.33900497 -0.8125 5 C-1.52019531 5.37125 -2.22789063 5.7425 -2.95703125 6.125 C-5 7 -5 7 -8 7 C-6.89300099 3.78970286 -5.98396175 2.99031023 -3 1.1875 C-1.515 0.5996875 -1.515 0.5996875 0 0 Z " fill="#433F36" transform="translate(63,119)"/>
<path d="M0 0 C-0.5775 0.268125 -1.155 0.53625 -1.75 0.8125 C-4.0325868 2.01719859 -5.9737942 3.40798115 -8 5 C-9.32 4.34 -10.64 3.68 -12 3 C-4.71428571 -1.71428571 -4.71428571 -1.71428571 0 0 Z " fill="#3A372E" transform="translate(161,53)"/>
<path d="M0 0 C0.66 0.33 1.32 0.66 2 1 C2 1.66 2 2.32 2 3 C-1.96 4.98 -1.96 4.98 -6 7 C-6 6.01 -6 5.02 -6 4 C-3 1.8125 -3 1.8125 0 0 Z " fill="#3B372F" transform="translate(145,125)"/>
<path d="M0 0 C0.33 0.66 0.66 1.32 1 2 C1.66 2.33 2.32 2.66 3 3 C0.03 4.32 -2.94 5.64 -6 7 C-6 6.34 -6 5.68 -6 5 C-6.66 4.67 -7.32 4.34 -8 4 C-5.36 2.68 -2.72 1.36 0 0 Z " fill="#413D36" transform="translate(128,108)"/>
<path d="M0 0 C2.5 1.1875 2.5 1.1875 4.5 3.1875 C4.17 3.8475 3.84 4.5075 3.5 5.1875 C0.12496331 4.0016763 -2.14722731 2.91176311 -4.5 0.1875 C-2.5 -0.8125 -2.5 -0.8125 0 0 Z " fill="#47433A" transform="translate(153.5,101.8125)"/>
<path d="M0 0 C1.32 0 2.64 0 4 0 C4 2.64 4 5.28 4 8 C1.10067643 5.60490662 0.49831724 3.68754757 0 0 Z " fill="#F8F4EE" transform="translate(91,86)"/>
<path d="M0 0 C1.32 0.66 2.64 1.32 4 2 C0.14243493 4.15305957 -2.55129785 5.39253254 -7 5 C-4.702779 3.25728062 -2.40133271 1.60088848 0 0 Z " fill="#413D34" transform="translate(108,173)"/>
<path d="M0 0 C0.598125 0.20625 1.19625 0.4125 1.8125 0.625 C-0.87591859 2.87745881 -2.83391875 4.50713958 -6.1875 5.625 C-5.875 3.75 -5.875 3.75 -5.1875 1.625 C-2.1875 -0.375 -2.1875 -0.375 0 0 Z " fill="#3C382F" transform="translate(167.1875,140.375)"/>
<path d="M0 0 C0.66 0.99 1.32 1.98 2 3 C-0.25 4.625 -0.25 4.625 -3 6 C-5.3125 5.1875 -5.3125 5.1875 -7 4 C-4.69 2.68 -2.38 1.36 0 0 Z " fill="#403C33" transform="translate(119,33)"/>
<path d="M0 0 C0.66 0.33 1.32 0.66 2 1 C1 4 1 4 -2.0625 5.6875 C-3.031875 6.120625 -4.00125 6.55375 -5 7 C-4.60196439 4.11424181 -4.20990931 3.17810487 -1.9375 1.25 C-1.298125 0.8375 -0.65875 0.425 0 0 Z " fill="#413C35" transform="translate(127,162)"/>
<path d="M0 0 C2.3125 0.8125 2.3125 0.8125 4 2 C1.75 3.625 1.75 3.625 -1 5 C-3.3125 4.1875 -3.3125 4.1875 -5 3 C-2.75 1.375 -2.75 1.375 0 0 Z " fill="#3D3933" transform="translate(105,148)"/>
<path d="M0 0 C0 0.99 0 1.98 0 3 C-1.98 3.99 -3.96 4.98 -6 6 C-6.33 5.01 -6.66 4.02 -7 3 C-2.25 0 -2.25 0 0 0 Z " fill="#403C34" transform="translate(166,114)"/>
<path d="M0 0 C2 1 2 1 3 3 C-0.465 4.485 -0.465 4.485 -4 6 C-4.33 5.01 -4.66 4.02 -5 3 C-2.625 1.4375 -2.625 1.4375 0 0 Z " fill="#443F38" transform="translate(61,93)"/>
<path d="M0 0 C0.99 0.33 1.98 0.66 3 1 C3.33 2.65 3.66 4.3 4 6 C2.02 5.01 0.04 4.02 -2 3 C-2 2.34 -2 1.68 -2 1 C-1.34 0.67 -0.68 0.34 0 0 Z " fill="#352F29" transform="translate(45,146)"/>
<path d="M0 0 C2.475 0.99 2.475 0.99 5 2 C3.74458443 4.51083114 2.49936512 4.87125446 0 6 C0 4.02 0 2.04 0 0 Z " fill="#E5E2D9" transform="translate(152,145)"/>
<path d="M0 0 C0.66 0.33 1.32 0.66 2 1 C1.67 1.99 1.34 2.98 1 4 C-2 5 -2 5 -4.1875 4.0625 C-4.785625 3.711875 -5.38375 3.36125 -6 3 C-4.03533587 1.93224776 -2.03144641 0.93446535 0 0 Z " fill="#4A453D" transform="translate(163,61)"/>
</svg>
