<?xml version="1.0" encoding="UTF-8"?>
<svg version="1.1" xmlns="http://www.w3.org/2000/svg" width="224" height="224">
<path d="M0 0 C73.92 0 147.84 0 224 0 C224 73.92 224 147.84 224 224 C150.08 224 76.16 224 0 224 C0 150.08 0 76.16 0 0 Z " fill="#FEFEFE" transform="translate(0,0)"/>
<path d="M0 0 C0.66 0 1.32 0 2 0 C4.12952021 3.89337879 6.25281798 7.7901172 8.375 11.6875 C8.97828125 12.79029297 9.5815625 13.89308594 10.203125 15.02929688 C10.78320312 16.09599609 11.36328125 17.16269531 11.9609375 18.26171875 C12.49509277 19.24100342 13.02924805 20.22028809 13.57958984 21.22924805 C14.88644189 23.77848557 15.98710347 26.32244861 17 29 C17.98742187 28.566875 18.97484375 28.13375 19.9921875 27.6875 C21.28637554 27.12480955 22.58065093 26.56231995 23.875 26 C24.52597656 25.71382812 25.17695313 25.42765625 25.84765625 25.1328125 C30.7734375 23 30.7734375 23 33 23 C33.27475523 31.77690322 32.62341201 40.19311085 31.51171875 48.875 C30.8267713 54.23480734 30.3945065 59.61187168 30 65 C35.34598363 60.35586338 40.6051749 55.63256956 45.80078125 50.8203125 C48 49 48 49 51 48 C53.04904679 51.33066033 54.01493872 54.06613624 54 58 C51.44459244 62.48727341 48.10544801 66.14798509 44.69970703 70.00927734 C41.74903731 73.46514648 39.09439658 77.12872417 36.4375 80.8125 C35.89504639 81.55935059 35.35259277 82.30620117 34.79370117 83.07568359 C30.47823855 89.11280569 26.66201479 95.37888337 23.07006836 101.87036133 C22.09653725 103.60909162 21.05498683 105.30945315 20 107 C19.34 107 18.68 107 18 107 C9.38477781 90.95032211 3.79744686 75.01163152 1 57 C0.84966309 57.67353516 0.69932617 58.34707031 0.54443359 59.04101562 C-7.05640037 92.75355812 -7.05640037 92.75355812 -16 107 C-16.66 107 -17.32 107 -18 107 C-19.33460414 104.94196559 -20.54983354 102.8854872 -21.75 100.75 C-25.52458557 94.26553645 -29.58561958 88.03062282 -33.875 81.875 C-34.46700195 81.02220459 -35.05900391 80.16940918 -35.66894531 79.29077148 C-39.31407146 74.13048459 -43.21708691 69.44620806 -47.5 64.8125 C-51.8901637 59.99280602 -51.8901637 59.99280602 -52.30078125 56.28125 C-51.58253498 52.64979685 -50.62209303 50.62209303 -48 48 C-47.39414062 48.556875 -46.78828125 49.11375 -46.1640625 49.6875 C-45.32617188 50.450625 -44.48828125 51.21375 -43.625 52 C-42.81289062 52.7425 -42.00078125 53.485 -41.1640625 54.25 C-36.92906942 58.01574995 -32.44281445 61.48499784 -28 65 C-28.08564209 64.08822998 -28.17128418 63.17645996 -28.25952148 62.23706055 C-28.58207952 58.80217686 -28.90449034 55.36727942 -29.22680664 51.93237305 C-29.365421 50.45547963 -29.50409132 48.97859146 -29.64282227 47.50170898 C-30.44117631 39.00226461 -31.2324832 30.50229779 -32 22 C-26.39 24.31 -20.78 26.62 -15 29 C-14.34 27.02 -13.68 25.04 -13 23 C-12.03482527 21.10249767 -11.01938589 19.2299087 -9.9609375 17.3828125 C-9.38085938 16.36445312 -8.80078125 15.34609375 -8.203125 14.296875 C-7.59984375 13.25015625 -6.9965625 12.2034375 -6.375 11.125 C-5.76398438 10.05507813 -5.15296875 8.98515625 -4.5234375 7.8828125 C-3.0203689 5.25244245 -1.51243714 2.62499074 0 0 Z " fill="#020202" transform="translate(111,42)"/>
<path d="M0 0 C2.08048913 0.20804891 4.16026288 0.42725046 6.234375 0.69140625 C9.02579455 1.04050202 9.02579455 1.04050202 11.953125 1.08984375 C16.64023557 1.43236337 19.83824715 1.94125972 23.37890625 5.16796875 C25.81172362 8.32323278 27.92848558 11.60431719 30 15 C30.86914838 16.35411521 31.74032518 17.70693011 32.61328125 19.05859375 C58.93706567 60.42521079 58.93706567 60.42521079 58 74 C59.69514928 72.35621888 61.3557331 70.69409317 63 69 C63.53109375 68.4534375 64.0621875 67.906875 64.609375 67.34375 C70.43163715 61.04075061 75.16293761 53.67412477 79 46 C79.66 46 80.32 46 81 46 C81.44988281 46.85980469 81.89976563 47.71960938 82.36328125 48.60546875 C87.2698853 57.71069433 93.07518366 65.33687604 100 73 C100.29567871 72.27441895 100.59135742 71.54883789 100.89599609 70.80126953 C121.66303162 20.33696838 121.66303162 20.33696838 139 3 C141.58147238 2.43125095 144.15163856 1.91554361 146.75 1.4375 C147.46671875 1.29892578 148.1834375 1.16035156 148.921875 1.01757812 C152.66618324 0.31896179 156.17192872 -0.17331819 160 0 C159.45126917 6.72195265 157.70955816 12.95988819 155.83984375 19.4140625 C155.03578514 22.84720579 154.52307066 25.50586504 155 29 C156.69932833 30.78406194 156.69932833 30.78406194 159 31.875 C160.11375 32.48988281 160.11375 32.48988281 161.25 33.1171875 C161.8275 33.40851563 162.405 33.69984375 163 34 C159.33816728 38.16521135 154.86438735 40.75386066 150.1875 43.625 C143.99971978 47.4739237 137.85823054 51.36864713 131.8125 55.4375 C126.93038423 58.72063574 122.01805367 61.92772225 117 65 C117.20496094 65.71285156 117.40992188 66.42570312 117.62109375 67.16015625 C119.10620647 72.43976749 120.39412346 77.54711116 121 83 C112.20202265 83.22558916 103.67055105 82.13138742 94.94921875 81.06640625 C93.80066406 80.93105469 92.65210937 80.79570312 91.46875 80.65625 C90.44201172 80.53056641 89.41527344 80.40488281 88.35742188 80.27539062 C81.09423051 79.67963147 74.0380726 80.06895674 66.80859375 80.875 C65.97787857 80.96378418 65.14716339 81.05256836 64.29127502 81.14404297 C61.67284735 81.42491328 59.05518915 81.71233655 56.4375 82 C54.64783349 82.19314463 52.85812027 82.38585691 51.06835938 82.578125 C46.71168417 83.04709262 42.35568571 83.52193306 38 84 C39.56752937 77.63583076 41.14264467 71.28643343 43 65 C42.01902344 64.39414063 41.03804687 63.78828125 40.02734375 63.1640625 C31.21421642 57.70060649 22.5247892 52.08632791 13.92480469 46.29394531 C10.4779366 43.97679655 7.01940432 41.67713631 3.5625 39.375 C2.29292089 38.52871763 1.02338499 37.68237043 -0.24609375 36.8359375 C-1.60927734 35.92714844 -1.60927734 35.92714844 -3 35 C-0.51047079 32.33264727 1.63408134 30.44253657 5 29 C4.52073327 22.29026576 3.11410092 16.06063503 1.37207031 9.5859375 C0.48357051 6.22757126 0 3.50628277 0 0 Z " fill="#E4B428" transform="translate(32,99)"/>
<path d="M0 0 C0.66 0 1.32 0 2 0 C3.36605328 4.28797591 4.71581779 8.58090479 6.0625 12.875 C6.45244141 14.09832031 6.84238281 15.32164063 7.24414062 16.58203125 C7.60830078 17.74863281 7.97246094 18.91523437 8.34765625 20.1171875 C8.68804932 21.19597168 9.02844238 22.27475586 9.37915039 23.38623047 C10 26 10 26 9 28 C8.505 27.505 8.01 27.01 7.5 26.5 C4.10642477 24.46385486 0.82248098 24.27394216 -3 25 C-5.70761163 26.45215639 -5.70761163 26.45215639 -8 28 C-5.78952972 18.51115195 -2.97604874 9.26927435 0 0 Z " fill="#EAEAEA" transform="translate(111,62)"/>
</svg>
