<?xml version="1.0" encoding="UTF-8"?>
<svg version="1.1" xmlns="http://www.w3.org/2000/svg" width="288" height="288">
<path d="M0 0 C95.04 0 190.08 0 288 0 C288 95.04 288 190.08 288 288 C192.96 288 97.92 288 0 288 C0 192.96 0 97.92 0 0 Z " fill="#292F6D" transform="translate(0,0)"/>
<path d="M0 0 C0.98742187 0.32871094 1.97484375 0.65742187 2.9921875 0.99609375 C17.53043364 6.45265626 29.18169785 15.55846277 36 29.6875 C39.71072053 39.47373922 39.31977802 49.96302575 35.26171875 59.57421875 C30.5134962 68.70315436 23.25470975 76.46337757 14 81 C13.34 81 12.68 81 12 81 C19.35059189 89.87140401 30.83147434 91.92304496 41.56152344 94.43017578 C46.34082932 95.54700597 51.11078493 96.69543919 55.875 97.875 C56.82536133 98.09534912 57.77572266 98.31569824 58.75488281 98.54272461 C66.62484038 100.50884149 74.53839421 103.74397883 80 110 C80.6875 112.125 80.6875 112.125 81 115 C81.08765625 115.67417969 81.1753125 116.34835938 81.265625 117.04296875 C81.67987774 122.51298792 80.64548694 125.93717071 77.1015625 130.14453125 C68.74878079 137.51919911 58.20440777 140.38367736 47.33813477 139.71704102 C38.80043704 139.10054519 38.80043704 139.10054519 30.90234375 141.75 C29.33016309 143.30380793 27.80735968 144.90905204 26.3359375 146.55859375 C18.83564548 154.39752772 6.50434328 157.40345346 -3.62817383 160.42822266 C-10.4785952 162.54251033 -16.09713729 164.90784809 -20 171.25 C-22 174 -22 174 -25.25 175.125 C-34.0984294 174.83005235 -39.48208968 169.27437377 -45.265625 163.11328125 C-49.74594704 158.13182922 -53.49026643 152.69556299 -57 147 C-57.67804688 145.90558594 -58.35609375 144.81117188 -59.0546875 143.68359375 C-68.93426739 126.85560674 -78.29174826 102.81948083 -74.4296875 83.0859375 C-73.20873517 78.72906549 -71.86667567 75.5411876 -69 72 C-69.51949219 71.48953125 -70.03898437 70.9790625 -70.57421875 70.453125 C-79.29115857 61.36559439 -83.40248418 50.94591589 -83.27734375 38.41796875 C-82.42954567 27.96975299 -76.18674361 18.70003629 -68.625 11.75 C-50.08306622 -3.77848517 -22.90362145 -7.70734945 0 0 Z " fill="#292F6D" transform="translate(165,88)"/>
<path d="M0 0 C3.83221308 3.53742746 7.54076114 7.3708445 10 12 C9.875 15.75 9.875 15.75 9.44140625 17.734375 C7.3896071 28.26573348 9.31846072 38.94221055 15 48 C16.581137 49.86172247 18.19665903 51.63443952 19.92578125 53.359375 C21 55 21 55 20.76171875 56.9921875 C20.07137594 58.81186034 19.29043587 60.5965193 18.5 62.375 C11.64619907 78.93835225 18.58854975 98.27485434 25 114 C26.30343627 117.06614138 27.66242192 120.10184017 29.0625 123.125 C29.37856201 123.81126465 29.69462402 124.4975293 30.02026367 125.20458984 C31.6753543 128.66411534 33.47566348 131.77121887 35.74609375 134.8671875 C38 138 38 138 38 140 C33.77137996 140.50469616 29.54202341 141.00293584 25.3125 141.5 C24.11431641 141.64308594 22.91613281 141.78617188 21.68164062 141.93359375 C20.52470703 142.06894531 19.36777344 142.20429688 18.17578125 142.34375 C17.11270752 142.46943359 16.04963379 142.59511719 14.9543457 142.72460938 C12.27954584 142.97394201 9.68391231 143.05207267 7 143 C8.71212794 134.63971568 8.71212794 134.63971568 10.125 131.5 C11.50055211 127.56985113 11.8675321 124.09667934 11 120 C7.50453297 113.94659186 1.39221735 109.69303197 -3.98828125 105.40625 C-7.14346627 102.88537585 -10.23463325 100.30154675 -13.3125 97.6875 C-14.12170898 97.00167847 -14.12170898 97.00167847 -14.94726562 96.30200195 C-17.82344488 93.86072201 -20.69057912 91.40919582 -23.55078125 88.94921875 C-24.14149414 88.44116699 -24.73220703 87.93311523 -25.34082031 87.40966797 C-26.52395665 86.39198939 -27.70690148 85.37408813 -28.88964844 84.35595703 C-33.3900176 80.49362449 -37.96573861 76.73926296 -42.59765625 73.03515625 C-45.2126191 70.81987878 -47.60757112 68.45213299 -50 66 C-49.15695313 65.59007812 -48.31390625 65.18015625 -47.4453125 64.7578125 C-46.34960938 64.21898437 -45.25390625 63.68015625 -44.125 63.125 C-43.03445312 62.59132812 -41.94390625 62.05765625 -40.8203125 61.5078125 C-37.96117453 60.15464063 -37.96117453 60.15464063 -36 58 C-34.91160216 50.68603821 -36.80142471 43.82871062 -38.875 36.875 C-39.41472426 34.99758595 -39.95379807 33.11998478 -40.4921875 31.2421875 C-40.74967773 30.35112305 -41.00716797 29.46005859 -41.27246094 28.54199219 C-44.30840735 17.93451766 -44.30840735 17.93451766 -44 13 C-33.9855756 14.63601983 -24.18960955 16.5823626 -14.390625 19.23046875 C-11.43423587 19.90144647 -9.00886714 20.16652127 -6 20 C-5.85377197 19.42967041 -5.70754395 18.85934082 -5.55688477 18.27172852 C-4.89565885 15.70105211 -4.22915229 13.13177426 -3.5625 10.5625 C-3.33240234 9.66466797 -3.10230469 8.76683594 -2.86523438 7.84179688 C-2.64287109 6.98779297 -2.42050781 6.13378906 -2.19140625 5.25390625 C-1.98717041 4.46314697 -1.78293457 3.6723877 -1.57250977 2.85766602 C-1 1 -1 1 0 0 Z " fill="#A5D1E9" transform="translate(72,104)"/>
<path d="M0 0 C2.85867556 2.85867556 3.50112834 6.34173436 4.625 10.125 C4.96917969 11.25615234 4.96917969 11.25615234 5.3203125 12.41015625 C5.88585438 14.27173159 6.44366822 16.13565151 7 18 C14.79032051 18.57235008 21.18434487 17.32548271 28.62109375 15.0234375 C34.38668244 13.27709734 39.96967964 12 46 12 C45.33758688 17.12533785 44.38190791 22.09843712 43.1875 27.125 C43.01444336 27.86419678 42.84138672 28.60339355 42.66308594 29.36499023 C41.55224574 34.00499974 40.23745724 38.5260201 38.75 43.0625 C37.20460596 48.00776093 36.06437614 51.85406878 37 57 C39.48337944 59.43559628 39.48337944 59.43559628 43 61 C43.71929687 61.37125 44.43859375 61.7425 45.1796875 62.125 C47.10712577 63.11272637 49.04545366 64.06737383 51 65 C51 65.66 51 66.32 51 67 C49.3046875 68.5234375 49.3046875 68.5234375 46.875 70.375 C41.69893815 74.39753949 36.74156374 78.62847013 31.82373047 82.96240234 C25.75883817 88.23973562 25.75883817 88.23973562 23 89 C20.80859375 88.2421875 20.80859375 88.2421875 18.4375 86.875 C9.92460115 82.3290381 1.76846091 79.89178238 -7.6875 78.1875 C-14.46346389 76.94445496 -20.68515455 75.27652612 -27 72.5 C-27.97779419 72.07303833 -27.97779419 72.07303833 -28.9753418 71.63745117 C-32.6464488 69.92654456 -35.32946824 68.04440621 -38 65 C-37.35933594 64.6596875 -36.71867188 64.319375 -36.05859375 63.96875 C-24.9633316 57.7514347 -18.98961869 49.65254829 -14.85546875 37.6875 C-14.08020192 34.34571054 -13.95889724 31.55831754 -14.078125 28.15039062 C-14.34158628 16.41538618 -8.66871156 9.39311754 -1 1 C-0.67 0.67 -0.34 0.34 0 0 Z " fill="#A5D1E9" transform="translate(219,104)"/>
<path d="M0 0 C2.24374163 1.19890314 4.39118871 2.43535174 6.5625 3.75 C15.08398545 8.60814416 23.95753106 10.37477348 33.46240234 12.41894531 C56.8851079 17.7822356 56.8851079 17.7822356 63.5 24.5625 C66.09733824 28.78317464 66.48171124 32.10260244 66 37 C63.43261489 43.32248575 59.17417875 47.2440517 53 50 C37.44025056 55.30617669 23.32961556 51.36837587 8.49072266 45.87207031 C2.46919532 43.76376845 -3.78055196 42.39040545 -10 41 C-10.763125 40.79503906 -11.52625 40.59007812 -12.3125 40.37890625 C-14.86876627 40.01850243 -17.11372526 40.01806762 -19.6875 40.11328125 C-20.55117187 40.14357422 -21.41484375 40.17386719 -22.3046875 40.20507812 C-24.10244545 40.2767279 -25.89953055 40.36790587 -27.6953125 40.47851562 C-34.11470156 40.65576741 -34.11470156 40.65576741 -36.73828125 38.71240234 C-38.5814543 36.57652822 -40 34.90151017 -40 32 C-38.10546779 31.35035977 -36.20931351 30.70544885 -34.3125 30.0625 C-33.25675781 29.70285156 -32.20101562 29.34320313 -31.11328125 28.97265625 C-26.47370379 27.52315213 -22.29899062 26.87297499 -17.4375 26.8671875 C-15.87128906 26.86525391 -15.87128906 26.86525391 -14.2734375 26.86328125 C-12.65308594 26.86908203 -12.65308594 26.86908203 -11 26.875 C-9.91976562 26.87113281 -8.83953125 26.86726563 -7.7265625 26.86328125 C-6.68242187 26.86457031 -5.63828125 26.86585938 -4.5625 26.8671875 C-3.61503906 26.86831543 -2.66757813 26.86944336 -1.69140625 26.87060547 C0.97399171 26.9987496 3.39166593 27.46003826 6 28 C9.24817733 28.23151156 12.49430469 28.23073553 15.75 28.25 C17.03390625 28.2809375 17.03390625 28.2809375 18.34375 28.3125 C24.41835666 28.3493158 29.36963938 27.26650218 35 25 C35 24.67 35 24.34 35 24 C34.08863281 24.29519531 33.17726563 24.59039062 32.23828125 24.89453125 C25.24417711 26.69167842 20.0512882 26.90767601 13.54296875 23.4140625 C9.01891443 20.68996465 4.67158309 17.72638272 0.37109375 14.66357422 C-3.00152186 12.29732599 -6.48697543 10.15091435 -10 8 C-6.55505191 11.59059847 -3.02690889 14.60909106 1 17.5625 C4.72838403 20.30647651 8.40363935 23.08456793 12 26 C11.15755737 25.89715698 11.15755737 25.89715698 10.2980957 25.79223633 C2.92571466 24.96651191 -4.39779562 24.74758675 -11.8125 24.6875 C-12.99392578 24.65849609 -14.17535156 24.62949219 -15.39257812 24.59960938 C-23.95324012 24.53862932 -30.95912456 26.17331474 -39 29 C-40.32843259 29.35235739 -41.65999522 29.69458866 -43 30 C-48.49364536 24.39472329 -51.89602352 18.82933212 -54.9375 11.625 C-55.33517578 10.72394531 -55.73285156 9.82289063 -56.14257812 8.89453125 C-59 2.33377259 -59 2.33377259 -59 0 C-57.22868439 0.30975468 -55.45796222 0.62290425 -53.6875 0.9375 C-52.20830078 1.19853516 -52.20830078 1.19853516 -50.69921875 1.46484375 C-48 2 -48 2 -45 3 C-30.98779338 3.96595533 -12.41192965 -3.01074156 0 0 Z " fill="#2A2F6C" transform="translate(176,173)"/>
<path d="M0 0 C5.81883293 0.74014241 10.50468993 3.30456053 15 7 C17.20311932 10.21791467 18.51599446 13.60828244 19.875 17.25 C23.07105646 25.00712911 26.57971249 32.06208085 31.3125 39 C31.80411621 39.72219727 32.29573242 40.44439453 32.80224609 41.18847656 C35.6720136 45.3082176 38.73159562 49.18983824 42 53 C39.36 54.98 36.72 56.96 34 59 C37.12020989 59.28409536 37.12020989 59.28409536 39.625 57.1875 C50.06257758 50.05134599 62.5080379 51.01320793 74.5 53.125 C82.37966917 54.85102277 89.63780208 57.77316432 97 61 C97 64 97 64 95.77734375 65.32421875 C85.79885024 72.71804939 74.72102963 77.88219648 63.25 82.5 C62.38020508 82.85046387 61.51041016 83.20092773 60.61425781 83.56201172 C54.39216782 86 54.39216782 86 51 86 C51 84.35 51 82.7 51 81 C50.34 81 49.68 81 49 81 C48.9071875 81.99 48.9071875 81.99 48.8125 83 C47.46667481 87.96920068 44.63503558 92.36496442 41 96 C33.96796523 95.35753835 28.15645152 90.53546502 23.5 85.5 C10.43862242 69.51937443 2.16737068 50.839383 -3 31 C-3.36480469 29.83855469 -3.72960937 28.67710937 -4.10546875 27.48046875 C-6.0132364 20.05766973 -6.54789185 11.13380616 -3.0625 4.125 C-1 1 -1 1 0 0 Z " fill="#2A2F6D" transform="translate(98,164)"/>
<path d="M0 0 C0.98742187 0.32871094 1.97484375 0.65742187 2.9921875 0.99609375 C17.53043364 6.45265626 29.18169785 15.55846277 36 29.6875 C39.71072053 39.47373922 39.31977802 49.96302575 35.26171875 59.57421875 C30.5134962 68.70315436 23.25470975 76.46337757 14 81 C13.34 81 12.68 81 12 81 C19.35059189 89.87140401 30.83147434 91.92304496 41.56152344 94.43017578 C46.34082932 95.54700597 51.11078493 96.69543919 55.875 97.875 C56.82536133 98.09534912 57.77572266 98.31569824 58.75488281 98.54272461 C66.62484038 100.50884149 74.53839421 103.74397883 80 110 C80.6875 112.125 80.6875 112.125 81 115 C81.08765625 115.67417969 81.1753125 116.34835938 81.265625 117.04296875 C81.67987774 122.51298792 80.64548694 125.93717071 77.1015625 130.14453125 C68.74878079 137.51919911 58.20440777 140.38367736 47.33813477 139.71704102 C38.80043704 139.10054519 38.80043704 139.10054519 30.90234375 141.75 C29.33016309 143.30380793 27.80735968 144.90905204 26.3359375 146.55859375 C18.83564548 154.39752772 6.50434328 157.40345346 -3.62817383 160.42822266 C-10.4785952 162.54251033 -16.09713729 164.90784809 -20 171.25 C-22 174 -22 174 -25.25 175.125 C-34.0984294 174.83005235 -39.48208968 169.27437377 -45.265625 163.11328125 C-49.74594704 158.13182922 -53.49026643 152.69556299 -57 147 C-57.67804688 145.90558594 -58.35609375 144.81117188 -59.0546875 143.68359375 C-68.93426739 126.85560674 -78.29174826 102.81948083 -74.4296875 83.0859375 C-73.20873517 78.72906549 -71.86667567 75.5411876 -69 72 C-69.51949219 71.48953125 -70.03898437 70.9790625 -70.57421875 70.453125 C-79.29115857 61.36559439 -83.40248418 50.94591589 -83.27734375 38.41796875 C-82.42954567 27.96975299 -76.18674361 18.70003629 -68.625 11.75 C-50.08306622 -3.77848517 -22.90362145 -7.70734945 0 0 Z M-69.875 16.60546875 C-77.30537415 24.97829845 -80.54555942 33.71364132 -80.30859375 44.87890625 C-79.39243274 54.14488917 -75.21010643 61.24988432 -69 68 C-68.44957031 68.60457031 -67.89914063 69.20914063 -67.33203125 69.83203125 C-54.16773097 82.70572887 -36.15021711 86.46384587 -18.44042969 86.35644531 C-11.27552985 86.19461942 -4.77410054 85.46040444 2 83 C2.84046875 82.73316406 3.6809375 82.46632813 4.546875 82.19140625 C16.70470911 77.94371576 26.90910762 69.28901322 32.9375 57.9375 C36.23521165 50.12312058 36.56162671 40.63508018 33.8125 32.5625 C25.42163215 16.07010456 13.22577552 7.27125709 -4.10668945 1.54736328 C-26.19074633 -4.83722157 -53.356509 0.65751773 -69.875 16.60546875 Z M-67 76 C-72.74572726 83.38736361 -72.92124786 91.01187697 -72 100 C-67.67770169 124.10634755 -55.32984037 153.92013479 -35.0078125 168.73046875 C-31.27553319 171.21695467 -31.27553319 171.21695467 -27 171.9375 C-22.26259631 169.71684202 -19.99865195 164.59689949 -18 160 C-18 159.01 -18 158.02 -18 157 C-17.34 157 -16.68 157 -16 157 C-16 158.65 -16 160.3 -16 162 C-3.50246977 159.78486226 9.09245489 153.3744016 20.125 147.25 C20.76864502 146.89808594 21.41229004 146.54617187 22.07543945 146.18359375 C25.91028898 143.97064262 28.45802693 141.6169368 31 138 C25.81804305 135.08514921 20.58888088 133.09060152 14.9375 131.3125 C14.26525391 131.09827393 13.59300781 130.88404785 12.90039062 130.66333008 C0.21757209 126.77511017 -13.94666052 125.81665774 -26 132 C-29.06274691 134.04048038 -29.06274691 134.04048038 -31 136 C-31.99 135.505 -31.99 135.505 -33 135 C-30.36 133.02 -27.72 131.04 -25 129 C-25.87011719 128.02417969 -26.74023438 127.04835937 -27.63671875 126.04296875 C-31.07503343 122.02202555 -33.98451756 117.77778466 -36.8125 113.3125 C-37.33384521 112.49813477 -37.85519043 111.68376953 -38.39233398 110.84472656 C-42.11411943 104.86110463 -44.90829919 98.76381078 -47.5625 92.25 C-50.64643096 84.8016548 -53.22268753 80.66081059 -60.51953125 76.828125 C-63.19651326 75.78888276 -63.19651326 75.78888276 -67 76 Z M0.625 85.4375 C-6.74110777 88.13146521 -13.92661472 88.21169828 -21.6875 88.25 C-22.71294922 88.270625 -23.73839844 88.29125 -24.79492188 88.3125 C-31.17485887 88.34474226 -36.64329759 87.56972432 -42.73364258 85.64746094 C-45.08792786 84.86265312 -45.08792786 84.86265312 -48 85 C-44.77680598 95.99677959 -40.07432997 106.72873515 -32 115 C-31.09765625 114.6390625 -30.1953125 114.278125 -29.265625 113.90625 C-12.60618471 107.86276074 5.61567499 108.91100305 23 111 C18.42024584 107.28736841 13.69067731 103.80247379 8.9375 100.31640625 C6.03393226 98.02675775 3.55428056 95.66227404 1 93 C1.70084717 93.43868408 2.40169434 93.87736816 3.1237793 94.3293457 C5.74203881 95.96789735 8.36055732 97.60603409 10.97924805 99.24389648 C12.66279598 100.29704631 14.34604865 101.35066809 16.02929688 102.40429688 C17.09599609 103.07138672 18.16269531 103.73847656 19.26171875 104.42578125 C20.24100342 105.03848877 21.22028809 105.65119629 22.22924805 106.2824707 C23.14359619 106.84925537 24.05794434 107.41604004 25 108 C25.85658203 108.57169922 26.71316406 109.14339844 27.59570312 109.73242188 C30.21838977 111.11513807 31.32301317 111.27376145 34.20703125 110.85546875 C34.95791016 110.75556641 35.70878906 110.65566406 36.48242188 110.55273438 C37.25134766 110.43220703 38.02027344 110.31167969 38.8125 110.1875 C39.60076172 110.07857422 40.38902344 109.96964844 41.20117188 109.85742188 C43.13641913 109.58766014 45.06859085 109.29599324 47 109 C41.93373356 111.64827564 38.11514816 113.12461651 32.41015625 113.1328125 C31.10981445 113.13474609 31.10981445 113.13474609 29.78320312 113.13671875 C28.88537109 113.13285156 27.98753906 113.12898438 27.0625 113.125 C26.16853516 113.12886719 25.27457031 113.13273437 24.35351562 113.13671875 C23.48533203 113.13542969 22.61714844 113.13414062 21.72265625 113.1328125 C20.54328491 113.13112061 20.54328491 113.13112061 19.34008789 113.12939453 C16.81462596 112.98974979 14.47810984 112.49610014 12 112 C-1.69107909 111.04318177 -16.42163423 110.71081711 -29 117 C-28.37224433 118.35208914 -27.69580267 119.68163705 -27 121 C-26.66613281 121.70640625 -26.33226562 122.4128125 -25.98828125 123.140625 C-23.64378337 125.33312203 -23.09722082 125.25967558 -20 125.25 C-18.33278358 125.17850441 -16.66608095 125.09432127 -15 125 C2.09853552 124.55337339 17.2433611 129.36088164 33.125 135.30737305 C43.04252721 138.97091793 56.28151952 138.39656707 65.90234375 134.12890625 C71.34079698 131.20206643 74.73694886 127.74839193 77 122 C77.70415036 117.0709475 76.96565405 113.67323453 74.3046875 109.5625 C67.76466979 101.73014346 54.42381832 100.31588924 45 98 C33.98291819 95.27126236 23.89857506 92.35952439 14.02319336 86.64160156 C9.0698922 83.81420082 5.93365598 83.49099281 0.625 85.4375 Z " fill="#E4E6ED" transform="translate(165,88)"/>
<path d="M0 0 C3.6479641 1.21598803 4.10930982 2.61116337 5.80355835 5.91381836 C6.14424347 6.6022583 6.48492859 7.29069824 6.8359375 8 C7.19716705 8.70970947 7.55839661 9.41941895 7.93057251 10.15063477 C9.08803608 12.42917566 10.23187735 14.71423582 11.375 17 C12.51141915 19.25111406 13.65061562 21.50080415 14.79034424 23.75024414 C15.52383991 25.19808501 16.25623756 26.64648273 16.98748779 28.09545898 C19.53755329 33.13566484 22.20066813 38.09280469 25 43 C34.47945106 43 41.85825156 38.38555529 50 34 C48.09066016 45.68214509 46.03629396 57.33947532 44 69 C43.39019287 68.59152832 42.78038574 68.18305664 42.15209961 67.76220703 C41.34780518 67.22450684 40.54351074 66.68680664 39.71484375 66.1328125 C38.91941162 65.60059082 38.12397949 65.06836914 37.30444336 64.52001953 C31.17527351 60.47719598 24.93346764 57.45560312 18 55 C17.02160156 54.6390625 16.04320312 54.278125 15.03515625 53.90625 C9.31923616 52.3240685 3.32044051 52.61723733 -2.5625 52.625 C-4.44352417 52.62741699 -4.44352417 52.62741699 -6.36254883 52.62988281 C-15.23089424 52.74752001 -22.76875701 53.49935643 -31 57 C-31.8971875 57.3815625 -32.794375 57.763125 -33.71875 58.15625 C-35.23661121 58.82872016 -36.74387832 59.52659343 -38.23046875 60.265625 C-40 61 -40 61 -43 61 C-43.67635064 57.79363027 -44.33932448 54.58463311 -45 51.375 C-45.19078125 50.47136719 -45.3815625 49.56773438 -45.578125 48.63671875 C-46.52210398 44.01796444 -47.25214768 39.74352828 -47 35 C-41.60855393 36.65273496 -36.93729889 39.07058472 -32 41.7578125 C-27.60521237 43.62618835 -27.60521237 43.62618835 -23 43 C-20.43150639 39.99670031 -18.78676544 36.50612533 -17 33 C-16.31297138 31.6929228 -15.6244052 30.386653 -14.93457031 29.08105469 C-12.63082765 24.69620902 -10.37645091 20.28685748 -8.125 15.875 C-7.33364865 14.33056756 -6.54198428 12.78629547 -5.75 11.2421875 C-3.82972305 7.49662872 -1.91368324 3.74893162 0 0 Z " fill="#A4CFE8" transform="translate(145,31)"/>
<path d="M0 0 C0.66 0 1.32 0 2 0 C3.36656253 1.57980635 4.66735132 3.21668653 5.9375 4.875 C12.88963044 13.54288058 20.86234054 20.58434474 30.19921875 26.625 C30.79347656 27.07875 31.38773438 27.5325 32 28 C32 28.66 32 29.32 32 30 C18.2393194 30.73137476 6.71640405 27.02078336 -5 20 C-6.32 18.68 -7.64 17.36 -9 16 C-6.03 10.72 -3.06 5.44 0 0 Z " fill="#E8EAEE" transform="translate(120,127)"/>
<path d="M0 0 C1.32 5.61 2.64 11.22 4 17 C-7.1383976 17.26519994 -17.94161479 16.23483464 -29 15 C-26.59139822 12.52266748 -24.11810251 10.62480527 -21.25 8.6875 C-18.00626442 6.48589076 -15.19858623 4.27401872 -12.4375 1.5 C-8.42351843 -2.1298685 -5.04644881 -1.08692744 0 0 Z " fill="#A4CFE7" transform="translate(209,230)"/>
<path d="M0 0 C0.99 0.33 1.98 0.66 3 1 C3.6193203 16.48300745 2.50073089 28.71371973 -8 41 C-11.98934739 45.01968464 -16.10091063 48.16056239 -21 51 C-10.93662085 56.22494081 -1.977833 60.37157231 9.3125 62.1875 C19.42931558 63.8458537 28.64469812 67.93881726 38 72 C37.505 73.485 37.505 73.485 37 75 C36.15695313 74.54560547 36.15695313 74.54560547 35.296875 74.08203125 C24.70546351 68.80257 13.13680166 66.55931097 1.64453125 64.04296875 C-7.51146914 61.98579731 -16.11789037 59.20904636 -24 54 C-25.3828125 51.78125 -25.3828125 51.78125 -26 50 C-25.3709375 49.6596875 -24.741875 49.319375 -24.09375 48.96875 C-13.37082488 42.89673216 -6.05463523 35.55086472 -1.87109375 23.83984375 C-0.81166695 19.16981441 -0.81730224 14.88920212 -0.9375 10.125 C-0.97176525 8.4193521 -1.00194386 6.71361545 -1.02734375 5.0078125 C-1.05429321 3.88850342 -1.05429321 3.88850342 -1.08178711 2.74658203 C-1 1 -1 1 0 0 Z " fill="#303971" transform="translate(203,119)"/>
<path d="M0 0 C1.92856587 2.89284881 2.92671344 5.38208462 4.125 8.625 C6.66615703 14.89776601 10.20612418 19.28939249 15 24 C14.071875 25.2375 14.071875 25.2375 13.125 26.5 C8.03922519 34.27293951 7.75879335 44.25987176 9.40283203 53.1875 C13.15110001 70.27296407 19.46243505 85.79946671 28 101 C28.495 101.99 28.495 101.99 29 103 C27.02 103.495 27.02 103.495 25 104 C13.40798965 82.9540612 0.34762219 57.68062026 6.3515625 32.96875 C7.19459838 30.40917119 8.61876289 28.30206185 10 26 C9.60191428 22.40971747 7.9078544 20.39899162 5.625 17.6875 C1.78684737 12.87006563 -1.27180005 8.98980053 -0.6875 2.5625 C-0.460625 1.716875 -0.23375 0.87125 0 0 Z " fill="#2E376E" transform="translate(82,136)"/>
<path d="M0 0 C0.66 0 1.32 0 2 0 C4.23355397 5.74342448 6.20884563 10.85503471 5 17 C-0.36548974 22.45183095 -8.48280563 25.72343708 -16.0625 26.1875 C-17.0215625 26.0946875 -17.0215625 26.0946875 -18 26 C-16.70398945 23.21984834 -15.27641378 20.93308649 -13.3203125 18.57421875 C-12.54494141 17.62579102 -12.54494141 17.62579102 -11.75390625 16.65820312 C-10.67689407 15.35519918 -9.59878686 14.05309949 -8.51953125 12.75195312 C-5.19668631 8.682911 -2.48159265 4.63350513 0 0 Z " fill="#E9EBF0" transform="translate(184,130)"/>
<path d="M0 0 C5.37745702 2.75519146 10.4641482 5.55328253 15.328125 9.140625 C23.599697 15.0926923 29.70777823 19.32012156 40.1875 17.75 C42.84159969 17.27244196 45.38819964 16.68649472 48 16 C44.73397389 19.91923133 41.97598068 21.02382673 37 22 C33.61867956 22.23751919 30.26306839 22.23504306 26.875 22.1875 C25.99457031 22.18685547 25.11414063 22.18621094 24.20703125 22.18554688 C19.97321094 22.15681054 16.14733125 21.8697064 12 21 C8.7329452 20.73391341 5.46172489 20.58643939 2.1875 20.4375 C0.86202148 20.37272461 0.86202148 20.37272461 -0.49023438 20.30664062 C-2.65999623 20.20108464 -4.8299791 20.10008929 -7 20 C-7 19.67 -7 19.34 -7 19 C-2.38 19 2.24 19 7 19 C7 18.34 7 17.68 7 17 C13.93 17.495 13.93 17.495 21 18 C20.07058594 17.34773438 19.14117187 16.69546875 18.18359375 16.0234375 C4.84683913 6.61603726 4.84683913 6.61603726 0 2 C0 1.34 0 0.68 0 0 Z " fill="#E5E6EC" transform="translate(165,180)"/>
<path d="M0 0 C1.2281543 0.00354492 2.45630859 0.00708984 3.72167969 0.01074219 C13.14076159 0.18281437 20.66701155 1.46152191 29.1875 5.5 C30.35152344 5.98339844 30.35152344 5.98339844 31.5390625 6.4765625 C37.03459463 8.91666364 41.57339286 12.69763393 46.1875 16.5 C46.8475 14.19 47.5075 11.88 48.1875 9.5 C48.5175 9.5 48.8475 9.5 49.1875 9.5 C49.38323608 10.93640171 49.56877816 12.37419504 49.75 13.8125 C49.90662109 15.01326172 49.90662109 15.01326172 50.06640625 16.23828125 C50.1875 18.5 50.1875 18.5 49.1875 21.5 C48.44886719 20.90832031 47.71023437 20.31664063 46.94921875 19.70703125 C32.56355587 8.50193424 17.68958189 3.32483249 -0.5625 3.3125 C-1.5009375 3.30025391 -2.439375 3.28800781 -3.40625 3.27539062 C-17.76345163 3.24564504 -30.94717096 7.35712713 -42.8125 15.5 C-43.4725 14.84 -44.1325 14.18 -44.8125 13.5 C-41.17142616 10.34893983 -37.67378837 8.32478173 -33.25 6.4375 C-32.13496094 5.95152344 -31.01992187 5.46554688 -29.87109375 4.96484375 C-20.01024019 1.20287017 -10.51725049 -0.05479237 0 0 Z " fill="#2D386E" transform="translate(141.8125,82.5)"/>
<path d="M0 0 C0.33 0.66 0.66 1.32 1 2 C1.87736816 1.98428955 1.87736816 1.98428955 2.77246094 1.96826172 C5.43159663 1.92659736 8.09066353 1.90064099 10.75 1.875 C11.67039063 1.85824219 12.59078125 1.84148437 13.5390625 1.82421875 C14.87324219 1.81455078 14.87324219 1.81455078 16.234375 1.8046875 C17.05131836 1.79421387 17.86826172 1.78374023 18.70996094 1.77294922 C21.21887518 2.02170084 22.83395625 2.74299871 25 4 C25 4.66 25 5.32 25 6 C24.04480469 6.02578125 23.08960938 6.0515625 22.10546875 6.078125 C11.38467746 6.54842891 2.47952025 7.84540479 -6 15 C-6.99 14.67 -7.98 14.34 -9 14 C-6.33333333 11.33333333 -3.66666667 8.66666667 -1 6 C-1.7425 5.319375 -1.7425 5.319375 -2.5 4.625 C-4 3 -4 3 -4 1 C-2 0 -2 0 0 0 Z " fill="#F1F2F5" transform="translate(140,210)"/>
<path d="M0 0 C3.76438669 1.54902349 6.02612334 3.88570751 8.8125 6.8125 C12.65410682 10.74516713 16.40289792 14.00188995 21 17 C15.794757 18.735081 10.91752382 16.01576853 6 14 C2.55186375 12.16188846 -0.74513751 10.16030696 -4 8 C-2.87548273 5.0280615 -1.77706209 2.66559313 0 0 Z " fill="#2D326D" transform="translate(121,135)"/>
<path d="M0 0 C0.97646484 0.00322266 1.95292969 0.00644531 2.95898438 0.00976562 C3.96638672 0.01814453 4.97378906 0.02652344 6.01171875 0.03515625 C7.03845703 0.03966797 8.06519531 0.04417969 9.12304688 0.04882812 C11.64849757 0.06057441 14.1738278 0.0770006 16.69921875 0.09765625 C16.69921875 0.75765625 16.69921875 1.41765625 16.69921875 2.09765625 C15.47912109 2.13632813 15.47912109 2.13632813 14.234375 2.17578125 C5.6296927 2.60165979 -2.25722952 4.04862502 -10.5859375 6.16015625 C-14.30078125 7.09765625 -14.30078125 7.09765625 -17.234375 7.59765625 C-17.91628906 7.76265625 -18.59820312 7.92765625 -19.30078125 8.09765625 C-19.63078125 8.75765625 -19.96078125 9.41765625 -20.30078125 10.09765625 C-20.96078125 8.77765625 -21.62078125 7.45765625 -22.30078125 6.09765625 C-20.40745591 5.27932903 -18.51100392 4.46823357 -16.61328125 3.66015625 C-15.55753906 3.20769531 -14.50179687 2.75523437 -13.4140625 2.2890625 C-8.87889453 0.55352143 -4.84222296 -0.02831709 0 0 Z " fill="#E8E9F0" transform="translate(155.30078125,196.90234375)"/>
<path d="M0 0 C0 0.66 0 1.32 0 2 C-1.74906531 2.64836042 -3.49929219 3.29358784 -5.25 3.9375 C-6.22453125 4.29714844 -7.1990625 4.65679687 -8.203125 5.02734375 C-12.19826648 6.41671558 -15.52400008 7.12484615 -19.765625 7.09765625 C-20.65507812 7.09443359 -21.54453125 7.09121094 -22.4609375 7.08789062 C-23.38132813 7.07951172 -24.30171875 7.07113281 -25.25 7.0625 C-26.18585938 7.05798828 -27.12171875 7.05347656 -28.0859375 7.04882812 C-30.39069041 7.03706918 -32.69531227 7.02063426 -35 7 C-35.66 5.68 -36.32 4.36 -37 3 C-36.3201001 3.01571045 -35.6402002 3.0314209 -34.93969727 3.04760742 C-31.81405185 3.11055057 -28.68854042 3.14917726 -25.5625 3.1875 C-24.49322266 3.21263672 -23.42394531 3.23777344 -22.32226562 3.26367188 C-16.35666179 3.31840219 -11.46534894 2.92229858 -5.91772461 0.6496582 C-4 0 -4 0 0 0 Z " fill="#E1E4EA" transform="translate(235,221)"/>
<path d="M0 0 C0 0.33 0 0.66 0 1 C-0.55349121 1.01981934 -1.10698242 1.03963867 -1.67724609 1.06005859 C-19.77230933 1.74168324 -35.60728189 3.43636993 -51 14 C-51.66 13.34 -52.32 12.68 -53 12 C-47.34102066 7.10260293 -40.89824358 4.64125262 -34 2 C-33.07316406 1.64164062 -32.14632812 1.28328125 -31.19140625 0.9140625 C-21.12288509 -2.27162344 -10.37137792 -0.79045072 0 0 Z " fill="#2B366D" transform="translate(150,84)"/>
<path d="M0 0 C0.33 0 0.66 0 1 0 C1.87184104 5.66696677 -0.42569953 8.75356018 -3.4921875 13.2421875 C-4.23855469 14.11230469 -4.23855469 14.11230469 -5 15 C-5.66 15 -6.32 15 -7 15 C-7 15.66 -7 16.32 -7 17 C-6.34 17 -5.68 17 -5 17 C-5 17.66 -5 18.32 -5 19 C-8.50776784 20.60355101 -11.14354879 21.22036864 -15 21 C-13.67847038 18.16005902 -12.19476392 15.82187818 -10.21484375 13.3984375 C-9.68439453 12.74359375 -9.15394531 12.08875 -8.60742188 11.4140625 C-8.05634766 10.74117187 -7.50527344 10.06828125 -6.9375 9.375 C-5.84083397 8.02996014 -4.74570667 6.68366378 -3.65234375 5.3359375 C-3.16757568 4.74345215 -2.68280762 4.1509668 -2.18334961 3.54052734 C-0.91776563 1.99403139 -0.91776563 1.99403139 0 0 Z " fill="#E9EAEF" transform="translate(181,135)"/>
<path d="M0 0 C0.66 0 1.32 0 2 0 C3.49629179 1.6785513 4.92292661 3.41958898 6.3125 5.1875 C9.35046291 9.04040033 12.47332727 12.58568145 16 16 C15.67 16.66 15.34 17.32 15 18 C9.80546349 16.58330822 6.33817117 13.07891809 3 9 C3 8.34 3 7.68 3 7 C1.02 7.33 -0.96 7.66 -3 8 C-2.45276317 4.62537285 -1.9451 2.91765 0 0 Z " fill="#EAECF0" transform="translate(120,127)"/>
<path d="M0 0 C1.78535439 2.67803158 2.85469949 5.02221867 4 8 C4.33 8.66 4.66 9.32 5 10 C4.34 10 3.68 10 3 10 C3 10.66 3 11.32 3 12 C3.99 12.66 4.98 13.32 6 14 C2.37 14.33 -1.26 14.66 -5 15 C-3.91463082 9.48966417 -2.78609311 4.93898323 0 0 Z " fill="#9DC4E1" transform="translate(84,232)"/>
<path d="M0 0 C-3.43554252 2.13911138 -5.54973116 1.9672361 -9.5 1.5 C-16.67982526 1.3336382 -20.29256106 4.84229616 -25.23828125 9.4375 C-28.66531814 12.61732489 -31.83589489 14.88142021 -36 17 C-39 16.8125 -39 16.8125 -41 16 C-38.35411724 14.23607816 -35.76872392 12.86736992 -32.9375 11.4375 C-28.54815388 9.13695614 -25.69301339 6.71629862 -22.375 3.0625 C-15.90521653 -3.21823136 -8.23231112 -1.30838355 0 0 Z " fill="#2A356B" transform="translate(216,228)"/>
<path d="M0 0 C-0.33 0.99 -0.66 1.98 -1 3 C-7.87113265 5.74168347 -15.29795882 6.27650517 -22.625 6.3125 C-23.31150635 6.31789795 -23.9980127 6.3232959 -24.70532227 6.32885742 C-28.34441875 6.27669538 -29.89235429 6.07176381 -33 4 C-31.99582031 3.96261719 -30.99164063 3.92523438 -29.95703125 3.88671875 C-21.93251153 3.52295367 -14.47679677 2.69118087 -6.671875 0.62109375 C-4 0 -4 0 0 0 Z " fill="#ECF0F3" transform="translate(169,171)"/>
<path d="M0 0 C0.99 0.33 1.98 0.66 3 1 C3.05401695 3.91691525 3.09368066 6.83282724 3.125 9.75 C3.15013672 10.9875 3.15013672 10.9875 3.17578125 12.25 C3.18222656 13.04921875 3.18867188 13.8484375 3.1953125 14.671875 C3.20578613 15.4050293 3.21625977 16.13818359 3.22705078 16.89355469 C2.96024185 19.36885304 2.3306993 20.90029251 1 23 C0.01 23.66 -0.98 24.32 -2 25 C-1.835 24.37609375 -1.67 23.7521875 -1.5 23.109375 C-0.80841125 18.80855749 -0.93482897 14.59690769 -1 10.25 C-1.02538877 8.52610274 -1.0464627 6.80213462 -1.0625 5.078125 C-1.07410156 4.31918945 -1.08570313 3.56025391 -1.09765625 2.77832031 C-1 1 -1 1 0 0 Z " fill="#313D74" transform="translate(203,119)"/>
<path d="M0 0 C0 0.33 0 0.66 0 1 C2.97 1.33 5.94 1.66 9 2 C9 2.33 9 2.66 9 3 C7.47632813 3.07347656 7.47632813 3.07347656 5.921875 3.1484375 C-2.50693339 3.5930859 -10.69829465 4.38053854 -19 6 C-19.66 5.01 -20.32 4.02 -21 3 C-13.96901335 0.42768781 -7.40782155 -0.12996178 0 0 Z " fill="#DDDDE8" transform="translate(138,85)"/>
<path d="M0 0 C0.66 0.33 1.32 0.66 2 1 C2.45760607 6.7200759 1.63848132 9.55296727 -2 14 C-4.25 15.875 -4.25 15.875 -6 17 C-7.32 16.34 -8.64 15.68 -10 15 C-8.88625 13.948125 -8.88625 13.948125 -7.75 12.875 C-4.13612049 9.09685324 -0.81651764 5.30736469 0 0 Z " fill="#E2E4EA" transform="translate(243,205)"/>
<path d="M0 0 C-3.49937606 4.26010999 -7.8576271 6.29475717 -13 8 C-16.5625 8.25 -16.5625 8.25 -19 8 C-19 7.34 -19 6.68 -19 6 C-16.58967749 4.79783666 -14.17316521 3.61325022 -11.75 2.4375 C-11.06808594 2.09525391 -10.38617188 1.75300781 -9.68359375 1.40039062 C-5.97831091 -0.38030356 -3.92128522 -1.3058334 0 0 Z " fill="#E6E8EF" transform="translate(188,236)"/>
<path d="M0 0 C2.17528543 0.17542624 4.34993318 0.37151537 6.515625 0.640625 C11.2118933 1.12499348 15.90997832 1.34123688 20.625 1.5625 C21.99567627 1.62787964 21.99567627 1.62787964 23.39404297 1.69458008 C25.59594085 1.79845104 27.79790933 1.90031293 30 2 C30 2.33 30 2.66 30 3 C23.565 3.495 23.565 3.495 17 4 C17 4.33 17 4.66 17 5 C10.1781317 5.38614349 4.50422293 4.00865708 -2 2 C-1.34 1.34 -0.68 0.68 0 0 Z " fill="#D8DAE4" transform="translate(122,172)"/>
<path d="M0 0 C0.66 0.268125 1.32 0.53625 2 0.8125 C1.01 1.1425 0.02 1.4725 -1 1.8125 C-0.67 2.8025 -0.34 3.7925 0 4.8125 C-0.66 4.8125 -1.32 4.8125 -2 4.8125 C-1.67 6.7925 -1.34 8.7725 -1 10.8125 C-5.43090471 9.60407144 -7.98112756 8.29581435 -11 4.8125 C-3.9452954 -0.24658096 -3.9452954 -0.24658096 0 0 Z " fill="#9FC7E2" transform="translate(192,164.1875)"/>
<path d="M0 0 C2 1 2 1 2.67578125 2.64453125 C2.99095703 3.71767578 2.99095703 3.71767578 3.3125 4.8125 C5.15599123 10.70406992 7.57246718 16.32936009 10 22 C8.12231445 21.71386719 8.12231445 21.71386719 6 21 C4.51369044 18.40118328 3.32962054 15.99302099 2.1875 13.25 C1.86330078 12.53328125 1.53910156 11.8165625 1.20507812 11.078125 C-0.52914223 7.03780006 -1.53175758 4.34711091 0 0 Z " fill="#DADDE9" transform="translate(116,172)"/>
<path d="M0 0 C2.95183101 2.95183101 3.08663988 5.95511947 4 10 C1.03 9.505 1.03 9.505 -2 9 C-2.33 9.66 -2.66 10.32 -3 11 C-3.99 11.66 -4.98 12.32 -6 13 C-6.71484375 11.296875 -6.71484375 11.296875 -7 9 C-5.56640625 6.640625 -5.56640625 6.640625 -3.5625 4.25 C-2.57443359 3.05117187 -2.57443359 3.05117187 -1.56640625 1.828125 C-1.04949219 1.22484375 -0.53257812 0.6215625 0 0 Z " fill="#A5D0E9" transform="translate(219,104)"/>
<path d="M0 0 C0.66 0 1.32 0 2 0 C2.49062345 3.12772449 2.69470128 5.8945816 2 9 C-0.32863625 11.37648494 -2.85976481 12.90280939 -6 14 C-6.66 13.67 -7.32 13.34 -8 13 C-6.716961 10.82778513 -5.42427887 8.6624676 -4.125 6.5 C-3.76019531 5.87996094 -3.39539063 5.25992188 -3.01953125 4.62109375 C-2.0677482 3.04632542 -1.03889741 1.51870947 0 0 Z " fill="#31366D" transform="translate(183,137)"/>
<path d="M0 0 C0.33 0 0.66 0 1 0 C1.16898112 5.35810969 0.56511422 10.19349172 -0.5 15.4375 C-0.71462891 16.53481445 -0.71462891 16.53481445 -0.93359375 17.65429688 C-1.28321296 19.43735486 -1.64077688 21.21885203 -2 23 C-2.66 23 -3.32 23 -4 23 C-4.48661855 14.37603795 -3.92480024 7.76199333 0 0 Z " fill="#DFE1E9" transform="translate(86,113)"/>
<path d="M0 0 C7.92 0 15.84 0 24 0 C24 0.33 24 0.66 24 1 C22.88625 1.185625 22.88625 1.185625 21.75 1.375 C19.06403286 1.83990411 19.06403286 1.83990411 17.1875 3.0625 C13.19979319 4.7715172 8.99686091 4.65057804 4.92578125 3.32421875 C3.25669666 2.60986409 1.62385861 1.8119293 0 1 C0 0.67 0 0.34 0 0 Z " fill="#353A72" transform="translate(153,200)"/>
<path d="M0 0 C1.13238624 3.39715873 0.74723966 5.53910051 0 9 C-0.36148102 11.10292246 -0.71546356 13.20714561 -1.0625 15.3125 C-1.32740234 16.91544922 -1.32740234 16.91544922 -1.59765625 18.55078125 C-1.73042969 19.35902344 -1.86320312 20.16726562 -2 21 C-2.33 21 -2.66 21 -3 21 C-3.33 22.65 -3.66 24.3 -4 26 C-4.33 26 -4.66 26 -5 26 C-5.3957982 16.64743517 -5.33742037 8.00613056 0 0 Z " fill="#D0D1E2" transform="translate(95,161)"/>
<path d="M0 0 C0.33 1.98 0.66 3.96 1 6 C1.99 5.67 2.98 5.34 4 5 C4 5.66 4 6.32 4 7 C3.01 7 2.02 7 1 7 C1 7.99 1 8.98 1 10 C-2.17538332 9.65978036 -3.02276865 8.97533396 -5.25 6.5625 C-7 4 -7 4 -7 2 C-2.25 0 -2.25 0 0 0 Z " fill="#3A3F78" transform="translate(143,203)"/>
<path d="M0 0 C0.33 0.66 0.66 1.32 1 2 C1.66 2 2.32 2 3 2 C4.625 4 4.625 4 6 6 C5.01 6.99 4.02 7.98 3 9 C-0.33333333 7.66666667 -3.66666667 6.33333333 -7 5 C-2.25 1.125 -2.25 1.125 0 0 Z " fill="#A0C7E1" transform="translate(241,184)"/>
<path d="M0 0 C-3.86373815 2.57582543 -7.9830668 3.69702849 -12.375 5.05664062 C-16.25988841 6.29872148 -19.59744179 7.7469547 -23 10 C-23 8.68 -23 7.36 -23 6 C-20.29870231 4.79374123 -17.5908864 3.61006608 -14.875 2.4375 C-14.11445313 2.09525391 -13.35390625 1.75300781 -12.5703125 1.40039062 C-7.97114545 -0.56218497 -4.99898771 -1.46136542 0 0 Z " fill="#D7DBE5" transform="translate(172,244)"/>
<path d="M0 0 C0 0.66 0 1.32 0 2 C-9.68612916 6.9710751 -18.52972624 6.05969767 -29 5 C-29 4.67 -29 4.34 -29 4 C-27.94941406 3.96261719 -26.89882812 3.92523438 -25.81640625 3.88671875 C-15.58273269 3.46844848 -15.58273269 3.46844848 -5.796875 0.62109375 C-4 0 -4 0 0 0 Z " fill="#CCCFDC" transform="translate(235,221)"/>
<path d="M0 0 C-2.61514317 2.12038635 -5.19637616 4.13091744 -8 6 C-7.34 6.45375 -6.68 6.9075 -6 7.375 C-5.34 7.91125 -4.68 8.4475 -4 9 C-4 9.66 -4 10.32 -4 11 C-7.78786597 10.4739075 -10.17152224 9.61896089 -13 7 C-13 6.34 -13 5.68 -13 5 C-10.91796875 3.45703125 -10.91796875 3.45703125 -8.1875 1.8125 C-7.29417969 1.26207031 -6.40085938 0.71164063 -5.48046875 0.14453125 C-3 -1 -3 -1 0 0 Z " fill="#313C70" transform="translate(190,164)"/>
<path d="M0 0 C3.66060821 0.58536753 5.54535164 2.083239 8.25 4.5625 C8.95640625 5.20316406 9.6628125 5.84382812 10.390625 6.50390625 C10.92171875 6.99761719 11.4528125 7.49132812 12 8 C10.35 9.98 8.7 11.96 7 14 C6.34 13.67 5.68 13.34 5 13 C5.28875 12.319375 5.5775 11.63875 5.875 10.9375 C6.02680156 7.3701634 5.35308889 6.85172275 3.0625 4.25 C2.49660156 3.65703125 1.93070312 3.0640625 1.34765625 2.453125 C0 1 0 1 0 0 Z " fill="#EFF0F5" transform="translate(90,152)"/>
<path d="M0 0 C2.44413389 3.08269139 4.33109524 6.28471111 6.1875 9.75 C6.71730469 10.73484375 7.24710938 11.7196875 7.79296875 12.734375 C8.19128906 13.48203125 8.58960937 14.2296875 9 15 C7.68 15.33 6.36 15.66 5 16 C2.69 11.38 0.38 6.76 -2 2 C-1.34 2 -0.68 2 0 2 C0 1.34 0 0.68 0 0 Z " fill="#364075" transform="translate(102,224)"/>
<path d="M0 0 C1.20366211 0.00483398 1.20366211 0.00483398 2.43164062 0.00976562 C3.68170898 0.02233398 3.68170898 0.02233398 4.95703125 0.03515625 C5.80201172 0.03966797 6.64699219 0.04417969 7.51757812 0.04882812 C9.6015928 0.06060222 11.68557102 0.07853735 13.76953125 0.09765625 C13.76953125 0.75765625 13.76953125 1.41765625 13.76953125 2.09765625 C2.87953125 2.59265625 2.87953125 2.59265625 -8.23046875 3.09765625 C-6.49780437 -0.36767252 -3.47924994 -0.02467553 0 0 Z " fill="#F9FBFD" transform="translate(158.23046875,196.90234375)"/>
<path d="M0 0 C1.84790538 3.31016094 2.74541487 6.57173491 3.625 10.25 C3.88539062 11.32765625 4.14578125 12.4053125 4.4140625 13.515625 C4.60742188 14.33546875 4.80078125 15.1553125 5 16 C3.68 16 2.36 16 1 16 C0.44276981 13.89990127 -0.09531745 11.79471535 -0.625 9.6875 C-1.07746094 7.92986328 -1.07746094 7.92986328 -1.5390625 6.13671875 C-2 3 -2 3 0 0 Z " fill="#3C4479" transform="translate(91,192)"/>
<path d="M0 0 C2.31 0 4.62 0 7 0 C6.10085301 1.51056694 5.18003899 3.00825429 4.25 4.5 C3.73953125 5.3353125 3.2290625 6.170625 2.703125 7.03125 C2.14109375 7.6809375 1.5790625 8.330625 1 9 C-0.32 9 -1.64 9 -3 9 C-3.33 9.66 -3.66 10.32 -4 11 C-4.33 10.34 -4.66 9.68 -5 9 C-4.00390625 6.8359375 -4.00390625 6.8359375 -2.5625 4.375 C-2.08941406 3.55773437 -1.61632812 2.74046875 -1.12890625 1.8984375 C-0.75636719 1.27195313 -0.38382812 0.64546875 0 0 Z " fill="#E2E4EA" transform="translate(116,134)"/>
<path d="M0 0 C2.84565811 0.35727426 3.86744708 0.85710012 5.8515625 2.99609375 C6.43679687 3.80175781 7.02203125 4.60742188 7.625 5.4375 C9.34911681 7.7827506 10.94045673 9.94045673 13 12 C12.67 12.99 12.34 13.98 12 15 C10.55935235 13.58653438 9.12260985 12.16908789 7.6875 10.75 C6.88699219 9.96109375 6.08648437 9.1721875 5.26171875 8.359375 C0 2.87046632 0 2.87046632 0 0 Z " fill="#DEE1EA" transform="translate(114,242)"/>
<path d="M0 0 C0.804375 0.474375 1.60875 0.94875 2.4375 1.4375 C0.12436216 2.97959189 -2.02298029 4.22038475 -4.5 5.4375 C-5.16902344 5.7675 -5.83804688 6.0975 -6.52734375 6.4375 C-7.53474609 6.9325 -7.53474609 6.9325 -8.5625 7.4375 C-9.89629533 8.10324186 -11.2297635 8.76964099 -12.5625 9.4375 C-12.5625 6.4375 -12.5625 6.4375 -10.8046875 4.54296875 C-4.34997645 -0.68683839 -4.34997645 -0.68683839 0 0 Z " fill="#ECEDF2" transform="translate(144.5625,215.5625)"/>
<path d="M0 0 C-5.59675416 4.92514366 -11.89909367 5.24915461 -19 5 C-19 4.67 -19 4.34 -19 4 C-17.35 3.67 -15.7 3.34 -14 3 C-14 2.34 -14 1.68 -14 1 C-12.04310963 0.63794536 -10.08442332 0.28558579 -8.125 -0.0625 C-7.03445312 -0.25972656 -5.94390625 -0.45695313 -4.8203125 -0.66015625 C-2 -1 -2 -1 0 0 Z " fill="#C2C6D7" transform="translate(213,197)"/>
<path d="M0 0 C1.04449911 3.13349732 0.93423645 3.98968256 0 7 C-4.00200378 8.60080151 -7.04556236 7.29279692 -11 6 C-8.61542052 4.41028035 -6.3695876 3.13258407 -3.8125 1.875 C-3.09707031 1.52179688 -2.38164062 1.16859375 -1.64453125 0.8046875 C-1.10183594 0.53914062 -0.55914062 0.27359375 0 0 Z " fill="#333871" transform="translate(185,149)"/>
<path d="M0 0 C2.475 0.495 2.475 0.495 5 1 C6.20568053 5.67201205 6.09382426 10.21496292 6 15 C5.67 15 5.34 15 5 15 C4.67 13.02 4.34 11.04 4 9 C3.01 10.485 3.01 10.485 2 12 C1.34 8.04 0.68 4.08 0 0 Z " fill="#D7DAE3" transform="translate(240,197)"/>
<path d="M0 0 C5.28 1.32 10.56 2.64 16 4 C11.80793942 6.09603029 11.25423552 6.20979704 7 5.25 C5.7315625 4.97929687 5.7315625 4.97929687 4.4375 4.703125 C2.10268399 4.02962038 0.12760344 3.16230188 -2 2 C-1.34 2 -0.68 2 0 2 C0 1.34 0 0.68 0 0 Z " fill="#D6D7E4" transform="translate(216,185)"/>
<path d="M0 0 C1.67180274 0.94934513 3.33733936 1.90973313 5 2.875 C5.928125 3.40867187 6.85625 3.94234375 7.8125 4.4921875 C8.8953125 5.23855469 8.8953125 5.23855469 10 6 C10 6.66 10 7.32 10 8 C11.32 8.33 12.64 8.66 14 9 C8.23375307 8.6023278 4.51436304 7.95006766 0 4 C0 2.68 0 1.36 0 0 Z " fill="#D9DCE5" transform="translate(127,254)"/>
<path d="M0 0 C-0.375 2.9375 -0.375 2.9375 -1 6 C-4.21451269 7.60725635 -7.43612536 7.05748185 -11 7 C-8.21677024 3.90752249 -4.31039412 0 0 0 Z " fill="#9CC1DD" transform="translate(191,238)"/>
<path d="M0 0 C3.82118677 0.54588382 7.36378667 1.73155349 11 3 C10.67 3.66 10.34 4.32 10 5 C7.03 4.505 7.03 4.505 4 4 C3.67 5.32 3.34 6.64 3 8 C1.02 4.535 1.02 4.535 -1 1 C-0.67 0.67 -0.34 0.34 0 0 Z " fill="#F2F3F8" transform="translate(112,168)"/>
<path d="M0 0 C0.66 1.32 1.32 2.64 2 4 C-1.5087188 7.09592835 -4.49197399 8.74194623 -9 10 C-9 9.34 -9 8.68 -9 8 C-9.66 8 -10.32 8 -11 8 C-10.67 7.34 -10.34 6.68 -10 6 C-8.6078125 5.566875 -8.6078125 5.566875 -7.1875 5.125 C-3.81025773 3.93303214 -2.31437551 2.67043328 0 0 Z " fill="#DCDFE8" transform="translate(185,144)"/>
<path d="M0 0 C0.33 0.66 0.66 1.32 1 2 C1.66 2 2.32 2 3 2 C1.74194623 6.50802601 0.09592835 9.4912812 -3 13 C-3.66 12.67 -4.32 12.34 -5 12 C-3.41037341 7.96479403 -1.71767682 3.98188718 0 0 Z " fill="#DBDDE7" transform="translate(198,142)"/>
<path d="M0 0 C3.35250701 0.57575664 4.93818629 1.59306263 7.25 4.0625 C8.03117188 4.88427734 8.03117188 4.88427734 8.828125 5.72265625 C9.21484375 6.14417969 9.6015625 6.56570312 10 7 C9.67 7.66 9.34 8.32 9 9 C5.0873016 7.6957672 2.62689759 6.21065261 0 3 C0 2.01 0 1.02 0 0 Z " fill="#F6F6F8" transform="translate(126,136)"/>
<path d="M0 0 C0 0.66 0 1.32 0 2 C-2.60444348 2.05394705 -5.20776998 2.09364469 -7.8125 2.125 C-8.55048828 2.14175781 -9.28847656 2.15851563 -10.04882812 2.17578125 C-13.91246426 2.21074628 -15.70903668 2.19397555 -19 0 C-16.39619004 -0.19476139 -13.79224467 -0.38108614 -11.1875 -0.5625 C-10.44951172 -0.61857422 -9.71152344 -0.67464844 -8.95117188 -0.73242188 C-5.63211484 -0.95769724 -3.18767436 -1.06255812 0 0 Z " fill="#F1F3F6" transform="translate(155,175)"/>
<path d="M0 0 C0.66 0 1.32 0 2 0 C2.05449838 1.72880982 2.09301688 3.45812712 2.125 5.1875 C2.14820313 6.15042969 2.17140625 7.11335937 2.1953125 8.10546875 C1.9913544 11.12812778 1.26874632 13.26769985 0 16 C-0.66 16 -1.32 16 -2 16 C-1.34 10.72 -0.68 5.44 0 0 Z " fill="#F7F9F9" transform="translate(201,128)"/>
<path d="M0 0 C0.97646484 0.04833984 1.95292969 0.09667969 2.95898438 0.14648438 C4.47008789 0.2305957 4.47008789 0.2305957 6.01171875 0.31640625 C7.55182617 0.3947168 7.55182617 0.3947168 9.12304688 0.47460938 C11.64877962 0.60383291 14.17407136 0.73877916 16.69921875 0.87890625 C16.69921875 1.20890625 16.69921875 1.53890625 16.69921875 1.87890625 C12.76250834 2.10452359 8.8249334 2.30643452 4.88671875 2.50390625 C3.76716797 2.56835938 2.64761719 2.6328125 1.49414062 2.69921875 C0.42099609 2.75078125 -0.65214844 2.80234375 -1.7578125 2.85546875 C-3.24244995 2.934021 -3.24244995 2.934021 -4.75708008 3.01416016 C-7.30078125 2.87890625 -7.30078125 2.87890625 -10.30078125 0.87890625 C-6.75064296 0.04802282 -3.63668758 -0.19140461 0 0 Z " fill="#475080" transform="translate(133.30078125,83.12109375)"/>
<path d="M0 0 C1.97265625 0.265625 1.97265625 0.265625 4.97265625 2.265625 C4.64265625 2.595625 4.31265625 2.925625 3.97265625 3.265625 C4.96265625 3.925625 5.95265625 4.585625 6.97265625 5.265625 C3.18446352 6.69972653 0.90744346 5.77571997 -2.77734375 4.328125 C-4.25460938 3.75771484 -4.25460938 3.75771484 -5.76171875 3.17578125 C-6.509375 2.87542969 -7.25703125 2.57507813 -8.02734375 2.265625 C-5.42029477 -0.34142398 -3.55396134 0.02657167 0 0 Z " fill="#373972" transform="translate(193.02734375,216.734375)"/>
<path d="M0 0 C2.31 1.98 4.62 3.96 7 6 C6.01 7.485 6.01 7.485 5 9 C4.67 9.66 4.34 10.32 4 11 C3.01 10.67 2.02 10.34 1 10 C1.33 7.69 1.66 5.38 2 3 C1.01 3 0.02 3 -1 3 C-0.67 2.01 -0.34 1.02 0 0 Z " fill="#333971" transform="translate(120,251)"/>
<path d="M0 0 C2.91952568 0.01748219 5.72297885 0.13944633 8.625 0.375 C9.42679688 0.43171875 10.22859375 0.4884375 11.0546875 0.546875 C13.03715498 0.68847982 15.01869051 0.84302259 17 1 C13.54476381 3.13142281 10.94647517 3.15896804 6.9375 3 C2.1636543 2.74697476 2.1636543 2.74697476 -2 5 C-2 2 -2 2 0 0 Z " fill="#39447B" transform="translate(199,227)"/>
<path d="M0 0 C0.33 0 0.66 0 1 0 C1.33910994 2.04071515 1.67102704 4.08262621 2 6.125 C2.185625 7.26195312 2.37125 8.39890625 2.5625 9.5703125 C2.96956049 12.76137602 3.07809902 15.78817791 3 19 C2.34 19 1.68 19 1 19 C-0.65497356 15.69005287 -0.10084335 12.00877 -0.0625 8.375 C-0.05798828 7.57320312 -0.05347656 6.77140625 -0.04882812 5.9453125 C-0.03703168 3.96350994 -0.01909605 1.98174567 0 0 Z " fill="#F3F3F7" transform="translate(91,175)"/>
<path d="M0 0 C-0.33 1.32 -0.66 2.64 -1 4 C-0.34 4 0.32 4 1 4 C0.67 5.65 0.34 7.3 0 9 C-1.32 8.34 -2.64 7.68 -4 7 C-4 6.34 -4 5.68 -4 5 C-5.62626404 3.61767557 -7.2925002 2.28062485 -9 1 C-5.94152152 0.45627049 -3.11227195 0 0 0 Z " fill="#2E3473" transform="translate(164,175)"/>
<path d="M0 0 C0 1.65 0 3.3 0 5 C-0.99 5 -1.98 5 -3 5 C-3.66 4.34 -4.32 3.68 -5 3 C-6.33599921 3.32248257 -7.66893378 3.65772583 -9 4 C-11.75 3.5625 -11.75 3.5625 -14 3 C-14 2.67 -14 2.34 -14 2 C-12.4176994 1.66179834 -10.83410625 1.32964061 -9.25 1 C-8.36828125 0.814375 -7.4865625 0.62875 -6.578125 0.4375 C-4 0 -4 0 0 0 Z " fill="#9BBEDF" transform="translate(265,116)"/>
<path d="M0 0 C4.3177458 0.50797009 8.03302114 1.19682779 12 3 C12 3.33 12 3.66 12 4 C7.71 4 3.42 4 -1 4 C-0.34 3.67 0.32 3.34 1 3 C0.67 2.01 0.34 1.02 0 0 Z " fill="#F7F7F9" transform="translate(188,197)"/>
<path d="M0 0 C-1.4317521 5.01113235 -3.98445693 6.94469549 -8 10 C-8.66 9.34 -9.32 8.68 -10 8 C-8.71451591 6.66070495 -7.42141845 5.32871357 -6.125 4 C-5.04605469 2.88625 -5.04605469 2.88625 -3.9453125 1.75 C-2 0 -2 0 0 0 Z " fill="#384277" transform="translate(198,154)"/>
<path d="M0 0 C9.85828397 0.21056529 9.85828397 0.21056529 13.125 3.5625 C13.74375 4.366875 14.3625 5.17125 15 6 C4.44191344 4.07289294 4.44191344 4.07289294 0 2 C0 1.34 0 0.68 0 0 Z " fill="#414477" transform="translate(127,147)"/>
<path d="M0 0 C3 1 3 1 4.3125 3.375 C4.6528125 4.674375 4.6528125 4.674375 5 6 C4.01 7.485 4.01 7.485 3 9 C3 8.34 3 7.68 3 7 C1.68 7 0.36 7 -1 7 C-1.66 6.67 -2.32 6.34 -3 6 C-2.01 4.02 -1.02 2.04 0 0 Z " fill="#A0C5E3" transform="translate(145,31)"/>
<path d="M0 0 C0.66 0 1.32 0 2 0 C2.08096803 1.45742463 2.13917774 2.91612807 2.1875 4.375 C2.22230469 5.18710938 2.25710937 5.99921875 2.29296875 6.8359375 C2.19628906 7.55007812 2.09960938 8.26421875 2 9 C1.01 9.66 0.02 10.32 -1 11 C-1.33 10.67 -1.66 10.34 -2 10 C-1.61140641 6.50265772 -1.11403913 3.34211739 0 0 Z " fill="#E2E5EB" transform="translate(147,245)"/>
<path d="M0 0 C0.66 0.33 1.32 0.66 2 1 C2 1.66 2 2.32 2 3 C0.46875 4.2890625 0.46875 4.2890625 -1.5 5.625 C-2.1496875 6.07101563 -2.799375 6.51703125 -3.46875 6.9765625 C-4.22671875 7.48316406 -4.22671875 7.48316406 -5 8 C-5.99 7.01 -6.98 6.02 -8 5 C-7.34 5 -6.68 5 -6 5 C-5.67 4.01 -5.34 3.02 -5 2 C-3.35 2 -1.7 2 0 2 C0 1.34 0 0.68 0 0 Z " fill="#A1C8E4" transform="translate(268,168)"/>
<path d="M0 0 C1.32 0.66 2.64 1.32 4 2 C1.61042731 5.24299151 -0.2047869 7.50902342 -4 9 C-4.33 7.68 -4.66 6.36 -5 5 C-4.360625 4.731875 -3.72125 4.46375 -3.0625 4.1875 C-0.66868314 3.11332248 -0.66868314 3.11332248 0 0 Z " fill="#34386F" transform="translate(192,224)"/>
<path d="M0 0 C0.99 0.33 1.98 0.66 3 1 C3 1.66 3 2.32 3 3 C3.66 3 4.32 3 5 3 C5.66 4.65 6.32 6.3 7 8 C2.61031544 8 1.23094261 5.87194899 -2 3 C-1.34 2.67 -0.68 2.34 0 2 C0 1.34 0 0.68 0 0 Z " fill="#9EC6E0" transform="translate(57,196)"/>
<path d="M0 0 C4.40021656 0.36668471 6.744666 2.11670417 10 5 C7.3125 5.8125 7.3125 5.8125 4 6 C1.125 3.5625 1.125 3.5625 -1 1 C-0.67 0.67 -0.34 0.34 0 0 Z " fill="#E9EBEE" transform="translate(182,192)"/>
<path d="M0 0 C0 0.66 0 1.32 0 2 C0.99 2 1.98 2 3 2 C3 2.99 3 3.98 3 5 C1.5608866 4.71640113 0.12374482 4.42278601 -1.3125 4.125 C-2.11300781 3.96257812 -2.91351563 3.80015625 -3.73828125 3.6328125 C-6 3 -6 3 -9 1 C-5.94152152 0.45627049 -3.11227195 0 0 0 Z " fill="#9BC4DF" transform="translate(205,176)"/>
<path d="M0 0 C1.48199902 0.44909061 2.96055236 0.90956564 4.4375 1.375 C5.26121094 1.63023437 6.08492187 1.88546875 6.93359375 2.1484375 C9 3 9 3 10 5 C8.56163249 4.88541307 7.12429034 4.75790884 5.6875 4.625 C4.88699219 4.55539063 4.08648437 4.48578125 3.26171875 4.4140625 C1 4 1 4 -2 2 C-1.34 2 -0.68 2 0 2 C0 1.34 0 0.68 0 0 Z " fill="#E9EBF1" transform="translate(187,219)"/>
<path d="M0 0 C1.86408478 2.79612717 2.48836118 4.37169348 3.1875 7.5625 C3.45626953 8.74005859 3.45626953 8.74005859 3.73046875 9.94140625 C4 12 4 12 3 14 C2.34 14 1.68 14 1 14 C0.855625 13.21625 0.71125 12.4325 0.5625 11.625 C0.12201075 9.03578982 0.12201075 9.03578982 -1 7 C-0.34 7 0.32 7 1 7 C0.67 4.69 0.34 2.38 0 0 Z " fill="#9BC3DE" transform="translate(90,201)"/>
<path d="M0 0 C1.134375 0.020625 2.26875 0.04125 3.4375 0.0625 C3.7675 1.0525 4.0975 2.0425 4.4375 3.0625 C0.1475 3.0625 -4.1425 3.0625 -8.5625 3.0625 C-7.2425 2.4025 -5.9225 1.7425 -4.5625 1.0625 C-3.5625 0.0625 -3.5625 0.0625 0 0 Z " fill="#99BEDD" transform="translate(208.5625,243.9375)"/>
<path d="M0 0 C2.1723491 3.25852365 4.07119658 6.59244728 6 10 C3.6875 9.9375 3.6875 9.9375 1 9 C-0.8125 5.4375 -0.8125 5.4375 -2 2 C-1.34 2 -0.68 2 0 2 C0 1.34 0 0.68 0 0 Z " fill="#E3E4ED" transform="translate(87,142)"/>
<path d="M0 0 C0.33 0.99 0.66 1.98 1 3 C3.01508358 3.73323796 3.01508358 3.73323796 5 4 C5 5.32 5 6.64 5 8 C2.625 7.75 2.625 7.75 0 7 C-1.3125 4.9375 -1.3125 4.9375 -2 3 C-1.34 3 -0.68 3 0 3 C0 2.01 0 1.02 0 0 Z " fill="#F4F4F5" transform="translate(115,140)"/>
<path d="M0 0 C1.79068573 2.6860286 2.66055791 4.6626589 3.625 7.6875 C3.88539062 8.49574219 4.14578125 9.30398437 4.4140625 10.13671875 C4.60742188 10.75160156 4.80078125 11.36648437 5 12 C4.01 12.33 3.02 12.66 2 13 C-0.44038726 8.11922548 -1.46845421 5.47332932 0 0 Z " fill="#424B7C" transform="translate(82,136)"/>
<path d="M0 0 C0.66 0 1.32 0 2 0 C2 2.97 2 5.94 2 9 C-0.475 8.01 -0.475 8.01 -3 7 C-1.125 2.25 -1.125 2.25 0 0 Z " fill="#3E4176" transform="translate(183,137)"/>
<path d="M0 0 C1.98 0.495 1.98 0.495 4 1 C3.34 4.63 2.68 8.26 2 12 C1.67 12 1.34 12 1 12 C0.63597631 10.56496445 0.28413409 9.12683494 -0.0625 7.6875 C-0.25972656 6.88699219 -0.45695312 6.08648437 -0.66015625 5.26171875 C-1 3 -1 3 0 0 Z " fill="#9BC3DE" transform="translate(258,128)"/>
<path d="M0 0 C0.66 0 1.32 0 2 0 C2.33 2.31 2.66 4.62 3 7 C2.34 7 1.68 7 1 7 C1 9.64 1 12.28 1 15 C0.67 15 0.34 15 0 15 C-0.19390729 12.68802845 -0.37996367 10.3753971 -0.5625 8.0625 C-0.71912109 6.13083984 -0.71912109 6.13083984 -0.87890625 4.16015625 C-0.91886719 3.11730469 -0.95882812 2.07445313 -1 1 C-0.67 0.67 -0.34 0.34 0 0 Z " fill="#D1D3E2" transform="translate(200,121)"/>
<path d="M0 0 C1.58294782 -0.05437607 3.16644256 -0.09296271 4.75 -0.125 C5.63171875 -0.14820313 6.5134375 -0.17140625 7.421875 -0.1953125 C10.1135858 0.00860498 11.69904974 0.63448279 14 2 C9.97542684 3.34152439 6.1944205 3.27060777 2 3 C1.34 2.01 0.68 1.02 0 0 Z " fill="#363A77" transform="translate(150,216)"/>
<path d="M0 0 C1.9587043 0.14076315 3.91696093 0.2877676 5.875 0.4375 C7.51082031 0.55931641 7.51082031 0.55931641 9.1796875 0.68359375 C12 1 12 1 14 2 C14 2.66 14 3.32 14 4 C9.02906176 3.58846263 4.55491614 3.20399168 0 1 C0 0.67 0 0.34 0 0 Z " fill="#2C356D" transform="translate(204,181)"/>
<path d="M0 0 C3.63 0.66 7.26 1.32 11 2 C7.77208445 4.1519437 6.71599191 4.20086443 3 4 C2.67 4.99 2.34 5.98 2 7 C1.34 4.69 0.68 2.38 0 0 Z " fill="#35386F" transform="translate(117,173)"/>
<path d="M0 0 C-1.49097658 3.7952131 -3.75700849 5.61042731 -7 8 C-7.66 7.34 -8.32 6.68 -9 6 C-8.07213211 4.99105628 -7.13231567 3.99309093 -6.1875 3 C-5.66542969 2.443125 -5.14335937 1.88625 -4.60546875 1.3125 C-3 0 -3 0 0 0 Z " fill="#EDEDF3" transform="translate(195,154)"/>
<path d="M0 0 C-1.3125 2 -1.3125 2 -3 4 C-3.99 4 -4.98 4 -6 4 C-6 3.34 -6 2.68 -6 2 C-7.65 1.67 -9.3 1.34 -11 1 C-7.2297564 -1.56376565 -4.32597804 -0.83191885 0 0 Z " fill="#393D76" transform="translate(155,202)"/>
<path d="M0 0 C-2.06756277 2.7972908 -3.14440371 3.02692273 -6.6875 3.6875 C-7.780625 3.790625 -8.87375 3.89375 -10 4 C-9.34 3.67 -8.68 3.34 -8 3 C-8 2.34 -8 1.68 -8 1 C-8.66 0.67 -9.32 0.34 -10 0 C-6.30581799 -1.231394 -3.7943739 -0.64432764 0 0 Z " fill="#383D77" transform="translate(212,186)"/>
<path d="M0 0 C3.63 1.98 7.26 3.96 11 6 C10.01 6.495 10.01 6.495 9 7 C8.67 7.66 8.34 8.32 8 9 C6.66079162 7.88200014 5.32877444 6.75538103 4 5.625 C2.88625 4.68527344 2.88625 4.68527344 1.75 3.7265625 C1.1725 3.15679687 0.595 2.58703125 0 2 C0 1.34 0 0.68 0 0 Z " fill="#D3D6E3" transform="translate(165,180)"/>
<path d="M0 0 C3.8063457 0.67170806 7.35206816 1.72746564 11 3 C10.34 3.66 9.68 4.32 9 5 C6.8359375 4.7578125 6.8359375 4.7578125 4.375 4.125 C3.55773437 3.92132813 2.74046875 3.71765625 1.8984375 3.5078125 C1.27195313 3.34023437 0.64546875 3.17265625 0 3 C0 2.01 0 1.02 0 0 Z " fill="#3B4478" transform="translate(218,183)"/>
<path d="M0 0 C-1.32 0.33 -2.64 0.66 -4 1 C-4 1.66 -4 2.32 -4 3 C-4.99 3 -5.98 3 -7 3 C-7 3.66 -7 4.32 -7 5 C-8.65 4.67 -10.3 4.34 -12 4 C-12 3.34 -12 2.68 -12 2 C-10.35 2 -8.7 2 -7 2 C-7 1.34 -7 0.68 -7 0 C-3.86650268 -1.04449911 -3.01031744 -0.93423645 0 0 Z " fill="#313773" transform="translate(159,90)"/>
<path d="M0 0 C2.9375 0.8125 2.9375 0.8125 6 2 C6.33 2.99 6.66 3.98 7 5 C5.68 5 4.36 5 3 5 C2.34 5.66 1.68 6.32 1 7 C0 6 0 6 -0.0625 2.9375 C-0.041875 1.968125 -0.02125 0.99875 0 0 Z " fill="#A0C4E4" transform="translate(98,66)"/>
<path d="M0 0 C1.98 0.99 1.98 0.99 4 2 C4.75 5.125 4.75 5.125 5 8 C4.01 8.33 3.02 8.66 2 9 C1.34 6.03 0.68 3.06 0 0 Z " fill="#333A74" transform="translate(93,207)"/>
<path d="M0 0 C0.66 0 1.32 0 2 0 C3.31223496 3.93670488 2.24296256 6.12488144 1 10 C0.01 9.67 -0.98 9.34 -2 9 C-1.34 6.03 -0.68 3.06 0 0 Z " fill="#A1C7E2" transform="translate(205,138)"/>
<path d="M0 0 C1.2077558 3.62326739 0.54311128 4.64146369 -1 8 C-1.33 7.34 -1.66 6.68 -2 6 C-4.02463255 5.34786708 -4.02463255 5.34786708 -6 5 C-5.34 5 -4.68 5 -4 5 C-4 4.01 -4 3.02 -4 2 C-2.68 1.34 -1.36 0.68 0 0 Z " fill="#9DC1E1" transform="translate(194,65)"/>
<path d="M0 0 C0.66 0 1.32 0 2 0 C3.32 2.64 4.64 5.28 6 8 C5.01 8 4.02 8 3 8 C0.75 5.6875 0.75 5.6875 -1 3 C-0.67 2.01 -0.34 1.02 0 0 Z " fill="#3A3E76" transform="translate(130,133)"/>
<path d="M0 0 C1.32 1.32 2.64 2.64 4 4 C3.01 5.32 2.02 6.64 1 8 C0.01 7.67 -0.98 7.34 -2 7 C-1.34 4.69 -0.68 2.38 0 0 Z " fill="#99BBDB" transform="translate(72,104)"/>
<path d="M0 0 C0 0.66 0 1.32 0 2 C-2.31 3.32 -4.62 4.64 -7 6 C-7.66 5.34 -8.32 4.68 -9 4 C-4.5 0 -4.5 0 0 0 Z " fill="#333B73" transform="translate(106,92)"/>
<path d="M0 0 C0.66 0 1.32 0 2 0 C5 5.75 5 5.75 5 8 C1.125 7.125 1.125 7.125 0 6 C-0.04080783 4.00041636 -0.04254356 1.99954746 0 0 Z " fill="#9FC5E4" transform="translate(161,61)"/>
<path d="M0 0 C0.66 0.33 1.32 0.66 2 1 C0.9024777 3.99324263 0.32317108 4.84610901 -2.625 6.25 C-3.40875 6.4975 -4.1925 6.745 -5 7 C-5.33 6.34 -5.66 5.68 -6 5 C-4.625 3 -4.625 3 -3 1 C-2.34 1 -1.68 1 -1 1 C-0.67 0.67 -0.34 0.34 0 0 Z " fill="#9EC9E2" transform="translate(133,61)"/>
<path d="M0 0 C0.66 0.33 1.32 0.66 2 1 C2.36923077 7.52307692 2.36923077 7.52307692 0.5 9.9375 C0.005 10.288125 -0.49 10.63875 -1 11 C-1 7.25838897 -0.48661829 3.71046443 0 0 Z " fill="#F9FAF8" transform="translate(243,205)"/>
<path d="M0 0 C6.625 0.75 6.625 0.75 10 3 C9.01 3.66 8.02 4.32 7 5 C3.3125 3.625 3.3125 3.625 0 2 C0 1.34 0 0.68 0 0 Z " fill="#DFE1EB" transform="translate(228,190)"/>
<path d="M0 0 C3.375 0.25 3.375 0.25 7 1 C8.4375 3.0625 8.4375 3.0625 9 5 C4.68607774 4.5206753 2.83430453 3.2542015 0 0 Z " fill="#282E69" transform="translate(177,170)"/>
<path d="M0 0 C0.33 1.32 0.66 2.64 1 4 C-1.66666667 4 -4.33333333 4 -7 4 C-7.33 4.66 -7.66 5.32 -8 6 C-8 5.01 -8 4.02 -8 3 C-5.36 2.01 -2.72 1.02 0 0 Z " fill="#9EC2E4" transform="translate(31,166)"/>
<path d="M0 0 C0.33 0.99 0.66 1.98 1 3 C-3.30769231 6.07692308 -3.30769231 6.07692308 -6.8125 5.6875 C-7.534375 5.460625 -8.25625 5.23375 -9 5 C-6.08596738 3.05731159 -3.14191424 1.53604696 0 0 Z " fill="#3B4376" transform="translate(184,239)"/>
<path d="M0 0 C1.98 0 3.96 0 6 0 C6 1.98 6 3.96 6 6 C3.37812506 4.95125002 2.20628639 4.35068687 0.75 1.875 C0.5025 1.25625 0.255 0.6375 0 0 Z " fill="#282D68" transform="translate(136,205)"/>
<path d="M0 0 C6.75 1.625 6.75 1.625 9 5 C7.741875 4.87625 6.48375 4.7525 5.1875 4.625 C4.12595703 4.52058594 4.12595703 4.52058594 3.04296875 4.4140625 C1 4 1 4 -2 2 C-1.34 2 -0.68 2 0 2 C0 1.34 0 0.68 0 0 Z " fill="#3E457B" transform="translate(198,178)"/>
<path d="M0 0 C0.33 0 0.66 0 1 0 C1.33 4.62 1.66 9.24 2 14 C0.02 14.99 0.02 14.99 -2 16 C-1.34 10.72 -0.68 5.44 0 0 Z " fill="#4B5385" transform="translate(203,128)"/>
<path d="M0 0 C2.31 1.98 4.62 3.96 7 6 C6.67 6.99 6.34 7.98 6 9 C4.99105628 8.07213211 3.99309093 7.13231567 3 6.1875 C2.1646875 5.40439453 2.1646875 5.40439453 1.3125 4.60546875 C0 3 0 3 0 0 Z " fill="#F2F5F8" transform="translate(120,248)"/>
<path d="M0 0 C0.66 0.99 1.32 1.98 2 3 C-0.3125 5.0625 -0.3125 5.0625 -3 7 C-3.99 6.67 -4.98 6.34 -6 6 C-4 4 -2 2 0 0 Z " fill="#DCDEEB" transform="translate(137,218)"/>
<path d="M0 0 C3.465 1.98 3.465 1.98 7 4 C3.42355152 5.2380014 0.66305234 4.74926071 -3 4 C-2.34 3.67 -1.68 3.34 -1 3 C-0.67 2.01 -0.34 1.02 0 0 Z " fill="#3E4076" transform="translate(181,194)"/>
<path d="M0 0 C1.45823212 -0.0270043 2.91660675 -0.04639787 4.375 -0.0625 C5.18710938 -0.07410156 5.99921875 -0.08570313 6.8359375 -0.09765625 C9 0 9 0 11 1 C11 1.66 11 2.32 11 3 C9.741875 2.87625 8.48375 2.7525 7.1875 2.625 C6.12595703 2.52058594 6.12595703 2.52058594 5.04296875 2.4140625 C3 2 3 2 0 0 Z " fill="#EBEEF2" transform="translate(205,184)"/>
<path d="M0 0 C2.64 0.66 5.28 1.32 8 2 C5.42786866 3.61949011 4.32330841 4.04408751 1.25 3.625 C0.5075 3.41875 -0.235 3.2125 -1 3 C-0.67 2.01 -0.34 1.02 0 0 Z " fill="#353A71" transform="translate(157,169)"/>
<path d="M0 0 C1.65 0 3.3 0 5 0 C4.67 0.66 4.34 1.32 4 2 C3.34 2 2.68 2 2 2 C2.66 3.65 3.32 5.3 4 7 C3.01 7 2.02 7 1 7 C0.67 4.69 0.34 2.38 0 0 Z " fill="#E9EAF0" transform="translate(175,167)"/>
<path d="M0 0 C1.32 0.99 2.64 1.98 4 3 C3.3405469 6.69293736 2.47070566 7.70572579 0 11 C0 7.37 0 3.74 0 0 Z " fill="#98BAD9" transform="translate(89,156)"/>
<path d="M0 0 C2 1.75 2 1.75 4 4 C4 5.32 4 6.64 4 8 C3.34 8 2.68 8 2 8 C2 7.01 2 6.02 2 5 C0.68 4.34 -0.64 3.68 -2 3 C-1.34 2.01 -0.68 1.02 0 0 Z " fill="#9EC4E1" transform="translate(78,112)"/>
<path d="M0 0 C2.75 0.25 2.75 0.25 5 1 C2.23776722 3.76223278 -0.20706617 3.57856291 -4 4 C-2.3125 1.9375 -2.3125 1.9375 0 0 Z " fill="#EFF1F4" transform="translate(114,89)"/>
<path d="M0 0 C2.0625 0.4375 2.0625 0.4375 4 1 C1.63707344 3.52588702 0.33537489 4.88820837 -3 6 C-1.125 1.125 -1.125 1.125 0 0 Z " fill="#F0F1F3" transform="translate(184,235)"/>
<path d="M0 0 C2.31 1.98 4.62 3.96 7 6 C6.34 6.66 5.68 7.32 5 8 C3.02 5.69 1.04 3.38 -1 1 C-0.67 0.67 -0.34 0.34 0 0 Z " fill="#3E417A" transform="translate(133,210)"/>
<path d="M0 0 C0.598125 0.33 1.19625 0.66 1.8125 1 C4.05386471 2.20787988 4.05386471 2.20787988 7 2 C7 2.99 7 3.98 7 5 C6.01 5.33 5.02 5.66 4 6 C2.68 4.02 1.36 2.04 0 0 Z " fill="#E0E2E8" transform="translate(131,206)"/>
<path d="M0 0 C-0.99 0.33 -1.98 0.66 -3 1 C-2.34 1.66 -1.68 2.32 -1 3 C-2.98 3.33 -4.96 3.66 -7 4 C-7 3.01 -7 2.02 -7 1 C-7.66 0.67 -8.32 0.34 -9 0 C-5.62182575 -0.84454356 -3.32534757 -1.10844919 0 0 Z " fill="#D0D3E1" transform="translate(154,198)"/>
<path d="M0 0 C0.33 0 0.66 0 1 0 C1.33 2.97 1.66 5.94 2 9 C1.01 9.33 0.02 9.66 -1 10 C-1.33 8.02 -1.66 6.04 -2 4 C-1.34 4 -0.68 4 0 4 C0 2.68 0 1.36 0 0 Z " fill="#D2D3E1" transform="translate(94,190)"/>
<path d="M0 0 C2 2 2 2 2 5 C-0.31 5.66 -2.62 6.32 -5 7 C-3.35 4.69 -1.7 2.38 0 0 Z " fill="#9BBDDE" transform="translate(219,104)"/>
<path d="M0 0 C-0.99 0.33 -1.98 0.66 -3 1 C-2.67 1.66 -2.34 2.32 -2 3 C-3.98 3.33 -5.96 3.66 -8 4 C-8.66 3.01 -9.32 2.02 -10 1 C-3.71428571 -1.42857143 -3.71428571 -1.42857143 0 0 Z " fill="#D0D2DE" transform="translate(127,87)"/>
<path d="M0 0 C1.65 0.33 3.3 0.66 5 1 C4.01 2.485 4.01 2.485 3 4 C1.35 3.67 -0.3 3.34 -2 3 C-1.34 2.01 -0.68 1.02 0 0 Z " fill="#323771" transform="translate(131,218)"/>
<path d="M0 0 C-2.39763185 2.39763185 -3.33273498 2.34280586 -6.625 2.625 C-7.44226563 2.69976562 -8.25953125 2.77453125 -9.1015625 2.8515625 C-9.72804687 2.90054688 -10.35453125 2.94953125 -11 3 C-7.74003139 -0.25996861 -4.40088745 -1.46696248 0 0 Z " fill="#353B73" transform="translate(150,218)"/>
<path d="M0 0 C2.1875 0.3125 2.1875 0.3125 4 1 C1.03 3.475 1.03 3.475 -2 6 C-2.33 5.01 -2.66 4.02 -3 3 C-1.75 1.4375 -1.75 1.4375 0 0 Z " fill="#EDF0F5" transform="translate(95,101)"/>
<path d="M0 0 C2.64 0.33 5.28 0.66 8 1 C8.33 1.99 8.66 2.98 9 4 C4.545 3.01 4.545 3.01 0 2 C0 1.34 0 0.68 0 0 Z " fill="#98BCDC" transform="translate(159,83)"/>
<path d="M0 0 C2.91517292 1.07401108 4.77810176 1.77810176 7 4 C4 5 4 5 0.8125 3.5625 C-0.115625 3.046875 -1.04375 2.53125 -2 2 C-1.34 1.34 -0.68 0.68 0 0 Z " fill="#D2D5E3" transform="translate(179,173)"/>
<path d="M0 0 C1.75 1.4375 1.75 1.4375 3 3 C1.02 3.99 1.02 3.99 -1 5 C-1.99 3.68 -2.98 2.36 -4 1 C-2.1875 0.3125 -2.1875 0.3125 0 0 Z " fill="#E0E2E8" transform="translate(136,143)"/>
<path d="M0 0 C1.98 0.495 1.98 0.495 4 1 C4.33 2.32 4.66 3.64 5 5 C2.03 4.505 2.03 4.505 -1 4 C-0.67 2.68 -0.34 1.36 0 0 Z " fill="#A0CAE2" transform="translate(218,109)"/>
<path d="M0 0 C3.65316671 1.24976756 4.78065836 1.67098753 7 5 C6.34 5.66 5.68 6.32 5 7 C4.67 5.68 4.34 4.36 4 3 C2.68 2.67 1.36 2.34 0 2 C0 1.34 0 0.68 0 0 Z " fill="#3C3E76" transform="translate(232,193)"/>
<path d="M0 0 C-0.33 0.99 -0.66 1.98 -1 3 C-3.3125 3.6875 -3.3125 3.6875 -6 4 C-7.8125 2.5625 -7.8125 2.5625 -9 1 C-5.94152152 0.45627049 -3.11227195 0 0 0 Z " fill="#363B71" transform="translate(164,175)"/>
<path d="M0 0 C1.98 0 3.96 0 6 0 C6 0.99 6 1.98 6 3 C3.69 3 1.38 3 -1 3 C-0.67 2.01 -0.34 1.02 0 0 Z " fill="#DFE2EB" transform="translate(155,173)"/>
<path d="M0 0 C0.33 0.66 0.66 1.32 1 2 C1.66 2 2.32 2 3 2 C2.67 3.65 2.34 5.3 2 7 C1.01 6.67 0.02 6.34 -1 6 C-0.67 4.02 -0.34 2.04 0 0 Z " fill="#3A447A" transform="translate(89,167)"/>
<path d="M0 0 C0.68707555 2.49064888 1 4.37886292 1 7 C-0.32 7 -1.64 7 -3 7 C-1.125 1.125 -1.125 1.125 0 0 Z " fill="#DADAE8" transform="translate(95,161)"/>
<path d="M0 0 C2.475 0.99 2.475 0.99 5 2 C4.01 2.99 3.02 3.98 2 5 C0.68 4.01 -0.64 3.02 -2 2 C-1.34 1.34 -0.68 0.68 0 0 Z " fill="#D9DCE5" transform="translate(101,161)"/>
<path d="M0 0 C1.2077558 3.62326739 0.54311128 4.64146369 -1 8 C-1.66 8 -2.32 8 -3 8 C-2.67 6.02 -2.34 4.04 -2 2 C-1.34 2 -0.68 2 0 2 C0 1.34 0 0.68 0 0 Z " fill="#EDEFF3" transform="translate(202,136)"/>
<path d="M0 0 C0 3.10551666 -0.5393715 4.35261084 -2 7 C-3.32 6.67 -4.64 6.34 -6 6 C-4.02 4.02 -2.04 2.04 0 0 Z " fill="#3B4073" transform="translate(99,101)"/>
</svg>
