<?xml version="1.0" encoding="UTF-8"?>
<svg version="1.1" xmlns="http://www.w3.org/2000/svg" width="1600" height="1600">
<path d="M0 0 C528 0 1056 0 1600 0 C1600 528 1600 1056 1600 1600 C1072 1600 544 1600 0 1600 C0 1072 0 544 0 0 Z " fill="#000000" transform="translate(0,0)"/>
<path d="M0 0 C33.53765256 -0.43534645 67.07459953 -0.76990935 100.61445234 -0.97024126 C104.57834068 -0.99400332 108.54222347 -1.01859558 112.50610352 -1.04370117 C113.68975783 -1.05117702 113.68975783 -1.05117702 114.89732436 -1.05880389 C127.65756593 -1.14137409 140.41617322 -1.29111619 153.17544677 -1.46590313 C166.27790123 -1.64388775 179.37950282 -1.74917876 192.48311645 -1.7876814 C200.56321755 -1.8136943 208.63869984 -1.8956708 216.71737776 -2.05041287 C222.92352404 -2.16319704 229.12618668 -2.17457787 235.33321762 -2.14904594 C237.87104847 -2.15425748 240.40905996 -2.19185571 242.94584465 -2.26490402 C261.60685816 -2.77573252 261.60685816 -2.77573252 267.27868867 1.86406302 C271.29900171 6.36244667 274.16795216 11.34478046 276.83419478 16.7308563 C278.44941957 19.87475812 280.40457268 22.61285779 282.48828125 25.46484375 C283.44637695 26.83672852 283.44637695 26.83672852 284.42382812 28.23632812 C285.04708984 29.12771484 285.67035156 30.01910156 286.3125 30.9375 C290.87184223 37.47355988 295.38246729 44.0303643 299.76953125 50.68359375 C303.70409743 56.53376308 307.76059779 62.2997953 311.79370117 68.08227539 C317.23988903 75.89494274 322.63283151 83.74229279 328 91.609375 C329.88750889 94.37563484 331.78202722 97.13670946 333.6875 99.890625 C339.95882308 108.9585247 346.09554155 118.11022335 352.16723633 127.31323242 C355.9893033 133.08123651 359.94360341 138.71843395 364.0378418 144.29614258 C367.22835203 148.69267124 370.26818526 153.18907538 373.3125 157.6875 C374.62605847 159.62125925 375.93986217 161.55485195 377.25390625 163.48828125 C378.20934326 164.8952124 378.20934326 164.8952124 379.18408203 166.33056641 C381.6940812 170.02031243 384.21937453 173.69938082 386.75 177.375 C387.18948975 178.01356934 387.62897949 178.65213867 388.08178711 179.31005859 C388.95379555 180.57675878 389.82594535 181.84336167 390.69824219 183.10986328 C397.53532325 193.03722292 404.35501108 202.97632432 411.15917969 212.92626953 C415.98034499 219.97489904 420.81630573 227.013269 425.65722656 234.04833984 C427.93908519 237.36491764 430.21945755 240.6825171 432.5 244 C433.41665976 245.33333808 434.33332642 246.66667142 435.25 248 C440.75 256 446.25 264 451.75 272 C452.20358887 272.6597583 452.65717773 273.3195166 453.12451172 273.99926758 C454.04283361 275.33502333 454.9611278 276.67079812 455.87939453 278.0065918 C458.14551157 281.30301745 460.41208059 284.59913027 462.6796875 287.89453125 C467.10988617 294.33384836 471.53423773 300.777041 475.94458008 307.22998047 C477.59535711 309.64414894 479.24879247 312.05648121 480.90234375 314.46875 C482.86600188 317.33512099 484.81665423 320.20947569 486.75390625 323.09375 C487.16882324 323.70645752 487.58374023 324.31916504 488.01123047 324.95043945 C489.10939658 326.57216047 490.20142115 328.19803558 491.29296875 329.82421875 C491.85628906 330.54222656 492.41960937 331.26023437 493 332 C493.66 332 494.32 332 495 332 C496.41438406 330.42713316 497.75604401 328.78860004 499.0625 327.125 C502.11025865 323.31164438 505.20500341 319.60191191 508.5 316 C511.57653672 312.62539052 514.51118217 309.18184136 517.375 305.625 C520.63758595 301.5880481 524.02842933 297.73389345 527.5625 293.9375 C531.60865708 289.59018168 535.38165637 285.10122496 539.04296875 280.42578125 C541.79798679 277.01087864 544.76212069 273.80264171 547.71875 270.5625 C550.04028821 267.95474475 552.24530355 265.27958856 554.4375 262.5625 C558.29825137 257.788597 562.37437075 253.26611572 566.53125 248.75 C568.94378104 246.06262366 571.2325621 243.31034556 573.5 240.5 C576.55348679 236.71539666 579.70668301 233.07792463 583 229.5 C587.01529746 225.13313271 590.79137958 220.63188173 594.51953125 216.01953125 C601.06105459 208.05638552 607.87547803 200.30744123 614.8125 192.6875 C617.64661306 189.56482271 620.32990729 186.37653217 622.9375 183.0625 C626.58226855 178.43422248 630.50243356 174.12044674 634.4921875 169.7890625 C637.72587972 166.19271321 640.74839025 162.44619485 643.78515625 158.68359375 C645.95632827 156.05291443 648.20241357 153.52057576 650.5 151 C653.61458668 147.58260628 656.5918662 144.0947765 659.5 140.5 C663.11032442 136.03723787 666.88427929 131.77280467 670.75 127.53125 C673.07862053 124.9115519 675.29562947 122.2248469 677.5 119.5 C681.82115798 114.16254179 686.38095582 109.07924415 691 104 C694.82074423 99.73267528 698.51642817 95.38588491 702.125 90.9375 C709.55830487 81.80732486 717.28568297 72.92032958 725.25 64.25 C729.27430624 59.86162083 733.04642753 55.31593777 736.78515625 50.68359375 C738.95632827 48.05291443 741.20241357 45.52057576 743.5 43 C747.32293041 38.80136781 750.91679525 34.45981058 754.48828125 30.046875 C757.90097093 25.90706481 761.42057478 21.86445372 764.95605469 17.8293457 C765.46426758 17.24757568 765.97248047 16.66580566 766.49609375 16.06640625 C767.02189529 15.48656982 767.54769684 14.9067334 768.08943176 14.30932617 C770.10759683 11.96892213 770.10759683 11.96892213 771.88780212 9.01908875 C778.02303652 0.05469352 778.02303652 0.05469352 783.94682312 -1.05674744 C788.71992253 -1.53901478 793.47249087 -1.35227306 798.2578125 -1.171875 C800.01466032 -1.14945635 801.77158385 -1.13239233 803.52853394 -1.12042236 C808.12386031 -1.07488656 812.71453865 -0.95729087 817.30804443 -0.82397461 C822.00680664 -0.70058285 826.70633011 -0.6462788 831.40625 -0.5859375 C840.60619452 -0.45774609 849.80270889 -0.25331299 859 0 C858.05868737 1.26960938 857.11533455 2.53770627 856.17114258 3.80517578 C855.64603592 4.51151154 855.12092926 5.21784729 854.57991028 5.94558716 C852.42601325 8.74637514 850.0989231 11.29159377 847.6875 13.875 C844.47223577 17.17851097 844.47223577 17.17851097 842 21 C841.34 21 840.68 21 840 21 C839.75378906 21.56589844 839.50757813 22.13179688 839.25390625 22.71484375 C837.78463776 25.39248258 836.02247565 27.33043612 833.9375 29.5625 C830.66981527 33.12296928 827.53520807 36.7393292 824.5 40.5 C821.5918662 44.0947765 818.61458668 47.58260628 815.5 51 C811.57138962 55.31122287 807.88055734 59.77706527 804.21484375 64.3125 C801.41759518 67.70669227 798.49354121 70.9723645 795.53125 74.22265625 C793.93160961 75.93262428 793.93160961 75.93262428 793 78 C792.34 78 791.68 78 791 78 C790.77957031 78.52980469 790.55914063 79.05960937 790.33203125 79.60546875 C788.52188754 82.85948075 786.13052844 85.52692538 783.6875 88.3125 C783.15987061 88.92061523 782.63224121 89.52873047 782.08862305 90.15527344 C780.96798181 91.44627853 779.84562225 92.73579378 778.72167969 94.02392578 C777.01911281 95.97806309 775.32471423 97.93896914 773.6328125 99.90234375 C768.89082144 105.40049578 764.1364457 110.87915882 759.25 116.25 C755.42168168 120.46953333 751.83265413 124.85269142 748.25 129.28125 C745.35642111 132.77765782 742.30650817 136.11508132 739.25 139.46875 C736.92137947 142.0884481 734.70437053 144.7751531 732.5 147.5 C728.88850866 151.96420457 725.11339306 156.23002114 721.24609375 160.47265625 C718.93812402 163.06962393 716.74444137 165.73404013 714.5625 168.4375 C710.70291397 173.20996203 706.62800009 177.73109109 702.47265625 182.24609375 C699.25290481 185.83207284 696.24094824 189.56701492 693.21484375 193.31640625 C691.04367173 195.94708557 688.79758643 198.47942424 686.5 201 C683.38541332 204.41739372 680.4081338 207.9052235 677.5 211.5 C673.88850866 215.96420457 670.11339306 220.23002114 666.24609375 224.47265625 C663.93812402 227.06962393 661.74444137 229.73404013 659.5625 232.4375 C655.70291397 237.20996203 651.62800009 241.73109109 647.47265625 246.24609375 C644.25290481 249.83207284 641.24094824 253.56701492 638.21484375 257.31640625 C636.04367173 259.94708557 633.79758643 262.47942424 631.5 265 C628.38541332 268.41739372 625.4081338 271.9052235 622.5 275.5 C618.8873417 279.96564707 615.11106455 284.23284615 611.2421875 288.4765625 C608.95484096 291.05082358 606.78451729 293.69289489 604.625 296.375 C601.38047268 300.3882655 598.01250676 304.22413126 594.5 308 C590.26429312 312.5578222 586.26942448 317.25877746 582.36328125 322.1015625 C572.98557775 333.60281208 563.08186471 344.69026742 553.35449219 355.89550781 C552.54093262 356.83281738 552.54093262 356.83281738 551.7109375 357.7890625 C551.16896729 358.41329102 550.62699707 359.03751953 550.06860352 359.68066406 C548.98925614 360.92592818 547.91159162 362.17265311 546.83569336 363.42089844 C544.08174178 366.61469098 541.30442152 369.78188609 538.48046875 372.9140625 C537.917229 373.54755615 537.35398926 374.1810498 536.77368164 374.83374023 C535.69834212 376.04284033 534.61326767 377.24337265 533.51733398 378.43383789 C530.80516929 381.3438611 530.80516929 381.3438611 529.98828125 385.078125 C531.25498071 387.48436489 532.58488921 389.77708377 534.0625 392.0625 C534.61035156 392.91972656 535.15820312 393.77695312 535.72265625 394.66015625 C537.64801826 397.54773286 539.70027938 400.33539768 541.75390625 403.1328125 C545.97641424 408.91039048 549.93997219 414.83689091 553.875 420.8125 C558.91287302 428.41768933 564.02241897 435.92948277 569.375 443.31640625 C574.21053561 450.04202225 578.80149519 456.94238438 583.45703125 463.79296875 C586.89352199 468.84950648 590.36514997 473.88009522 593.8515625 478.90234375 C601.44107141 489.84503569 608.94501119 500.84621459 616.44287109 511.85180664 C621.50534157 519.28041778 626.59025055 526.69325099 631.68945312 534.09667969 C633.96155061 537.39646956 636.23057913 540.69836901 638.5 544 C639.41665286 545.33334282 640.33331951 546.66667617 641.25 548 C646.75 556 652.25 564 657.75 572 C658.4303833 572.98963745 658.4303833 572.98963745 659.12451172 573.99926758 C660.04283361 575.33502333 660.9611278 576.67079812 661.87939453 578.0065918 C664.14551157 581.30301745 666.41208059 584.59913027 668.6796875 587.89453125 C669.57816116 589.20049596 670.47659838 590.50648573 671.375 591.8125 C671.82721924 592.46984131 672.27943848 593.12718262 672.74536133 593.80444336 C675.17592868 597.3396202 677.60126205 600.8782726 680.01953125 604.421875 C685.97234326 613.14332894 691.96210261 621.83718039 698 630.5 C704.55791029 639.9089035 711.05339957 649.35842281 717.51806641 658.83154297 C719.83795075 662.22614144 722.16875003 665.61320128 724.5 669 C729.06826935 675.63846189 733.62011784 682.28805646 738.16845703 688.94018555 C741.56269766 693.90312119 744.96523441 698.8602214 748.375 703.8125 C752.76896343 710.19544688 757.13716499 716.5957432 761.5 723 C767.20902877 731.37998232 772.93777073 739.74592878 778.68945312 748.09667969 C780.9615506 751.39646954 783.23059602 754.69835742 785.5 758 C788.22584044 761.96534094 790.95197323 765.930479 793.6796875 769.89453125 C799.18518464 777.89670733 804.67634388 785.90854995 810.15917969 793.92626953 C815.42615184 801.62667659 820.71119245 809.31458053 826 817 C832.39969408 826.29970186 838.7868389 835.60779944 845.15917969 844.92626953 C849.97736426 851.97054115 854.81043256 859.00448825 859.6484375 866.03515625 C861.0372463 868.05414708 862.42501567 870.07384878 863.8125 872.09375 C864.2780127 872.77131348 864.74352539 873.44887695 865.22314453 874.14697266 C866.15137335 875.4980936 867.07943558 876.849329 868.00732422 878.20068359 C870.14375481 881.30982297 872.28562411 884.41477381 874.4453125 887.5078125 C874.83509277 888.06702393 875.22487305 888.62623535 875.62646484 889.20239258 C876.66060199 890.68438616 877.697365 892.1645465 878.734375 893.64453125 C880.77824054 896.61903254 882.70745966 899.66297932 884.64160156 902.7097168 C885.27084534 903.70037643 885.90008911 904.69103607 886.54840088 905.7117157 C887.02742859 906.46684952 887.5064563 907.22198334 888 908 C854.49656183 908.50426013 820.99407239 908.8915596 787.48767832 909.12343725 C783.52636593 909.1509507 779.56506101 909.17942599 775.60375977 909.20849609 C774.81518151 909.21426692 774.02660325 909.22003775 773.21412868 909.22598346 C760.46787283 909.32155135 747.72381398 909.49491183 734.97885882 909.69736151 C721.88773005 909.90356569 708.79774647 910.02538828 695.70506054 910.06994689 C687.63348454 910.1000455 679.56811737 910.19482561 671.49845517 910.37416227 C665.29547732 910.50493796 659.09716553 910.51790584 652.89299774 910.48836899 C650.35913315 910.49439527 647.8250222 910.5378258 645.2925663 910.62252045 C626.69554485 911.21368118 626.69554485 911.21368118 620.53445935 905.85594225 C616.00171051 900.61037712 612.63542226 894.83178245 609.45100892 888.69837308 C607.34871837 884.78884217 604.83387114 881.22607784 602.25 877.625 C601.36736337 876.34802919 600.48683541 875.06959564 599.609375 873.7890625 C599.18076172 873.16676758 598.75214844 872.54447266 598.31054688 871.90332031 C596.03844939 868.60353044 593.76942087 865.30163099 591.5 862 C590.58334714 860.66665718 589.66668049 859.33332383 588.75 858 C583.25 850 577.75 842 572.25 834 C571.79657227 833.3404834 571.34314453 832.6809668 570.87597656 832.00146484 C569.95599947 830.66328666 569.03607791 829.32507029 568.11621094 827.98681641 C565.87563946 824.72729952 563.63422307 821.46837199 561.390625 818.2109375 C556.80858588 811.55584773 552.24243678 804.89047751 547.69824219 798.20947266 C541.8456822 789.60642164 535.95316222 781.03378276 530 772.5 C522.85398308 762.2553522 515.80456413 751.94751533 508.78173828 741.61816406 C500.67338731 729.70339894 492.51253346 717.82436839 484.34277344 705.95166016 C482.06091481 702.63508236 479.78054245 699.3174829 477.5 696 C476.58334024 694.66666192 475.66667358 693.33332858 474.75 692 C465.58333333 678.66666667 456.41666667 665.33333333 447.25 652 C446.79641113 651.3402417 446.34282227 650.6804834 445.87548828 650.00073242 C444.95716639 648.66497667 444.0388722 647.32920188 443.12060547 645.9934082 C440.85448843 642.69698255 438.58791941 639.40086973 436.3203125 636.10546875 C431.32762564 628.8485721 426.34593671 621.5843156 421.375 614.3125 C417.76465692 609.03136279 414.14659686 603.75617532 410.5 598.5 C406.29482096 592.43868882 402.12902739 586.35086075 397.96606445 580.26049805 C392.65872648 572.49688435 387.33190467 564.74675528 382 557 C377.76123015 560.47095298 374.01405686 563.91304601 370.625 568.25 C367.68277979 571.9402423 364.68420493 575.51623572 361.5 579 C357.57138962 583.31122287 353.88055734 587.77706527 350.21484375 592.3125 C347.41759518 595.70669227 344.49354121 598.9723645 341.53125 602.22265625 C339.93160961 603.93262428 339.93160961 603.93262428 339 606 C338.34 606 337.68 606 337 606 C336.58596924 606.89162842 336.58596924 606.89162842 336.16357422 607.80126953 C335.06205048 609.88274724 333.93496751 611.42210824 332.3828125 613.1796875 C331.60550781 614.06720703 331.60550781 614.06720703 330.8125 614.97265625 C330.255625 615.60042969 329.69875 616.22820313 329.125 616.875 C327.93971682 618.22622282 326.75482956 619.57779303 325.5703125 620.9296875 C324.9712207 621.6112793 324.37212891 622.29287109 323.75488281 622.99511719 C321.14563694 625.97607533 318.57210914 628.98700707 316 632 C311.85197331 636.84964204 307.6830462 641.68053853 303.5 646.5 C301.33257353 648.99934226 299.16595787 651.49938494 297 654 C296.43087891 654.65693848 295.86175781 655.31387695 295.27539062 655.99072266 C293.59791106 657.92930144 291.92351371 659.87049736 290.25 661.8125 C289.73630859 662.40546875 289.22261719 662.9984375 288.69335938 663.609375 C286.07079138 666.613503 286.07079138 666.613503 284 670 C283.34 670 282.68 670 282 670 C281.63068359 670.84884766 281.63068359 670.84884766 281.25390625 671.71484375 C279.78463776 674.39248258 278.02247565 676.33043612 275.9375 678.5625 C272.68892508 682.10168226 269.57531784 685.69560168 266.5625 689.4375 C263.48663412 693.24087503 260.31246834 696.90082652 257 700.5 C252.98470254 704.86686729 249.20862042 709.36811827 245.48046875 713.98046875 C238.93894541 721.94361448 232.12452197 729.69255877 225.1875 737.3125 C222.35338694 740.43517729 219.67009271 743.62346783 217.0625 746.9375 C213.41773145 751.56577752 209.49756644 755.87955326 205.5078125 760.2109375 C202.27169967 763.80997887 199.24731061 767.55980981 196.20703125 771.32421875 C193.37104466 774.76253878 190.3813452 778.04354735 187.3828125 781.33984375 C181.20980567 788.23134809 175.30915104 795.36330211 169.5 802.5625 C165.8365369 807.07137766 161.9730644 811.33813089 158.01782227 815.58789062 C154.4783622 819.41460223 151.2342486 823.4058375 148.0234375 827.5078125 C145.00891887 831.22067521 141.74698827 834.69440112 138.5078125 838.2109375 C135.27412028 841.80728679 132.25160975 845.55380515 129.21484375 849.31640625 C127.04367173 851.94708557 124.79758643 854.47942424 122.5 857 C117.17936971 862.84335888 111.91934009 868.85146409 107.3671875 875.3203125 C106.69042969 876.15175781 106.69042969 876.15175781 106 877 C105.34 877 104.68 877 104 877 C103.63068359 877.84884766 103.63068359 877.84884766 103.25390625 878.71484375 C101.78463776 881.39248258 100.02247565 883.33043612 97.9375 885.5625 C93.83509855 890.03484425 89.95534228 894.64042844 86.140625 899.359375 C85.43421875 900.23078125 84.7278125 901.1021875 84 902 C83.29212845 903.03041412 82.5842569 904.06082825 81.85493469 905.12246704 C79.6025702 907.80005226 79.08539241 907.98288728 75.39958191 908.7215271 C73.99323624 908.73879879 72.5862421 908.72322889 71.18041992 908.68115234 C70.40915771 908.6820285 69.63789551 908.68290466 68.84326172 908.68380737 C66.30461846 908.67964103 63.7686478 908.63304004 61.23046875 908.5859375 C59.46643009 908.57474182 57.70237273 908.56620339 55.93830872 908.56021118 C51.30343794 908.53734178 46.66970187 908.47843566 42.03527832 908.4119873 C37.3029719 908.35052351 32.57048146 908.32318747 27.83789062 908.29296875 C18.55809619 908.22868992 9.27914258 908.12633388 0 908 C0.94257391 906.72832614 1.88723776 905.4582012 2.83276367 904.1887207 C3.35859543 903.48125198 3.88442719 902.77378326 4.42619324 902.0448761 C6.57235904 899.25632336 8.89593501 896.74726884 11.3125 894.1875 C15.69230806 889.49730009 19.79435852 884.64864369 23.8203125 879.6484375 C26.6859268 876.16656206 29.72039212 872.85514082 32.7578125 869.5234375 C35.04515904 866.94917642 37.21548271 864.30710511 39.375 861.625 C42.61952517 857.61173716 45.98747183 853.77584616 49.5 850 C53.71396119 845.46607379 57.68225067 840.78759542 61.56640625 835.96875 C66.04200563 830.50894979 70.71834734 825.22073691 75.35351562 819.89648438 C77.93637434 816.92144782 80.50053398 813.93052964 83.0625 810.9375 C83.55411621 810.36338379 84.04573242 809.78926758 84.55224609 809.19775391 C86.03518249 807.46546992 87.51767327 805.7328057 89 804 C95.68901674 796.18069397 102.39748756 788.37934454 109.14208984 780.60791016 C114.79007108 774.09645732 120.39681312 767.54999602 126 761 C132.12695854 753.83772701 138.26317506 746.68401725 144.4375 739.5625 C144.97463623 738.94286377 145.51177246 738.32322754 146.06518555 737.68481445 C148.83763226 734.48819541 151.61384103 731.29491963 154.39453125 728.10546875 C159.9915753 721.67806283 165.50057715 715.20715641 170.859375 708.578125 C173.87555693 704.94549713 177.05071125 701.46754421 180.25 697.99609375 C182.04781979 696.11549325 182.04781979 696.11549325 183 694 C183.66 694 184.32 694 185 694 C185.24492188 693.43539062 185.48984375 692.87078125 185.7421875 692.2890625 C187.226895 689.58707928 189.01966335 687.62705 191.125 685.375 C194.21812226 682.00517671 197.17451823 678.59709929 200 675 C204.10887863 669.78834083 208.53319596 664.90456705 213 660 C216.89148687 655.65464641 220.6441743 651.22311811 224.3125 646.6875 C228.21901874 641.87896675 232.33301001 637.31127351 236.52734375 632.75390625 C239.74709519 629.16792716 242.75905176 625.43298508 245.78515625 621.68359375 C247.95632827 619.05291443 250.20241357 616.52057576 252.5 614 C255.52282421 610.68010514 258.42512161 607.30235888 261.25 603.8125 C266.45214635 597.3911006 271.87608668 591.17213142 277.30615234 584.94384766 C280.06346675 581.77957304 282.81336498 578.60888105 285.5625 575.4375 C286.36917114 574.50707886 286.36917114 574.50707886 287.19213867 573.55786133 C292.82075513 567.06082492 298.41213655 560.53208328 304 554 C310.16525463 546.79295977 316.34270846 539.59756741 322.5625 532.4375 C328.43480697 525.67491796 334.2399573 518.85851238 340 512 C340.48082031 511.48453613 340.96164062 510.96907227 341.45703125 510.43798828 C344.18692035 507.61425166 344.18692035 507.61425166 345.015625 503.94140625 C343.73009023 501.4840571 342.31880771 499.22809109 340.75 496.9375 C340.02296875 495.87015625 339.2959375 494.8028125 338.546875 493.703125 C338.14017578 493.11208984 337.73347656 492.52105469 337.31445312 491.91210938 C335.91633558 489.87829499 334.52791263 487.83809049 333.140625 485.796875 C327.87202747 478.05755038 322.55502578 470.35369708 317.19140625 462.67993164 C310.18336131 452.65197259 303.305421 442.55064913 296.57885742 432.33129883 C292.86180178 426.7047333 289.00340942 421.21838881 285.01367188 415.78222656 C281.56324287 411.01487824 278.28979825 406.12891503 275 401.25 C269.37331836 392.93587415 263.69431979 384.66234253 257.9375 376.4375 C251.67966152 367.49152257 245.58039405 358.44911003 239.57788086 349.32983398 C235.7971891 343.60691423 231.87094143 338.02532693 227.8125 332.49609375 C225.52740873 329.34916849 223.37361784 326.13196707 221.25 322.875 C217.60264588 317.34088565 213.84218376 311.90050486 210 306.5 C206.28976518 301.28229877 202.64980363 296.03225769 199.125 290.6875 C195.28425763 284.86769872 191.32447503 279.14050946 187.3125 273.4375 C180.38031233 263.58066242 173.58728303 253.63293233 166.81396484 243.66650391 C163.96664504 239.48098212 161.10913591 235.30245593 158.25 231.125 C157.71769775 230.34721191 157.18539551 229.56942383 156.63696289 228.76806641 C151.8817518 221.82271412 147.11426559 214.88583374 142.34277344 207.95166016 C140.06091481 204.63508236 137.78054245 201.3174829 135.5 198 C134.58334024 196.66666192 133.66667358 195.33332858 132.75 194 C127.25 186 121.75 178 116.25 170 C115.5698584 169.0107251 115.5698584 169.0107251 114.87597656 168.00146484 C113.95599947 166.66328666 113.03607791 165.32507029 112.11621094 163.98681641 C109.87563946 160.72729952 107.63422307 157.46837199 105.390625 154.2109375 C100.80858588 147.55584773 96.24243678 140.89047751 91.69824219 134.20947266 C85.8456822 125.60642164 79.95316222 117.03378276 74 108.5 C66.85398308 98.2553522 59.80456413 87.94751533 52.78173828 77.61816406 C44.67338731 65.70339894 36.51253346 53.82436839 28.34277344 41.95166016 C26.9807092 39.9719617 25.61916263 37.99190832 24.2578125 36.01171875 C23.80245117 35.34938232 23.34708984 34.6870459 22.87792969 34.00463867 C21.96432415 32.67550773 21.05091053 31.34624485 20.13769531 30.0168457 C17.7766793 26.58052802 15.4113543 23.147295 13.0390625 19.71875 C12.55115234 19.01234375 12.06324219 18.3059375 11.56054688 17.578125 C10.63880743 16.24379742 9.71574361 14.91038318 8.79101562 13.578125 C6.56488337 10.35243564 4.41337113 7.09597242 2.34326172 3.76757812 C1.90182831 3.05863403 1.4603949 2.34968994 1.00558472 1.6192627 C0.67374176 1.08490601 0.3418988 0.55054932 0 0 Z " fill="#FDFDFD" transform="translate(356,344)"/>
<path d="M0 0 C15.45515997 -0.35129707 30.91001939 -0.61534226 46.3682375 -0.77718258 C53.54706531 -0.85434866 60.72340503 -0.95941864 67.90063477 -1.1315918 C74.16079794 -1.28169328 80.41915925 -1.37800485 86.68107194 -1.41132742 C89.9944283 -1.43079714 93.30146646 -1.48408731 96.61345863 -1.58595085 C116.77417368 -2.18115098 116.77417368 -2.18115098 122.17672157 1.47179604 C125.69921406 4.92460904 128.06153464 8.81728483 130.15568161 13.25539017 C131.24624701 15.50881867 132.63622995 17.46876031 134.12890625 19.47265625 C134.94230496 20.66777593 135.75357962 21.86434461 136.5625 23.0625 C139.9842412 28.08465387 143.45080187 33.0670852 147 38 C150.4758974 42.83558467 153.88600123 47.7109174 157.25 52.625 C165.67737465 64.93381879 174.26042396 77.13418209 182.875 89.3125 C189.04625091 98.03671988 195.14249353 106.81280293 201.23828125 115.58984375 C204.22974192 119.89607647 207.23379441 124.19330672 210.24243164 128.48754883 C213.35921709 132.9430064 216.45959863 137.40986801 219.5625 141.875 C229.54685377 156.23360649 239.56532509 170.56723358 249.66845703 184.8425293 C253.49577151 190.26103922 257.2553188 195.72399043 261.0012207 201.19897461 C263.90951879 205.44039514 266.8699979 209.63915502 269.875 213.8125 C273.79266428 219.25614 277.59934461 224.7695284 281.375 230.3125 C286.47135909 237.79272408 291.64941342 245.20896676 296.8828125 252.59375 C300.3787416 257.52811999 303.84645394 262.48211201 307.3125 267.4375 C307.87509521 268.24179443 308.43769043 269.04608887 309.01733398 269.87475586 C310.12261401 271.45514522 311.22775734 273.0356302 312.33276367 274.61621094 C314.03568212 277.05101775 315.7404907 279.48449437 317.4453125 281.91796875 C321.16311566 287.22860098 324.86312065 292.55152525 328.5625 297.875 C338.54685377 312.23360649 348.56532509 326.56723358 358.66845703 340.8425293 C362.49424868 346.25888327 366.25220069 351.71972496 369.99682617 357.19238281 C372.94911261 361.49764535 375.95272947 365.76152372 379 370 C382.99561963 375.55754366 386.88923226 381.17891316 390.75390625 386.828125 C394.12628215 391.7497156 397.55033052 396.6323307 401 401.5 C404.87666023 406.97106292 408.71274511 412.46666862 412.5 418 C416.18674286 423.38487098 419.91540152 428.73707329 423.6875 434.0625 C428.45142377 440.78854627 433.17224664 447.54354709 437.875 454.3125 C444.64605712 464.05800013 451.44118819 473.78627182 458.25146484 483.50439453 C461.31501076 487.87685562 464.37609628 492.25103891 467.4375 496.625 C468.54035384 498.20052835 469.64321806 499.77604944 470.74609375 501.3515625 C471.28032959 502.11484863 471.81456543 502.87813477 472.36499023 503.66455078 C473.4761333 505.2517084 474.58763722 506.83861344 475.69946289 508.42529297 C480.00104212 514.56557224 484.28435664 520.71837579 488.5625 526.875 C493.75457742 534.34483363 498.96179275 541.80366207 504.1875 549.25 C508.69629623 555.67478019 513.14865578 562.13467741 517.5625 568.625 C522.34440508 575.6524349 527.26293794 582.56666828 532.26367188 589.43969727 C536.23609877 594.91019022 540.0956479 600.44824357 543.90673828 606.03198242 C547.22449545 610.88836601 550.59873819 615.70178163 554 620.5 C557.87672846 625.97101358 561.71274596 631.46666987 565.5 637 C569.18674286 642.38487098 572.91540152 647.73707329 576.6875 653.0625 C581.45142377 659.78854627 586.17224664 666.54354709 590.875 673.3125 C597.65625974 683.07268465 604.46169833 692.81556667 611.28222656 702.54833984 C614.1896209 706.69786428 617.09468025 710.84902289 620 715 C621.15754115 716.65365349 622.31509325 718.30729931 623.47265625 719.9609375 C637.74609375 740.3515625 637.74609375 740.3515625 639.35961914 742.6574707 C640.48793038 744.26874416 641.61739006 745.87921381 642.74780273 747.48901367 C646.60413916 752.98481004 650.41068133 758.51183767 654.1875 764.0625 C657.584905 769.05198601 661.00120715 774.02393548 664.5078125 778.9375 C665.34082886 780.10526978 665.34082886 780.10526978 666.19067383 781.29663086 C667.25401439 782.78223431 668.3214252 784.26493468 669.39331055 785.74438477 C673 790.78199903 673 790.78199903 673 793 C657.54496667 793.3747138 642.0902752 793.65636178 626.6317625 793.82899475 C619.45274712 793.91130739 612.27656243 794.02338072 605.09936523 794.20703125 C598.83919977 794.36713956 592.58108405 794.46987046 586.31892806 794.50541592 C583.00521921 794.52618582 579.69869806 794.58302106 576.38654137 794.69168091 C556.22874785 795.32646904 556.22874785 795.32646904 550.83158684 791.43755341 C547.28065449 787.72203482 544.96354831 783.56725181 542.88550472 778.8979044 C541.67170918 776.29637351 540.06508652 774.06296635 538.35546875 771.765625 C537.83106201 771.01740479 537.30665527 770.26918457 536.76635742 769.49829102 C536.24533447 768.75635498 535.72431152 768.01441895 535.1875 767.25 C533.99999258 765.55599478 532.81249282 763.8619842 531.625 762.16796875 C531.02945313 761.31895996 530.43390625 760.46995117 529.8203125 759.59521484 C526.7741465 755.25230382 523.73038434 750.90771081 520.6875 746.5625 C520.09735107 745.71977539 519.50720215 744.87705078 518.89916992 744.00878906 C515.04307818 738.49899897 511.20957655 732.97430395 507.38671875 727.44140625 C501.95982873 719.6030874 496.47122945 711.80738962 491 704 C488.56208695 700.52112249 486.12449081 697.04202362 483.6875 693.5625 C483.0989624 692.72219238 482.5104248 691.88188477 481.90405273 691.01611328 C478.71361033 686.45782335 475.53580028 681.89138905 472.375 677.3125 C468.94898791 672.35178733 465.48133636 667.42192683 462 662.5 C457.78395888 656.53934473 453.6047048 650.55539668 449.45703125 644.546875 C444.61552988 637.54525677 439.7155298 630.58411013 434.83056641 623.61279297 C431.88566498 619.40949408 428.94291232 615.20469166 426 611 C424.83334426 609.33332568 423.66667758 607.66665903 422.5 606 C420.16666667 602.66666667 417.83333333 599.33333333 415.5 596 C414.92241943 595.17491943 414.34483887 594.34983887 413.74975586 593.49975586 C412.58377189 591.83399475 411.4179189 590.16814196 410.25219727 588.50219727 C407.32615547 584.32091173 404.39781516 580.14127198 401.46484375 575.96484375 C395.67688483 567.71804214 389.92386743 559.45080193 384.25 551.125 C380.18954444 545.16797181 376.07858428 539.25589378 371.86914062 533.40332031 C366.45087287 525.86354581 361.15321277 518.23891665 355.83642578 510.62744141 C353.99567392 507.99381053 352.15256218 505.36184833 350.30859375 502.73046875 C344.64578398 494.64919894 338.99604551 486.55989582 333.38671875 478.44140625 C328.56514128 471.4773695 323.69129299 464.54952185 318.83056641 457.61279297 C315.88566498 453.40949408 312.94291232 449.20469166 310 445 C308.83334426 443.33332568 307.66667758 441.66665903 306.5 440 C304.16666667 436.66666667 301.83333333 433.33333333 299.5 430 C298.92241943 429.17491943 298.34483887 428.34983887 297.74975586 427.49975586 C296.58377189 425.83399475 295.4179189 424.16814196 294.25219727 422.50219727 C291.32615547 418.32091173 288.39781516 414.14127198 285.46484375 409.96484375 C279.72002399 401.7796271 274.00777612 393.57531036 268.375 385.3125 C262.82905211 377.17838734 257.18127445 369.12133762 251.48388672 361.09277344 C248.98327184 357.56607538 246.49207505 354.03273512 244 350.5 C240.99157521 346.23594029 237.98168987 341.97295089 234.96484375 337.71484375 C229.68540861 330.25847104 224.45104748 322.77516575 219.28930664 315.23681641 C214.92204273 308.86642788 210.49036434 302.54181582 206.05566406 296.21826172 C202.81312575 291.59358476 199.58273055 286.96138485 196.375 282.3125 C193.09308267 277.5612472 189.77330162 272.8384415 186.4375 268.125 C180.93946078 260.35479376 175.49982461 252.54479535 170.06860352 244.7277832 C163.97215506 235.95466836 157.84884917 227.2005968 151.71777344 218.45166016 C148.22861047 213.47181728 144.74244772 208.48987315 141.25610352 203.50805664 C138.30428036 199.29039917 135.35089519 195.07385112 132.39453125 190.859375 C127.02276605 183.19866286 121.66236054 175.53177809 116.375 167.8125 C112.19729624 161.71424048 107.95708935 155.6629234 103.68652344 149.62939453 C98.01785695 141.6196377 92.39654224 133.57693269 86.7734375 125.53515625 C85.03766367 123.0538408 83.30037486 120.57359426 81.5625 118.09375 C74.68074655 108.27260826 67.82109644 98.43639832 60.97680664 88.58911133 C55.93383692 81.33582653 50.8714981 74.09630821 45.80126953 66.86206055 C42.64427787 62.35564357 39.50049301 57.84081752 36.375 53.3125 C32.94898721 48.35178631 29.48127486 43.42197117 26 38.5 C21.36457655 31.94484105 16.76358704 25.36841743 12.2109375 18.75537109 C10.8111079 16.72618262 9.40548982 14.70105303 8 12.67578125 C6.97906365 11.20059212 5.95822904 9.72533258 4.9375 8.25 C4.44757568 7.54544678 3.95765137 6.84089355 3.45288086 6.11499023 C0 1.11347716 0 1.11347716 0 0 Z " fill="#000000" transform="translate(463,403)"/>
<path d="M0 0 C0.99 0.33 1.98 0.66 3 1 C0.69 2.65 -1.62 4.3 -4 6 C-2.84826645 3.53199953 -1.95216435 1.95216435 0 0 Z M-5 6 C-5 9 -5 9 -6.5 10.6875 C-6.995 11.120625 -7.49 11.55375 -8 12 C-8.66 11.67 -9.32 11.34 -10 11 C-8.35 9.35 -6.7 7.7 -5 6 Z " fill="#1F1F1F" transform="translate(1047,539)"/>
</svg>
